SplineFontDB: 3.0
FontName: AhomUnicode
FullName: AhomUnicode
FamilyName: AhomUnicode
Weight: Medium
Copyright: Created by U-user-HP\\user,S-1-5-21-605671543-1836641637-19650 with FontForge 2.0 (http://fontforge.sf.net)
Version: 001.000
ItalicAngle: 0
UnderlinePosition: -100
UnderlineWidth: 50
Ascent: 800
Descent: 200
sfntRevision: 0x00010000
LayerCount: 2
Layer: 0 1 "Back"  1
Layer: 1 1 "Fore"  0
XUID: [1021 149 55036599 8248538]
FSType: 0
OS2Version: 4
OS2_WeightWidthSlopeOnly: 0
OS2_UseTypoMetrics: 1
CreationTime: 1402042493
ModificationTime: 1402042493
PfmFamily: 17
TTFWeight: 500
TTFWidth: 5
LineGap: 90
VLineGap: 0
Panose: 2 0 6 3 0 0 0 0 0 0
OS2TypoAscent: 800
OS2TypoAOffset: 0
OS2TypoDescent: -200
OS2TypoDOffset: 0
OS2TypoLinegap: 90
OS2WinAscent: 1746
OS2WinAOffset: 0
OS2WinDescent: 1113
OS2WinDOffset: 0
HheadAscent: 1746
HheadAOffset: 0
HheadDescent: -1113
HheadDOffset: 0
OS2SubXSize: 650
OS2SubYSize: 700
OS2SubXOff: 0
OS2SubYOff: 140
OS2SupXSize: 650
OS2SupYSize: 700
OS2SupXOff: 0
OS2SupYOff: 480
OS2StrikeYSize: 49
OS2StrikeYPos: 258
OS2Vendor: 'PfEd'
OS2CodePages: 00000001.00000000
OS2UnicodeRanges: 00000000.02000000.00000000.00000000
MarkAttachClasses: 1
DEI: 91125
ShortTable: cvt  2
  33
  633
EndShort
ShortTable: maxp 16
  1
  0
  70
  249
  5
  0
  0
  2
  0
  1
  1
  0
  64
  46
  0
  0
EndShort

StartChar: .notdef
Encoding: 1114112 -1 0
Width: 364
Flags: W
LayerCount: 2
Fore
SplineSet
33 0 m 1,0,-1
 33 666 l 1,1,-1
 298 666 l 1,2,-1
 298 0 l 1,3,-1
 33 0 l 1,0,-1
66 33 m 1,4,-1
 265 33 l 1,5,-1
 265 633 l 1,6,-1
 66 633 l 1,7,-1
 66 33 l 1,4,-1
EndSplineSet
EndChar

StartChar: u11728_u11724
Encoding: 1114115 -1 3
Width: 127
Flags: W
LayerCount: 2
Fore
SplineSet
-149 -581 m 1,0,1
 -150 -587 -150 -587 -151 -595 c 0,2,3
 -151 -600 -151 -600 -151.5 -602 c 128,-1,4
 -152 -604 -152 -604 -152 -604.5 c 128,-1,5
 -152 -605 -152 -605 -152 -607 c 128,-1,6
 -152 -609 -152 -609 -152 -613 c 0,7,8
 -153 -620 -153 -620 -153 -622 c 2,9,-1
 -153 -638 l 2,10,11
 -153 -651 -153 -651 -152 -663 c 0,12,13
 -152 -675 -152 -675 -152 -701 c 2,14,15
 -152 -701 -152 -701 -152 -755 c 0,16,17
 -152 -891 -152 -891 -107 -956 c 0,18,19
 -65 -1016 -65 -1016 -47 -1028 c 1,20,21
 -12 -1054 -12 -1054 2 -1058.5 c 128,-1,22
 16 -1063 16 -1063 44 -1063 c 0,23,24
 77 -1063 77 -1063 112 -1053.5 c 128,-1,25
 147 -1044 147 -1044 176 -1032 c 128,-1,26
 205 -1020 205 -1020 284 -984 c 1,27,28
 231 -1046 231 -1046 172.5 -1082.5 c 128,-1,29
 114 -1119 114 -1119 42 -1113 c 0,30,31
 -12 -1108 -12 -1108 -54.5 -1085.5 c 128,-1,32
 -97 -1063 -97 -1063 -117.5 -1039.5 c 128,-1,33
 -138 -1016 -138 -1016 -156 -984 c 0,34,35
 -164 -970 -164 -970 -172 -950.5 c 128,-1,36
 -180 -931 -180 -931 -184 -918 c 2,37,-1
 -189 -905 l 1,38,39
 -213 -851 -213 -851 -213 -716 c 0,40,41
 -213 -638 -213 -638 -208.5 -571 c 128,-1,42
 -204 -504 -204 -504 -204 -466 c 1,43,44
 -205 -459 -205 -459 -201 -445.5 c 128,-1,45
 -197 -432 -197 -432 -197 -424 c 0,46,47
 -197 -398 -197 -398 -191 -373 c 128,-1,48
 -185 -348 -185 -348 -172 -323 c 0,49,50
 -146 -272 -146 -272 -92 -198 c 0,51,52
 -72 -172 -72 -172 -61 -165 c 0,53,54
 -58 -162 -58 -162 -52.5 -159.5 c 128,-1,55
 -47 -157 -47 -157 -39.5 -154.5 c 128,-1,56
 -32 -152 -32 -152 -22 -149 c 1,57,58
 41 -200 41 -200 94 -279.5 c 128,-1,59
 147 -359 147 -359 147 -397 c 0,60,61
 147 -513 147 -513 101 -588 c 0,62,63
 83 -617 83 -617 45 -636.5 c 128,-1,64
 7 -656 7 -656 -19 -656 c 0,65,66
 -40 -656 -40 -656 -58 -648.5 c 128,-1,67
 -76 -641 -76 -641 -87 -632.5 c 128,-1,68
 -98 -624 -98 -624 -117 -607 c 128,-1,69
 -136 -590 -136 -590 -149 -581 c 1,0,1
-22 -260 m 0,70,71
 -58 -260 -58 -260 -92.5 -304 c 128,-1,72
 -127 -348 -127 -348 -127 -414 c 2,73,-1
 -127 -432 l 1,74,75
 -127 -432 -127 -432 -127 -436 c 128,-1,76
 -127 -440 -127 -440 -126 -448 c 1,77,78
 -126 -463 -126 -463 -126 -466 c 0,79,80
 -126 -525 -126 -525 -101 -552.5 c 128,-1,81
 -76 -580 -76 -580 -8 -580 c 0,82,83
 31 -580 31 -580 55 -529.5 c 128,-1,84
 79 -479 79 -479 79 -419 c 0,85,86
 79 -407 79 -407 78 -402 c 1,87,88
 78 -357 78 -357 46.5 -308.5 c 128,-1,89
 15 -260 15 -260 -22 -260 c 0,70,71
EndSplineSet
EndChar

StartChar: u11707_u1171E
Encoding: 1114116 -1 4
Width: 1248
Flags: W
LayerCount: 2
Fore
SplineSet
1197 354 m 1,0,-1
 1147 38 l 2,1,2
 1111 -192 1111 -192 888 -234 c 0,3,4
 856 -240 856 -240 825 -240 c 2,5,6
 825 -240 825 -240 803 -240 c 0,7,8
 781 -241 781 -241 772 -240 c 128,-1,9
 763 -239 763 -239 741 -235.5 c 128,-1,10
 719 -232 719 -232 696 -222.5 c 128,-1,11
 673 -213 673 -213 645 -199 c 0,12,13
 583 -166 583 -166 555.5 -115 c 128,-1,14
 528 -64 528 -64 524 11 c 1,15,16
 471 -16 471 -16 372 -16 c 0,17,18
 323 -16 323 -16 288 1 c 128,-1,19
 253 18 253 18 205 62 c 0,20,21
 190 75 190 75 174.5 128 c 128,-1,22
 159 181 159 181 144 245 c 128,-1,23
 129 309 129 309 88.5 396.5 c 128,-1,24
 48 484 48 484 -11 555 c 0,25,26
 -39 589 -39 589 -40 590 c 1,27,28
 5 608 5 608 79 620 c 2,29,-1
 111 625 l 2,30,31
 124 627 124 627 133 627 c 0,32,33
 168 627 168 627 182 603 c 1,34,35
 182 546 182 546 218.5 338 c 128,-1,36
 255 130 255 130 267 117 c 0,37,38
 316 63 316 63 366 63 c 0,39,40
 455 63 455 63 529 138 c 1,41,42
 532 170 532 170 547 289.5 c 128,-1,43
 562 409 562 409 567 484 c 0,44,45
 571 546 571 546 577 588 c 1,46,47
 573 595 573 595 570 600 c 1,48,49
 576 602 576 602 579 605 c 1,50,51
 591 684 591 684 616.5 751 c 128,-1,52
 642 818 642 818 693 894 c 0,53,54
 759 992 759 992 816 1050.5 c 128,-1,55
 873 1109 873 1109 952 1147 c 0,56,57
 1023 1181 1023 1181 1084 1199 c 128,-1,58
 1145 1217 1145 1217 1223 1232 c 1,59,60
 1241 1233 1241 1233 1264 1232 c 0,61,62
 1287 1232 1287 1232 1329 1231 c 128,-1,63
 1371 1230 1371 1230 1386 1230 c 1,64,-1
 1212 1155 l 1,65,66
 1196 1146 1196 1146 1118 1112 c 0,67,68
 1039 1078 1039 1078 970 1038 c 1,69,70
 902 997 902 997 855 948 c 0,71,72
 790 880 790 880 743 808 c 128,-1,73
 696 736 696 736 681 684 c 0,74,75
 677 671 677 671 669 647 c 1,76,77
 677 645 677 645 676 641 c 128,-1,78
 675 637 675 637 671.5 632 c 128,-1,79
 668 627 668 627 672 621 c 1,80,81
 672 542 672 542 687 477 c 1,82,83
 704 483 704 483 739.5 502 c 128,-1,84
 775 521 775 521 802 541 c 2,85,-1
 920 631 l 1,86,87
 981 676 981 676 1020.5 698 c 128,-1,88
 1060 720 1060 720 1077 723.5 c 128,-1,89
 1094 727 1094 727 1119 727 c 0,90,91
 1133 727 1133 727 1167 685 c 128,-1,92
 1201 643 1201 643 1203 630 c 0,93,94
 1216 535 1216 535 1214.5 506.5 c 128,-1,95
 1213 478 1213 478 1205 435.5 c 128,-1,96
 1197 393 1197 393 1197 354 c 1,0,-1
1117 512 m 0,97,98
 1117 552 1117 552 1108.5 565.5 c 128,-1,99
 1100 579 1100 579 1082 579 c 0,100,101
 1014 579 1014 579 866 498 c 2,102,-1
 696 405 l 1,103,104
 702 358 702 358 738 254.5 c 128,-1,105
 774 151 774 151 786 138 c 0,106,107
 835 84 835 84 885 84 c 0,108,109
 908 84 908 84 930 95.5 c 128,-1,110
 952 107 952 107 962 116 c 128,-1,111
 972 125 972 125 993 150.5 c 128,-1,112
 1014 176 1014 176 1017 180 c 0,113,114
 1057 225 1057 225 1087 328 c 128,-1,115
 1117 431 1117 431 1117 512 c 0,97,98
584 58 m 1,116,117
 585 -65 585 -65 670 -142 c 0,118,119
 678 -149 678 -149 686.5 -153.5 c 128,-1,120
 695 -158 695 -158 707 -159.5 c 128,-1,121
 719 -161 719 -161 726 -161 c 128,-1,122
 733 -161 733 -161 747.5 -160.5 c 128,-1,123
 762 -160 762 -160 766 -160 c 0,124,125
 835 -160 835 -160 899 -117.5 c 128,-1,126
 963 -75 963 -75 992 -18 c 0,127,128
 1000 -2 1000 -2 1011.5 17.5 c 128,-1,129
 1023 37 1023 37 1027.5 46 c 128,-1,130
 1032 55 1032 55 1035.5 70.5 c 128,-1,131
 1039 86 1039 86 1038 105 c 1,132,133
 1000 54 1000 54 953 33 c 128,-1,134
 906 12 906 12 863 18.5 c 128,-1,135
 820 25 820 25 785 42 c 128,-1,136
 750 59 750 59 724 83 c 0,137,138
 710 95 710 95 684 190 c 1,139,140
 668 146 668 146 639 114 c 1,141,-1
 584 58 l 1,116,117
EndSplineSet
EndChar

StartChar: u11722_u11724
Encoding: 1114117 -1 5
Width: 150
Flags: W
LayerCount: 2
Fore
SplineSet
-60 735 m 0,0,1
 -19 735 -19 735 6 780 c 128,-1,2
 31 825 31 825 31 896 c 0,3,4
 31 940 31 940 21 983.5 c 128,-1,5
 11 1027 11 1027 -12 1059.5 c 128,-1,6
 -35 1092 -35 1092 -67 1092 c 0,7,8
 -91 1092 -91 1092 -108.5 1074.5 c 128,-1,9
 -126 1057 -126 1057 -134.5 1028 c 128,-1,10
 -143 999 -143 999 -147 969.5 c 128,-1,11
 -151 940 -151 940 -151 910 c 0,12,13
 -151 888 -151 888 -146.5 861 c 128,-1,14
 -142 834 -142 834 -133 804 c 128,-1,15
 -124 774 -124 774 -105 754.5 c 128,-1,16
 -86 735 -86 735 -60 735 c 0,0,1
-124 -63 m 0,17,18
 -124 -43 -124 -43 -123.5 -14.5 c 128,-1,19
 -123 14 -123 14 -123 42 c 0,20,21
 -123 116 -123 116 -99 251.5 c 128,-1,22
 -75 387 -75 387 -53.5 489 c 128,-1,23
 -32 591 -32 591 -35 600 c 1,24,25
 -61 620 -61 620 -91 654 c 2,26,-1
 -130 700 l 2,27,28
 -168 746 -168 746 -196 799.5 c 128,-1,29
 -224 853 -224 853 -224 880 c 0,30,31
 -224 1013 -224 1013 -168 1100 c 1,32,33
 -147 1135 -147 1135 -103 1157.5 c 128,-1,34
 -59 1180 -59 1180 -28 1180 c 0,35,36
 23 1180 23 1180 60.5 1166.5 c 128,-1,37
 98 1153 98 1153 121 1130.5 c 128,-1,38
 144 1108 144 1108 157.5 1072.5 c 128,-1,39
 171 1037 171 1037 175.5 999 c 128,-1,40
 180 961 180 961 180 910 c 0,41,42
 180 878 180 878 155 819 c 128,-1,43
 130 760 130 760 101.5 706 c 128,-1,44
 73 652 73 652 70 640 c 0,45,46
 48 566 48 566 32 467.5 c 128,-1,47
 16 369 16 369 10.5 312.5 c 128,-1,48
 5 256 5 256 -3 142 c 128,-1,49
 -11 28 -11 28 -12 17 c 2,50,-1
 -15 -26 l 2,51,52
 -17 -49 -17 -49 -17 -66 c 0,53,54
 -17 -112 -17 -112 -5.5 -144 c 128,-1,55
 6 -176 6 -176 22 -193 c 128,-1,56
 38 -210 38 -210 69.5 -218.5 c 128,-1,57
 101 -227 101 -227 126.5 -229 c 128,-1,58
 152 -231 152 -231 197 -231 c 2,59,-1
 223 -231 l 2,60,61
 240 -231 240 -231 253.5 -230.5 c 128,-1,62
 267 -230 267 -230 276 -230 c 0,63,64
 294 -230 294 -230 305 -242 c 128,-1,65
 316 -254 316 -254 316 -273 c 0,66,67
 316 -295 316 -295 300 -308 c 128,-1,68
 284 -321 284 -321 230 -332 c 0,69,70
 191 -339 191 -339 145 -339 c 0,71,72
 40 -339 40 -339 -25 -294 c 0,73,74
 -89 -250 -89 -250 -106.5 -208 c 128,-1,75
 -124 -166 -124 -166 -124 -63 c 0,17,18
EndSplineSet
EndChar

StartChar: u11727_u1172A
Encoding: 1114118 -1 6
Width: 24
Flags: W
LayerCount: 2
Fore
SplineSet
30 1139 m 0,0,1
 35 1139 35 1139 43 1137.5 c 128,-1,2
 51 1136 51 1136 53 1136 c 0,3,4
 81 1130 81 1130 81 1079 c 0,5,6
 81 1043 81 1043 70.5 996.5 c 128,-1,7
 60 950 60 950 39 901.5 c 128,-1,8
 18 853 18 853 -20 820 c 128,-1,9
 -58 787 -58 787 -106 787 c 1,10,11
 -144 791 -144 791 -187 834 c 1,12,13
 -213 945 -213 945 -233 1000 c 256,14,15
 -253 1055 -253 1055 -287 1107 c 1,16,17
 -272 1111 -272 1111 -248 1114 c 2,18,-1
 -217 1119 l 1,19,-1
 -203 1119 l 2,20,21
 -179 1119 -179 1119 -173.5 1112.5 c 128,-1,22
 -168 1106 -168 1106 -167 1091 c 1,23,-1
 -167 1086 l 1,24,25
 -114 1098 -114 1098 -75.5 1109.5 c 128,-1,26
 -37 1121 -37 1121 -23 1126.5 c 128,-1,27
 -9 1132 -9 1132 4 1135.5 c 128,-1,28
 17 1139 17 1139 30 1139 c 0,0,1
21 1037 m 0,29,30
 21 1051 21 1051 16 1054.5 c 128,-1,31
 11 1058 11 1058 -7 1058 c 0,32,33
 -84 1058 -84 1058 -164 1026 c 1,34,35
 -164 989 -164 989 -156.5 930.5 c 128,-1,36
 -149 872 -149 872 -143 866 c 0,37,38
 -131 851 -131 851 -119 844.5 c 128,-1,39
 -107 838 -107 838 -98.5 837 c 128,-1,40
 -90 836 -90 836 -79.5 842.5 c 128,-1,41
 -69 849 -69 849 -64.5 853 c 128,-1,42
 -60 857 -60 857 -51.5 867 c 128,-1,43
 -43 877 -43 877 -42 878 c 0,44,45
 -19 900 -19 900 1 953.5 c 128,-1,46
 21 1007 21 1007 21 1037 c 0,29,30
-657 755 m 0,47,48
 -716 755 -716 755 -798.5 780 c 128,-1,49
 -881 805 -881 805 -881 826 c 0,50,51
 -881 830 -881 830 -877 830.5 c 128,-1,52
 -873 831 -873 831 -866 828.5 c 128,-1,53
 -859 826 -859 826 -850 822.5 c 128,-1,54
 -841 819 -841 819 -829.5 816.5 c 128,-1,55
 -818 814 -818 814 -808 814 c 0,56,57
 -778 814 -778 814 -678 870 c 128,-1,58
 -578 926 -578 926 -539 1093 c 1,59,-1
 -510 1225 l 1,60,61
 -485 1310 -485 1310 -434 1385 c 128,-1,62
 -383 1460 -383 1460 -332 1500 c 1,63,64
 -275 1541 -275 1541 -134 1541 c 0,65,66
 -66 1541 -66 1541 -17 1533 c 256,67,68
 32 1525 32 1525 67 1516 c 128,-1,69
 102 1507 102 1507 126 1505 c 0,70,71
 154 1503 154 1503 154 1487 c 0,72,73
 154 1481 154 1481 114 1481 c 0,74,75
 64 1481 64 1481 -29 1484 c 1,76,77
 -202 1484 -202 1484 -242 1444 c 1,78,79
 -311 1379 -311 1379 -335 1306 c 2,80,-1
 -383 1158 l 1,81,82
 -395 1127 -395 1127 -410 1076 c 1,83,84
 -424 1024 -424 1024 -434 984 c 1,85,86
 -445 945 -445 945 -464 899.5 c 128,-1,87
 -483 854 -483 854 -506 824.5 c 128,-1,88
 -529 795 -529 795 -568 775 c 128,-1,89
 -607 755 -607 755 -657 755 c 0,47,48
EndSplineSet
EndChar

StartChar: u11714.alt
Encoding: 1114119 -1 7
Width: 526
Flags: W
LayerCount: 2
Fore
SplineSet
134 356 m 1,0,1
 89 356 89 356 59.5 392.5 c 128,-1,2
 30 429 30 429 30 472 c 0,3,4
 30 513 30 513 71 582 c 128,-1,5
 112 651 112 651 160 670 c 1,6,7
 205 685 205 685 237 685 c 0,8,9
 280 685 280 685 316 665 c 2,10,-1
 347 647 l 1,11,12
 394 621 394 621 437 556 c 128,-1,13
 480 491 480 491 480 388 c 0,14,15
 480 342 480 342 439 242 c 1,16,-1
 396 154 l 1,17,18
 360 104 360 104 276.5 45 c 128,-1,19
 193 -14 193 -14 119 -14 c 0,20,21
 62 -14 62 -14 46 23 c 1,22,-1
 33 89 l 1,23,-1
 88 118 l 1,24,25
 124 133 124 133 153 133 c 0,26,27
 193 133 193 133 244.5 174.5 c 128,-1,28
 296 216 296 216 333 277.5 c 128,-1,29
 370 339 370 339 370 389 c 0,30,31
 370 426 370 426 357.5 456.5 c 128,-1,32
 345 487 345 487 321 509 c 128,-1,33
 297 531 297 531 283 541 c 128,-1,34
 269 551 269 551 245 565 c 1,35,-1
 212 563 l 1,36,-1
 193 562 l 1,37,-1
 212 510 l 1,38,-1
 230 453 l 1,39,40
 207 380 207 380 155 359 c 1,41,-1
 134 356 l 1,0,1
EndSplineSet
EndChar

StartChar: u11704_u1170A
Encoding: 1114120 -1 8
Width: 1732
Flags: W
LayerCount: 2
Fore
SplineSet
488 189 m 0,0,1
 485 186 485 186 464 160 c 128,-1,2
 443 134 443 134 433 125 c 128,-1,3
 423 116 423 116 401 104.5 c 128,-1,4
 379 93 379 93 356 93 c 0,5,6
 306 93 306 93 257 147 c 0,7,8
 248 157 248 157 228.5 261.5 c 128,-1,9
 209 366 209 366 200 435 c 1,10,11
 294 513 294 513 390 540 c 128,-1,12
 486 567 486 567 534 525 c 1,13,14
 577 483 577 483 563 385.5 c 128,-1,15
 549 288 549 288 488 189 c 0,0,1
636 120 m 1,16,17
 754 12 754 12 837 12 c 0,18,19
 912 12 912 12 961.5 27.5 c 128,-1,20
 1011 43 1011 43 1047 84 c 1,21,-1
 1104 142 l 1,22,23
 1133 174 1133 174 1149 218 c 1,24,25
 1175 123 1175 123 1189 111 c 0,26,27
 1237 67 1237 67 1272 50 c 128,-1,28
 1307 33 1307 33 1356 33 c 0,29,30
 1415 33 1415 33 1460 61 c 0,31,32
 1525 102 1525 102 1571.5 176.5 c 128,-1,33
 1618 251 1618 251 1639.5 335 c 128,-1,34
 1661 419 1661 419 1670 485.5 c 128,-1,35
 1679 552 1679 552 1679 608 c 0,36,37
 1679 724 1679 724 1620 730 c 1,38,39
 1568 730 1568 730 1524 709 c 1,40,-1
 1501 699 l 2,41,42
 1478 689 1478 689 1476 673 c 1,43,44
 1519 644 1519 644 1564 589 c 1,45,46
 1582 579 1582 579 1582 527 c 0,47,48
 1582 458 1582 458 1553.5 357 c 128,-1,49
 1525 256 1525 256 1482 208 c 0,50,51
 1479 205 1479 205 1458 179 c 128,-1,52
 1437 153 1437 153 1427 144 c 128,-1,53
 1417 135 1417 135 1395 123.5 c 128,-1,54
 1373 112 1373 112 1350 112 c 0,55,56
 1300 112 1300 112 1251 166 c 0,57,58
 1238 180 1238 180 1202 385.5 c 128,-1,59
 1166 591 1166 591 1166 652 c 1,60,61
 1152 676 1152 676 1117 676 c 0,62,63
 1108 676 1108 676 1095 674 c 2,64,-1
 1063 669 l 2,65,66
 989 657 989 657 944 639 c 1,67,68
 946 636 946 636 964 616.5 c 128,-1,69
 982 597 982 597 998.5 574.5 c 128,-1,70
 1015 552 1015 552 1034 520 c 128,-1,71
 1053 488 1053 488 1064.5 446 c 128,-1,72
 1076 404 1076 404 1076 360 c 0,73,74
 1076 255 1076 255 1000.5 173 c 128,-1,75
 925 91 925 91 831 91 c 0,76,77
 755 91 755 91 690 180 c 1,78,79
 669 205 669 205 664.5 253.5 c 128,-1,80
 660 302 660 302 666 354 c 128,-1,81
 672 406 672 406 674 467.5 c 128,-1,82
 676 529 676 529 669 579 c 1,83,84
 656 601 656 601 643 629 c 128,-1,85
 630 657 630 657 623.5 669.5 c 128,-1,86
 617 682 617 682 603.5 691.5 c 128,-1,87
 590 701 590 701 570 702 c 0,88,89
 476 704 476 704 272 550 c 0,90,91
 213 505 213 505 188 496 c 1,92,93
 172 565 172 565 172 633 c 1,94,95
 158 657 158 657 123 657 c 0,96,97
 114 657 114 657 101 655 c 2,98,-1
 69 650 l 2,99,100
 -5 638 -5 638 -50 620 c 1,101,102
 13 538 13 538 59 443 c 128,-1,103
 105 348 105 348 124.5 281 c 128,-1,104
 144 214 144 214 162 159.5 c 128,-1,105
 180 105 180 105 195 92 c 0,106,107
 243 48 243 48 278 31 c 128,-1,108
 313 14 313 14 362 14 c 0,109,110
 473 14 473 14 561 114 c 1,111,112
 562 112 562 112 635 120 c 1,113,-1
 636 120 l 1,16,17
EndSplineSet
EndChar

StartChar: u11701_1171E
Encoding: 1114121 -1 9
Width: 977
Flags: W
LayerCount: 2
Fore
SplineSet
525 197 m 1,0,1
 525 143 525 143 557 96.5 c 128,-1,2
 589 50 589 50 635 50 c 0,3,4
 754 50 754 50 850 166 c 0,5,6
 934 268 934 268 934 352 c 0,7,8
 934 469 934 469 859 547 c 128,-1,9
 784 625 784 625 668 625 c 0,10,11
 508 625 508 625 350 406 c 2,12,-1
 295 330 l 1,13,14
 285 331 285 331 280 333 c 128,-1,15
 275 335 275 335 272.5 341.5 c 128,-1,16
 270 348 270 348 270 353 c 128,-1,17
 270 358 270 358 270 374 c 2,18,-1
 270 400 l 1,19,-1
 268 454 l 1,20,-1
 265 492 l 1,21,-1
 259 536 l 1,22,23
 247 596 247 596 197.5 648 c 128,-1,24
 148 700 148 700 91 700 c 0,25,26
 75 700 75 700 49 676 c 1,27,28
 15 648 15 648 15 607 c 0,29,30
 15 544 15 544 92 544 c 0,31,32
 171 544 171 544 171 384 c 0,33,34
 171 301 171 301 163 221 c 1,35,-1
 145 75 l 1,36,-1
 152 32 l 1,37,38
 162 8 162 8 179 -17 c 1,39,40
 221 1 221 1 251 74 c 2,41,-1
 291 171 l 1,42,-1
 369 295 l 1,43,44
 511 514 511 514 676 514 c 0,45,46
 744 514 744 514 797.5 462.5 c 128,-1,47
 851 411 851 411 851 345 c 1,48,-1
 850 332 l 1,49,50
 850 299 850 299 815 255 c 0,51,52
 793 227 793 227 747 208.5 c 128,-1,53
 701 190 701 190 664 190 c 1,54,-1
 613 256 l 1,55,56
 613 278 613 278 607.5 377.5 c 128,-1,57
 602 477 602 477 598 500 c 0,58,59
 595 522 595 522 594.5 547 c 128,-1,60
 594 572 594 572 596 589 c 128,-1,61
 598 606 598 606 600 620 c 128,-1,62
 602 634 602 634 602 636 c 0,63,64
 602 666 602 666 640.5 696 c 128,-1,65
 679 726 679 726 728.5 742 c 128,-1,66
 778 758 778 758 815 758 c 0,67,68
 851 758 851 758 922 728 c 1,69,-1
 979 698 l 1,70,71
 998 701 998 701 1011 710 c 0,72,73
 1036 729 1036 729 1036 756 c 0,74,75
 1036 791 1036 791 1000.5 819 c 128,-1,76
 965 847 965 847 920 859.5 c 128,-1,77
 875 872 875 872 834 872 c 0,78,79
 706 872 706 872 609 790 c 0,80,81
 526 719 526 719 526 646 c 0,82,83
 526 635 526 635 523 561.5 c 128,-1,84
 520 488 520 488 517 415.5 c 128,-1,85
 514 343 514 343 515.5 276 c 128,-1,86
 517 209 517 209 525 197 c 1,0,1
EndSplineSet
EndChar

StartChar: u11734.alt
Encoding: 1114122 -1 10
Width: 1225
Flags: W
LayerCount: 2
Fore
SplineSet
1093 452 m 0,0,1
 1093 479 1093 479 1087 492.5 c 128,-1,2
 1081 506 1081 506 1074 508.5 c 128,-1,3
 1067 511 1067 511 1054 511 c 0,4,5
 1005 511 1005 511 893 472 c 128,-1,6
 781 433 781 433 696 393 c 1,7,8
 709 315 709 315 731 220 c 128,-1,9
 753 125 753 125 763 114 c 1,10,11
 814 66 814 66 860 66 c 0,12,13
 887 66 887 66 909.5 77.5 c 128,-1,14
 932 89 932 89 945 102 c 128,-1,15
 958 115 958 115 992 152 c 0,16,17
 1035 197 1035 197 1064 292.5 c 128,-1,18
 1093 388 1093 388 1093 452 c 0,0,1
157 417 m 1,19,20
 164 352 164 352 181.5 246.5 c 128,-1,21
 199 141 199 141 208 129 c 0,22,23
 252 75 252 75 297 75 c 0,24,25
 341 75 341 75 378 120 c 1,26,-1
 416 171 l 1,27,28
 500 260 500 260 533.5 312 c 128,-1,29
 567 364 567 364 567 411 c 0,30,31
 567 436 567 436 534.5 497.5 c 128,-1,32
 502 559 502 559 490 567 c 0,33,34
 484 570 484 570 474 570 c 0,35,36
 406 570 406 570 157 417 c 1,19,20
1132 648 m 0,37,38
 1194 648 1194 648 1194 528 c 0,39,40
 1194 395 1194 395 1157.5 274.5 c 128,-1,41
 1121 154 1121 154 1044.5 72 c 128,-1,42
 968 -10 968 -10 867 -10 c 0,43,44
 818 -10 818 -10 783 6 c 128,-1,45
 748 22 748 22 696 61 c 0,46,47
 669 82 669 82 651 164 c 2,48,-1
 615 330 l 1,49,50
 603 309 603 309 596.5 293.5 c 128,-1,51
 590 278 590 278 585 268 c 128,-1,52
 580 258 580 258 567 240 c 0,53,54
 549 215 549 215 518 168 c 128,-1,55
 487 121 487 121 469.5 98.5 c 128,-1,56
 452 76 452 76 424.5 47.5 c 128,-1,57
 397 19 397 19 367.5 7.5 c 128,-1,58
 338 -4 338 -4 302 -4 c 0,59,60
 268 -4 268 -4 238 9 c 128,-1,61
 208 22 208 22 193 35 c 128,-1,62
 178 48 178 48 152 74 c 0,63,64
 139 87 139 87 123 141 c 128,-1,65
 107 195 107 195 89.5 261.5 c 128,-1,66
 72 328 72 328 30 423.5 c 128,-1,67
 -12 519 -12 519 -68 602 c 1,68,69
 -30 619 -30 619 40 632 c 2,70,-1
 67 637 l 2,71,72
 78 639 78 639 88 639 c 0,73,74
 119 639 119 639 132 615 c 1,75,-1
 132 594 l 2,76,77
 132 543 132 543 146 478 c 1,78,79
 167 486 167 486 216.5 533.5 c 128,-1,80
 266 581 266 581 327 633.5 c 128,-1,81
 388 686 388 686 437 705 c 0,82,83
 485 724 485 724 496 724 c 0,84,85
 504 724 504 724 518 720 c 2,86,-1
 556 710 l 2,87,88
 581 703 581 703 601 665 c 1,89,-1
 641 559 l 1,90,91
 657 526 657 526 675 462 c 1,92,93
 703 472 703 472 766 504 c 1,94,-1
 892 571 l 1,95,96
 1000 626 1000 626 1032 638 c 128,-1,97
 1064 650 1064 650 1101 650 c 2,98,-1
 1121 650 l 1,99,100
 1129 648 1129 648 1132 648 c 0,37,38
EndSplineSet
EndChar

StartChar: u11733.alt
Encoding: 1114123 -1 11
Width: 992
Flags: W
LayerCount: 2
Fore
SplineSet
384 59 m 0,0,1
 384 32 384 32 364 8 c 128,-1,2
 344 -16 344 -16 315 -16 c 0,3,4
 302 -16 302 -16 293 -12 c 128,-1,5
 284 -8 284 -8 275 5.5 c 128,-1,6
 266 19 266 19 262 27.5 c 128,-1,7
 258 36 258 36 247 61 c 1,8,9
 242 88 242 88 209 189 c 2,10,-1
 143 389 l 2,11,12
 127 439 127 439 115 482 c 128,-1,13
 103 525 103 525 97.5 544.5 c 128,-1,14
 92 564 92 564 88.5 579.5 c 128,-1,15
 85 595 85 595 79.5 602 c 128,-1,16
 74 609 74 609 69 613.5 c 128,-1,17
 64 618 64 618 48 628 c 2,18,-1
 -25 675 l 1,19,20
 -26 681 -26 681 -15 687 c 128,-1,21
 -4 693 -4 693 15 697 c 128,-1,22
 34 701 34 701 56 704 c 128,-1,23
 78 707 78 707 98.5 708.5 c 128,-1,24
 119 710 119 710 133 710 c 2,25,-1
 153 710 l 2,26,27
 154 710 154 710 170 708 c 128,-1,28
 186 706 186 706 203.5 701 c 128,-1,29
 221 696 221 696 239 686 c 1,30,-1
 287 452 l 1,31,-1
 343 228 l 1,32,33
 350 237 350 237 438 340 c 2,34,-1
 581 508 l 1,35,36
 654 596 654 596 657 605 c 1,37,38
 697 621 697 621 805 631 c 1,39,40
 824 619 824 619 831.5 614 c 128,-1,41
 839 609 839 609 851 597.5 c 128,-1,42
 863 586 863 586 875 569 c 1,43,44
 883 517 883 517 899 401 c 2,45,-1
 926 200 l 2,46,47
 931 162 931 162 922 102.5 c 128,-1,48
 913 43 913 43 915 36 c 1,49,50
 920 31 920 31 923.5 -35 c 128,-1,51
 927 -101 927 -101 921 -108 c 0,52,53
 918 -111 918 -111 927.5 -198.5 c 128,-1,54
 937 -286 937 -286 927 -288 c 0,55,56
 921 -290 921 -290 951 -299 c 1,57,58
 978 -306 978 -306 1056 -323 c 1,59,-1
 1110 -336 l 1,60,61
 1101 -336 1101 -336 1130 -392 c 0,62,63
 1140 -411 1140 -411 1137 -411 c 1,64,65
 1133 -409 1133 -409 1084 -408 c 128,-1,66
 1035 -407 1035 -407 987.5 -404.5 c 128,-1,67
 940 -402 940 -402 939 -399 c 0,68,69
 937 -395 937 -395 888.5 -387.5 c 128,-1,70
 840 -380 840 -380 840 -378 c 0,71,72
 840 -377 840 -377 831.5 -335.5 c 128,-1,73
 823 -294 823 -294 813 -246 c 128,-1,74
 803 -198 803 -198 794.5 -156 c 128,-1,75
 786 -114 786 -114 786 -111 c 0,76,77
 786 -93 786 -93 788.5 14.5 c 128,-1,78
 791 122 791 122 792 146 c 1,79,80
 797 204 797 204 797 241 c 0,81,82
 797 421 797 421 709 547 c 1,83,-1
 616 472 l 1,84,85
 552 398 552 398 469.5 285.5 c 128,-1,86
 387 173 387 173 368 139 c 1,87,88
 372 131 372 131 378 105.5 c 128,-1,89
 384 80 384 80 384 59 c 0,0,1
EndSplineSet
EndChar

StartChar: u11719.alt
Encoding: 1114124 -1 12
Width: 1271
Flags: W
LayerCount: 2
Fore
SplineSet
978 525 m 0,0,1
 978 557 978 557 1007.5 599 c 128,-1,2
 1037 641 1037 641 1066 641 c 0,3,4
 1128 641 1128 641 1187 567 c 0,5,6
 1243 497 1243 497 1243 439 c 0,7,8
 1243 354 1243 354 1215 255 c 128,-1,9
 1187 156 1187 156 1152 103 c 0,10,11
 1118 52 1118 52 1079 23 c 1,12,13
 1041 -3 1041 -3 996 -3 c 0,14,15
 953 -3 953 -3 890 28 c 1,16,-1
 826 61 l 1,17,18
 843 39 843 39 857 -7 c 128,-1,19
 871 -53 871 -53 871 -94 c 0,20,21
 871 -170 871 -170 861.5 -210.5 c 128,-1,22
 852 -251 852 -251 822 -318 c 0,23,24
 771 -436 771 -436 704 -436 c 0,25,26
 616 -436 616 -436 586 -366 c 1,27,28
 574 -335 574 -335 551 -179 c 1,29,-1
 551 -143 l 2,30,31
 551 -126 551 -126 553 -114 c 1,32,33
 553 -106 553 -106 560 -73.5 c 128,-1,34
 567 -41 567 -41 574 -11.5 c 128,-1,35
 581 18 581 18 581 19 c 0,36,37
 581 28 581 28 567 35 c 1,38,39
 555 39 555 39 474 21 c 2,40,-1
 393 2 l 1,41,42
 332 2 332 2 279.5 46 c 128,-1,43
 227 90 227 90 227 146 c 0,44,45
 227 181 227 181 242 288 c 0,46,47
 246 322 246 322 258 396 c 1,48,49
 258 486 258 486 162 486 c 0,50,51
 67 486 67 486 67 550 c 0,52,53
 67 586 67 586 109.5 612 c 128,-1,54
 152 638 152 638 192 638 c 0,55,56
 273 638 273 638 324 599 c 128,-1,57
 375 560 375 560 375 481 c 1,58,-1
 373 425 l 1,59,-1
 371 379 l 1,60,61
 371 334 371 334 366 307 c 1,62,-1
 362 237 l 1,63,-1
 365 173 l 1,64,65
 368 143 368 143 376 131 c 1,66,67
 382 119 382 119 405 116 c 1,68,-1
 460 113 l 1,69,70
 505 113 505 113 573 193 c 0,71,72
 606 233 606 233 629 274 c 1,73,74
 648 314 648 314 648 348 c 1,75,-1
 661 506 l 1,76,77
 675 616 675 616 716 616 c 0,78,79
 779 616 779 616 779 428 c 2,80,-1
 779 402 l 2,81,82
 779 355 779 355 775 323 c 1,83,84
 775 288 775 288 847 207 c 1,85,86
 926 122 926 122 982 122 c 0,87,88
 1016 122 1016 122 1062 183 c 1,89,90
 1113 255 1113 255 1113 344 c 0,91,92
 1113 407 1113 407 1045.5 450.5 c 128,-1,93
 978 494 978 494 978 525 c 0,0,1
649 -194 m 2,94,95
 649 -225 649 -225 660.5 -248 c 128,-1,96
 672 -271 672 -271 688 -271 c 0,97,98
 713 -271 713 -271 738.5 -243 c 128,-1,99
 764 -215 764 -215 772 -188 c 0,100,101
 783 -152 783 -152 783 -82 c 1,102,-1
 780 -20 l 1,103,104
 776 34 776 34 752 75.5 c 128,-1,105
 728 117 728 117 693 129 c 1,106,-1
 664 69 l 1,107,-1
 657 7 l 1,108,-1
 651 -58 l 1,109,110
 650 -121 650 -121 649 -173 c 1,111,-1
 649 -194 l 2,94,95
EndSplineSet
EndChar

StartChar: u11700
Encoding: 71424 71424 13
Width: 995
Flags: W
LayerCount: 2
Fore
SplineSet
508 415 m 1,0,1
 456 445 456 445 407 489 c 128,-1,2
 358 533 358 533 330 567 c 128,-1,3
 302 601 302 601 277.5 625.5 c 128,-1,4
 253 650 253 650 241 650 c 0,5,6
 232 650 232 650 223 640 c 1,7,8
 231 582 231 582 244.5 337.5 c 128,-1,9
 258 93 258 93 258 29 c 0,10,11
 258 10 258 10 250 10 c 0,12,13
 248 10 248 10 239.5 14 c 128,-1,14
 231 18 231 18 217 29.5 c 128,-1,15
 203 41 203 41 188.5 57.5 c 128,-1,16
 174 74 174 74 159 102.5 c 128,-1,17
 144 131 144 131 134 165 c 1,18,19
 88 349 88 349 40 589 c 1,20,21
 37 598 37 598 -4 619 c 0,22,23
 -41 637 -41 637 -41 648 c 128,-1,24
 -41 659 -41 659 -12 669 c 0,25,26
 14 678 14 678 45.5 700.5 c 128,-1,27
 77 723 77 723 106 723 c 2,28,-1
 117 723 l 2,29,30
 196 723 196 723 256.5 697.5 c 128,-1,31
 317 672 317 672 348.5 640.5 c 128,-1,32
 380 609 380 609 425.5 560.5 c 128,-1,33
 471 512 471 512 508 485 c 1,34,35
 574 519 574 519 654 569 c 128,-1,36
 734 619 734 619 779.5 644.5 c 128,-1,37
 825 670 825 670 848 670 c 0,38,39
 884 670 884 670 907 665 c 128,-1,40
 930 660 930 660 941.5 647.5 c 128,-1,41
 953 635 953 635 957.5 625.5 c 128,-1,42
 962 616 962 616 966 593.5 c 128,-1,43
 970 571 970 571 973 561 c 1,44,45
 971 549 971 549 971 412 c 0,46,47
 971 251 971 251 973 55 c 1,48,49
 954 11 954 11 915 11 c 0,50,51
 906 11 906 11 895.5 17 c 128,-1,52
 885 23 885 23 881 27 c 2,53,-1
 863 45 l 1,54,55
 863 69 863 69 853 184 c 2,56,-1
 834 402 l 2,57,58
 824 506 824 506 823 506 c 0,59,60
 820 515 820 515 820 526 c 0,61,62
 820 536 820 536 823 566 c 1,63,64
 823 595 823 595 798 595 c 128,-1,65
 773 595 773 595 670 530 c 128,-1,66
 567 465 567 465 508 415 c 1,0,1
EndSplineSet
EndChar

StartChar: u11701
Encoding: 71425 71425 14
Width: 969
Flags: W
LayerCount: 2
Fore
SplineSet
269 79 m 0,0,1
 269 57 269 57 251 31 c 128,-1,2
 233 5 233 5 202 5 c 0,3,4
 188 5 188 5 176.5 11 c 128,-1,5
 165 17 165 17 156.5 32 c 128,-1,6
 148 47 148 47 144.5 54.5 c 128,-1,7
 141 62 141 62 134 81 c 1,8,9
 128 112 128 112 104 209 c 2,10,-1
 54 405 l 2,11,12
 41 456 41 456 25 525 c 0,13,14
 8 598 8 598 2 611.5 c 128,-1,15
 -4 625 -4 625 -22 637 c 0,16,17
 -26 640 -26 640 -28 641 c 2,18,-1
 -103 689 l 1,19,20
 -105 696 -105 696 -92 703 c 128,-1,21
 -79 710 -79 710 -59.5 714 c 128,-1,22
 -40 718 -40 718 -19 720.5 c 128,-1,23
 2 723 2 723 18 723 c 0,24,25
 73 723 73 723 125 700 c 1,26,-1
 173 468 l 1,27,-1
 227 247 l 1,28,29
 249 268 249 268 318 361 c 2,30,-1
 433 515 l 1,31,32
 489 592 489 592 512 614 c 1,33,34
 579 672 579 672 692 673 c 0,35,36
 718 673 718 673 736.5 671 c 128,-1,37
 755 669 755 669 784 658 c 128,-1,38
 813 647 813 647 837 627.5 c 128,-1,39
 861 608 861 608 890 570.5 c 128,-1,40
 919 533 919 533 945 481 c 0,41,42
 983 405 983 405 983 342 c 0,43,44
 983 281 983 281 947.5 191.5 c 128,-1,45
 912 102 912 102 863 47 c 0,46,47
 832 12 832 12 816.5 -3 c 128,-1,48
 801 -18 801 -18 775.5 -31 c 128,-1,49
 750 -44 750 -44 721 -44 c 2,50,-1
 710 -44 l 1,51,52
 702 -42 702 -42 698 -42 c 0,53,54
 667 -38 667 -38 644.5 -29 c 128,-1,55
 622 -20 622 -20 598.5 1 c 128,-1,56
 575 22 575 22 560 64 c 128,-1,57
 545 106 545 106 538 168 c 1,58,59
 538 168 538 168 538 187 c 0,60,61
 538 225 538 225 561 244 c 1,62,-1
 631 287 l 2,63,64
 649 298 649 298 663 298 c 0,65,66
 678 298 678 298 692 283 c 2,67,-1
 708 266 l 2,68,69
 716 257 716 257 716 249 c 0,70,71
 716 238 716 238 685 222.5 c 128,-1,72
 654 207 654 207 623 186.5 c 128,-1,73
 592 166 592 166 592 144 c 0,74,75
 592 92 592 92 629 54.5 c 128,-1,76
 666 17 666 17 714 17 c 0,77,78
 753 17 753 17 793 85 c 128,-1,79
 833 153 833 153 855.5 233.5 c 128,-1,80
 878 314 878 314 878 364 c 0,81,82
 878 442 878 442 823.5 511 c 128,-1,83
 769 580 769 580 703 580 c 0,84,85
 656 580 656 580 606 563 c 128,-1,86
 556 546 556 546 527 525 c 1,87,88
 489 495 489 495 443 442 c 128,-1,89
 397 389 397 389 361 334 c 1,90,-1
 294 216 l 2,91,92
 268 172 268 172 253 159 c 1,93,94
 269 119 269 119 269 79 c 0,0,1
EndSplineSet
EndChar

StartChar: u11702
Encoding: 71426 71426 15
Width: 684
Flags: W
LayerCount: 2
Fore
SplineSet
572 765 m 0,0,1
 592 765 592 765 608.5 752 c 128,-1,2
 625 739 625 739 625 722 c 0,3,4
 625 702 625 702 602 672 c 2,5,-1
 575 638 l 1,6,7
 512 564 512 564 453.5 515 c 128,-1,8
 395 466 395 466 359.5 448.5 c 128,-1,9
 324 431 324 431 282 411 c 128,-1,10
 240 391 240 391 216 374 c 1,11,12
 216 367 216 367 217 338.5 c 128,-1,13
 218 310 218 310 219 295 c 128,-1,14
 220 280 220 280 222.5 250 c 128,-1,15
 225 220 225 220 229.5 202 c 128,-1,16
 234 184 234 184 241 158.5 c 128,-1,17
 248 133 248 133 259 117.5 c 128,-1,18
 270 102 270 102 284 86.5 c 128,-1,19
 298 71 298 71 318.5 64 c 128,-1,20
 339 57 339 57 363 57 c 0,21,22
 440 57 440 57 511.5 125 c 128,-1,23
 583 193 583 193 590 251 c 0,24,25
 593 278 593 278 597 288.5 c 128,-1,26
 601 299 601 299 614 299 c 0,27,28
 641 299 641 299 631 240 c 0,29,30
 617 162 617 162 562 96 c 0,31,32
 529 55 529 55 490 38 c 2,33,-1
 421 9 l 1,34,35
 373 -14 373 -14 334 -14 c 0,36,37
 289 -14 289 -14 257 0.5 c 128,-1,38
 225 15 225 15 204 40 c 128,-1,39
 183 65 183 65 165 117 c 128,-1,40
 147 169 147 169 134 224 c 128,-1,41
 121 279 121 279 101 374 c 2,42,43
 101 374 101 374 95 404 c 0,44,45
 89 430 89 430 84 455.5 c 128,-1,46
 79 481 79 481 76.5 495.5 c 128,-1,47
 74 510 74 510 70 525 c 128,-1,48
 66 540 66 540 65.5 546.5 c 128,-1,49
 65 553 65 553 61 561.5 c 128,-1,50
 57 570 57 570 56.5 572 c 128,-1,51
 56 574 56 574 50.5 579 c 128,-1,52
 45 584 45 584 43 585 c 128,-1,53
 41 586 41 586 32.5 590.5 c 128,-1,54
 24 595 24 595 18 598 c 0,55,56
 -6 611 -6 611 -15.5 619.5 c 128,-1,57
 -25 628 -25 628 -21 633.5 c 128,-1,58
 -17 639 -17 639 -8.5 642.5 c 128,-1,59
 0 646 0 646 15 651 c 128,-1,60
 30 656 30 656 38 662 c 0,61,62
 40 663 40 663 53.5 673 c 128,-1,63
 67 683 67 683 70 684.5 c 128,-1,64
 73 686 73 686 85 692.5 c 128,-1,65
 97 699 97 699 105 700.5 c 128,-1,66
 113 702 113 702 128.5 705 c 128,-1,67
 144 708 144 708 161 709 c 128,-1,68
 178 710 178 710 201 710 c 0,69,70
 231 710 231 710 241 703 c 1,71,72
 250 532 250 532 262 505 c 1,73,74
 267 506 267 506 288 502 c 128,-1,75
 309 498 309 498 317 498 c 0,76,77
 345 498 345 498 366 516 c 1,78,79
 417 556 417 556 455.5 595.5 c 128,-1,80
 494 635 494 635 512 664 c 128,-1,81
 530 693 530 693 540.5 716 c 128,-1,82
 551 739 551 739 555 751 c 128,-1,83
 559 763 559 763 560 764 c 0,84,85
 566 765 566 765 572 765 c 0,0,1
EndSplineSet
EndChar

StartChar: u11703
Encoding: 71427 71427 16
Width: 676
Flags: W
LayerCount: 2
Fore
SplineSet
699 560 m 0,0,1
 681 560 681 560 671 610 c 128,-1,2
 661 660 661 660 643 660 c 0,3,4
 577 660 577 660 333 341 c 2,5,-1
 233 210 l 1,6,7
 234 203 234 203 234 193 c 0,8,9
 234 180 234 180 229.5 170.5 c 128,-1,10
 225 161 225 161 220.5 156.5 c 128,-1,11
 216 152 216 152 216 151 c 0,12,13
 216 142 216 142 263 100 c 1,14,15
 263 119 263 119 311 167 c 128,-1,16
 359 215 359 215 403 215 c 0,17,18
 411 215 411 215 430.5 216 c 128,-1,19
 450 217 450 217 455 217 c 0,20,21
 490 217 490 217 510 198 c 128,-1,22
 530 179 530 179 538 120 c 0,23,24
 541 100 541 100 541 82 c 0,25,26
 541 0 541 0 508 -25 c 1,27,-1
 469 -52 l 1,28,29
 447 -65 447 -65 436 -65 c 0,30,31
 416 -65 416 -65 416 49 c 2,32,-1
 416 73 l 2,33,34
 416 85 416 85 417 96 c 1,35,36
 417 160 417 160 397 160 c 0,37,38
 380 160 380 160 332 96 c 0,39,40
 281 27 281 27 264 17 c 0,41,42
 255 12 255 12 249 13 c 0,43,44
 191 31 191 31 161 80 c 0,45,46
 124 142 124 142 77 361 c 0,47,48
 61 432 61 432 30 589 c 1,49,50
 27 598 27 598 -14 619 c 0,51,52
 -51 637 -51 637 -51 648 c 128,-1,53
 -51 659 -51 659 -22 669 c 0,54,55
 1 677 1 677 19 689 c 128,-1,56
 37 701 37 701 48 709 c 128,-1,57
 59 717 59 717 90 723.5 c 128,-1,58
 121 730 121 730 171 730 c 0,59,60
 201 730 201 730 211 723 c 1,61,62
 211 314 211 314 228 280 c 1,63,64
 229 283 229 283 271.5 341 c 128,-1,65
 314 399 314 399 380.5 483 c 128,-1,66
 447 567 447 567 491 614 c 0,67,68
 592 721 592 721 647 721 c 1,69,70
 667 722 667 722 678 722 c 0,71,72
 731 722 731 722 751 699 c 128,-1,73
 771 676 771 676 771 646 c 0,74,75
 771 611 771 611 751 585.5 c 128,-1,76
 731 560 731 560 699 560 c 0,0,1
EndSplineSet
EndChar

StartChar: u11704
Encoding: 71428 71428 17
Width: 1345
Flags: W
LayerCount: 2
Fore
SplineSet
588 521 m 0,0,1
 588 561 588 561 579.5 574.5 c 128,-1,2
 571 588 571 588 553 588 c 0,3,4
 499 588 499 588 337 507 c 1,5,-1
 200 435 l 1,6,7
 209 366 209 366 228.5 261.5 c 128,-1,8
 248 157 248 157 257 147 c 0,9,10
 306 93 306 93 356 93 c 0,11,12
 379 93 379 93 401 104.5 c 128,-1,13
 423 116 423 116 433 125 c 128,-1,14
 443 134 443 134 464 160 c 128,-1,15
 485 186 485 186 488 189 c 0,16,17
 528 234 528 234 558 337 c 128,-1,18
 588 440 588 440 588 521 c 0,0,1
1039 696 m 0,19,20
 1048 696 1048 696 1058 695.5 c 128,-1,21
 1068 695 1068 695 1075 695 c 0,22,23
 1106 695 1106 695 1118 671 c 1,24,25
 1128 638 1128 638 1135 620 c 1,26,27
 1141 589 1141 589 1168 501 c 2,28,-1
 1221 324 l 2,29,30
 1236 273 1236 273 1246.5 233 c 128,-1,31
 1257 193 1257 193 1261.5 174.5 c 128,-1,32
 1266 156 1266 156 1269 143.5 c 128,-1,33
 1272 131 1272 131 1274 125 c 128,-1,34
 1276 119 1276 119 1278 115 c 0,35,36
 1282 110 1282 110 1288 100 c 2,37,-1
 1320 50 l 1,38,39
 1323 36 1323 36 1294 21.5 c 128,-1,40
 1265 7 1265 7 1228 7 c 0,41,42
 1184 7 1184 7 1136 28 c 1,43,-1
 1026 576 l 1,44,45
 1014 562 1014 562 921 415 c 2,46,-1
 758 155 l 1,47,48
 672 15 672 15 670 10 c 1,49,50
 630 -6 630 -6 592 -6 c 1,51,52
 584 -3 584 -3 564 89 c 1,53,54
 555 102 555 102 547 116 c 1,55,56
 518 83 518 83 497 64.5 c 128,-1,57
 476 46 476 46 440 30 c 128,-1,58
 404 14 404 14 362 14 c 0,59,60
 313 14 313 14 278 31 c 128,-1,61
 243 48 243 48 195 92 c 0,62,63
 180 105 180 105 162 159.5 c 128,-1,64
 144 214 144 214 124.5 281 c 128,-1,65
 105 348 105 348 59 443 c 128,-1,66
 13 538 13 538 -50 620 c 1,67,68
 -5 638 -5 638 69 650 c 2,69,-1
 101 655 l 2,70,71
 114 657 114 657 123 657 c 0,72,73
 158 657 158 657 172 633 c 1,74,75
 172 565 172 565 188 496 c 1,76,77
 213 505 213 505 272 550 c 2,78,-1
 391 640 l 2,79,80
 452 685 452 685 491.5 707 c 128,-1,81
 531 729 531 729 548 732.5 c 128,-1,82
 565 736 565 736 590 736 c 0,83,84
 601 736 601 736 610 735.5 c 128,-1,85
 619 735 619 735 625 735 c 0,86,87
 693 729 693 729 693 586 c 0,88,89
 693 532 693 532 688 496.5 c 128,-1,90
 683 461 683 461 683 419 c 0,91,92
 683 378 683 378 684 330 c 2,93,-1
 686 234 l 1,94,95
 686 158 686 158 679 133 c 1,96,-1
 744 230 l 1,97,-1
 963 581 l 1,98,99
 960 587 960 587 968 620.5 c 128,-1,100
 976 654 976 654 985 680 c 0,101,102
 990 696 990 696 1039 696 c 0,19,20
EndSplineSet
EndChar

StartChar: u11705
Encoding: 71429 71429 18
Width: 1000
Flags: W
LayerCount: 2
Fore
SplineSet
606 430 m 1,0,1
 605 398 605 398 599.5 379 c 128,-1,2
 594 360 594 360 587.5 349.5 c 128,-1,3
 581 339 581 339 572 301 c 128,-1,4
 563 263 563 263 556 200 c 2,5,-1
 542 79 l 1,6,-1
 511 21 l 1,7,8
 483 54 483 54 475 93 c 1,9,10
 466 156 466 156 446 197 c 1,11,-1
 408 150 l 1,12,13
 299 17 299 17 226 0 c 1,14,-1
 192 -3 l 1,15,16
 100 -3 100 -3 47 103 c 1,17,18
 37 128 37 128 27 173 c 1,19,-1
 22 209 l 1,20,-1
 20 252 l 1,21,22
 20 331 20 331 43 408 c 0,23,24
 43 409 43 409 52 432 c 0,25,26
 86 527 86 527 161.5 601 c 128,-1,27
 237 675 237 675 331 694 c 1,28,-1
 341 695 l 1,29,30
 354 695 354 695 363 691 c 1,31,32
 372 689 372 689 395 673 c 1,33,-1
 420 649 l 1,34,-1
 445 622 l 1,35,-1
 453 607 l 1,36,-1
 463 584 l 1,37,-1
 470 562 l 1,38,-1
 484 506 l 1,39,-1
 495 451 l 1,40,-1
 510 338 l 1,41,42
 513 338 513 338 527 362.5 c 128,-1,43
 541 387 541 387 562 409.5 c 128,-1,44
 583 432 583 432 606 430 c 1,0,1
391 476 m 1,45,46
 400 492 400 492 364 526.5 c 128,-1,47
 328 561 328 561 298 561 c 0,48,49
 252 561 252 561 189 489 c 1,50,51
 122 403 122 403 118 305 c 1,52,-1
 119 284 l 2,53,54
 120 267 120 267 123 257 c 1,55,-1
 135 194 l 1,56,57
 152 145 152 145 213 140 c 1,58,59
 246 140 246 140 288 176 c 1,60,-1
 331 222 l 1,61,62
 364 287 364 287 376 363 c 1,63,-1
 391 476 l 1,45,46
EndSplineSet
EndChar

StartChar: u11706
Encoding: 71430 71430 19
Width: 722
Flags: W
LayerCount: 2
Fore
SplineSet
698 618 m 0,0,1
 698 608 698 608 694 516.5 c 128,-1,2
 690 425 690 425 690 395 c 0,3,4
 690 337 690 337 658.5 223 c 128,-1,5
 627 109 627 109 582 56 c 0,6,7
 546 15 546 15 496.5 -0.5 c 128,-1,8
 447 -16 447 -16 372 -16 c 0,9,10
 323 -16 323 -16 288 1 c 128,-1,11
 253 18 253 18 205 62 c 0,12,13
 190 75 190 75 174.5 128.5 c 128,-1,14
 159 182 159 182 144 245.5 c 128,-1,15
 129 309 129 309 88.5 396.5 c 128,-1,16
 48 484 48 484 -11 555 c 0,17,18
 -39 589 -39 589 -40 590 c 1,19,20
 5 608 5 608 79 620 c 2,21,-1
 111 625 l 2,22,23
 124 627 124 627 133 627 c 0,24,25
 168 627 168 627 182 603 c 1,26,27
 182 546 182 546 218.5 338 c 128,-1,28
 255 130 255 130 267 117 c 0,29,30
 316 63 316 63 366 63 c 0,31,32
 460 63 460 63 535.5 145 c 128,-1,33
 611 227 611 227 611 332 c 0,34,35
 611 456 611 456 504 585 c 0,36,37
 476 619 476 619 475 620 c 1,38,39
 520 638 520 638 594 650 c 2,40,-1
 626 655 l 2,41,42
 639 657 639 657 648 657 c 0,43,44
 698 657 698 657 698 618 c 0,0,1
EndSplineSet
EndChar

StartChar: u11707
Encoding: 71431 71431 20
Width: 1248
Flags: W
LayerCount: 2
Fore
SplineSet
1117 512 m 0,0,1
 1117 552 1117 552 1108.5 565.5 c 128,-1,2
 1100 579 1100 579 1082 579 c 0,3,4
 1028 579 1028 579 866 498 c 1,5,-1
 729 426 l 1,6,7
 738 357 738 357 757.5 252.5 c 128,-1,8
 777 148 777 148 786 138 c 0,9,10
 835 84 835 84 885 84 c 0,11,12
 908 84 908 84 930 95.5 c 128,-1,13
 952 107 952 107 962 116 c 128,-1,14
 972 125 972 125 993 151 c 128,-1,15
 1014 177 1014 177 1017 180 c 0,16,17
 1057 225 1057 225 1087 328 c 128,-1,18
 1117 431 1117 431 1117 512 c 0,0,1
611 332 m 0,19,20
 611 376 611 376 599.5 418 c 128,-1,21
 588 460 588 460 569 492 c 128,-1,22
 550 524 550 524 533.5 546.5 c 128,-1,23
 517 569 517 569 499 588.5 c 128,-1,24
 481 608 481 608 479 611 c 1,25,26
 524 629 524 629 598 641 c 2,27,-1
 630 646 l 2,28,29
 643 648 643 648 652 648 c 0,30,31
 687 648 687 648 701 624 c 1,32,33
 701 556 701 556 717 487 c 1,34,35
 742 496 742 496 802 541 c 2,36,-1
 920 631 l 1,37,38
 981 676 981 676 1020.5 698 c 128,-1,39
 1060 720 1060 720 1077 723.5 c 128,-1,40
 1094 727 1094 727 1119 727 c 0,41,42
 1130 727 1130 727 1139 726.5 c 128,-1,43
 1148 726 1148 726 1154 726 c 0,44,45
 1213 720 1213 720 1213 594 c 0,46,47
 1213 553 1213 553 1208 500 c 128,-1,48
 1203 447 1203 447 1190 373.5 c 128,-1,49
 1177 300 1177 300 1147.5 227.5 c 128,-1,50
 1118 155 1118 155 1076 107 c 0,51,52
 1047 74 1047 74 1026 55.5 c 128,-1,53
 1005 37 1005 37 969 21 c 128,-1,54
 933 5 933 5 891 5 c 0,55,56
 842 5 842 5 807 22 c 128,-1,57
 772 39 772 39 724 83 c 0,58,59
 710 95 710 95 684 190 c 1,60,61
 668 146 668 146 639 114 c 1,62,-1
 582 56 l 1,63,64
 546 15 546 15 496.5 -0.5 c 128,-1,65
 447 -16 447 -16 372 -16 c 0,66,67
 323 -16 323 -16 288 1 c 128,-1,68
 253 18 253 18 205 62 c 0,69,70
 190 75 190 75 174.5 128.5 c 128,-1,71
 159 182 159 182 144 245.5 c 128,-1,72
 129 309 129 309 88.5 396.5 c 128,-1,73
 48 484 48 484 -11 555 c 0,74,75
 -39 589 -39 589 -40 590 c 1,76,77
 5 608 5 608 79 620 c 2,78,-1
 111 625 l 2,79,80
 124 627 124 627 133 627 c 0,81,82
 168 627 168 627 182 603 c 1,83,84
 182 546 182 546 218.5 338 c 128,-1,85
 255 130 255 130 267 117 c 0,86,87
 316 63 316 63 366 63 c 0,88,89
 460 63 460 63 535.5 145 c 128,-1,90
 611 227 611 227 611 332 c 0,19,20
EndSplineSet
EndChar

StartChar: u11708
Encoding: 71432 71432 21
Width: 692
Flags: W
LayerCount: 2
Fore
SplineSet
598 491 m 0,0,1
 598 531 598 531 589.5 544.5 c 128,-1,2
 581 558 581 558 563 558 c 0,3,4
 509 558 509 558 347 477 c 1,5,-1
 210 405 l 1,6,7
 219 336 219 336 238.5 231.5 c 128,-1,8
 258 127 258 127 267 117 c 0,9,10
 316 63 316 63 366 63 c 0,11,12
 389 63 389 63 411 74.5 c 128,-1,13
 433 86 433 86 443 95 c 128,-1,14
 453 104 453 104 474 130 c 128,-1,15
 495 156 495 156 498 159 c 0,16,17
 538 204 538 204 568 307 c 128,-1,18
 598 410 598 410 598 491 c 0,0,1
600 706 m 0,19,20
 611 706 611 706 620 705.5 c 128,-1,21
 629 705 629 705 635 705 c 0,22,23
 694 699 694 699 694 573 c 0,24,25
 694 532 694 532 689 479 c 128,-1,26
 684 426 684 426 671 352.5 c 128,-1,27
 658 279 658 279 628.5 206.5 c 128,-1,28
 599 134 599 134 557 86 c 0,29,30
 528 53 528 53 507 34.5 c 128,-1,31
 486 16 486 16 450 0 c 128,-1,32
 414 -16 414 -16 372 -16 c 0,33,34
 323 -16 323 -16 288 1 c 128,-1,35
 253 18 253 18 205 62 c 0,36,37
 190 75 190 75 172 129.5 c 128,-1,38
 154 184 154 184 134.5 251 c 128,-1,39
 115 318 115 318 69 413 c 128,-1,40
 23 508 23 508 -40 590 c 1,41,42
 5 608 5 608 79 620 c 2,43,-1
 111 625 l 2,44,45
 124 627 124 627 133 627 c 0,46,47
 168 627 168 627 182 603 c 1,48,49
 182 535 182 535 198 466 c 1,50,51
 223 475 223 475 282 520 c 2,52,-1
 401 610 l 2,53,54
 462 655 462 655 501.5 677 c 128,-1,55
 541 699 541 699 558 702.5 c 128,-1,56
 575 706 575 706 600 706 c 0,19,20
EndSplineSet
EndChar

StartChar: u11709
Encoding: 71433 71433 22
Width: 702
Flags: W
LayerCount: 2
Fore
SplineSet
221 297 m 1,0,1
 232 215 232 215 246.5 169.5 c 128,-1,2
 261 124 261 124 272.5 110.5 c 128,-1,3
 284 97 284 97 307 82 c 0,4,5
 336 63 336 63 366 63 c 0,6,7
 389 63 389 63 411 74.5 c 128,-1,8
 433 86 433 86 443 95 c 128,-1,9
 453 104 453 104 474 130 c 128,-1,10
 495 156 495 156 498 159 c 0,11,12
 545 213 545 213 561.5 274.5 c 128,-1,13
 578 336 578 336 578 426 c 1,14,15
 529 426 529 426 412 381.5 c 128,-1,16
 295 337 295 337 221 297 c 1,0,1
218 336 m 1,17,18
 504 459 504 459 574 459 c 1,19,20
 576 469 576 469 576 566.5 c 128,-1,21
 576 664 576 664 579 682 c 1,22,23
 611 698 611 698 638 698 c 1,24,25
 670 694 670 694 700 660 c 1,26,27
 700 355 700 355 610 169.5 c 128,-1,28
 520 -16 520 -16 372 -16 c 0,29,30
 323 -16 323 -16 288 1 c 128,-1,31
 253 18 253 18 205 62 c 0,32,33
 166 97 166 97 101 248 c 128,-1,34
 36 399 36 399 20 510 c 0,35,36
 19 523 19 523 8.5 535.5 c 128,-1,37
 -2 548 -2 548 -17.5 562 c 128,-1,38
 -33 576 -33 576 -40 585 c 1,39,40
 66 629 66 629 127 629 c 0,41,42
 165 629 165 629 182 603 c 1,43,44
 201 407 201 407 218 336 c 1,17,18
EndSplineSet
EndChar

StartChar: u1170A
Encoding: 71434 71434 23
Width: 1248
Flags: W
LayerCount: 2
Fore
SplineSet
652 648 m 0,0,1
 687 648 687 648 701 624 c 1,2,3
 701 563 701 563 737 357.5 c 128,-1,4
 773 152 773 152 786 138 c 0,5,6
 835 84 835 84 885 84 c 0,7,8
 908 84 908 84 930 95.5 c 128,-1,9
 952 107 952 107 962 116 c 128,-1,10
 972 125 972 125 993 151 c 128,-1,11
 1014 177 1014 177 1017 180 c 0,12,13
 1060 228 1060 228 1088.5 329 c 128,-1,14
 1117 430 1117 430 1117 499 c 0,15,16
 1117 551 1117 551 1099 561 c 1,17,18
 1054 616 1054 616 1011 645 c 1,19,20
 1013 661 1013 661 1036 671 c 2,21,-1
 1059 681 l 1,22,23
 1103 702 1103 702 1155 702 c 1,24,25
 1214 696 1214 696 1214 580 c 0,26,27
 1214 524 1214 524 1205 457.5 c 128,-1,28
 1196 391 1196 391 1174.5 307 c 128,-1,29
 1153 223 1153 223 1106.5 148.5 c 128,-1,30
 1060 74 1060 74 995 33 c 0,31,32
 950 5 950 5 891 5 c 0,33,34
 842 5 842 5 807 22 c 128,-1,35
 772 39 772 39 724 83 c 0,36,37
 710 95 710 95 684 190 c 1,38,39
 668 146 668 146 639 114 c 1,40,-1
 582 56 l 1,41,42
 546 15 546 15 496.5 -0.5 c 128,-1,43
 447 -16 447 -16 372 -16 c 0,44,45
 323 -16 323 -16 288 1 c 128,-1,46
 253 18 253 18 205 62 c 0,47,48
 190 75 190 75 174.5 128.5 c 128,-1,49
 159 182 159 182 144 245.5 c 128,-1,50
 129 309 129 309 88.5 396.5 c 128,-1,51
 48 484 48 484 -11 555 c 0,52,53
 -39 589 -39 589 -40 590 c 1,54,55
 5 608 5 608 79 620 c 2,56,-1
 111 625 l 2,57,58
 124 627 124 627 133 627 c 0,59,60
 168 627 168 627 182 603 c 1,61,62
 182 546 182 546 218.5 338 c 128,-1,63
 255 130 255 130 267 117 c 0,64,65
 316 63 316 63 366 63 c 0,66,67
 460 63 460 63 535.5 145 c 128,-1,68
 611 227 611 227 611 332 c 0,69,70
 611 376 611 376 599.5 418 c 128,-1,71
 588 460 588 460 569 492 c 128,-1,72
 550 524 550 524 533.5 546.5 c 128,-1,73
 517 569 517 569 499 588.5 c 128,-1,74
 481 608 481 608 479 611 c 1,75,76
 524 629 524 629 598 641 c 2,77,-1
 630 646 l 2,78,79
 643 648 643 648 652 648 c 0,0,1
EndSplineSet
EndChar

StartChar: u1170B
Encoding: 71435 71435 24
Width: 1355
Flags: W
LayerCount: 2
Fore
SplineSet
1279 714 m 1,0,1
 1341 714 1341 714 1341 582 c 0,2,3
 1341 525 1341 525 1333 450.5 c 128,-1,4
 1325 376 1325 376 1291 264.5 c 128,-1,5
 1257 153 1257 153 1202 90 c 1,6,7
 1172 58 1172 58 1153 40.5 c 128,-1,8
 1134 23 1134 23 1095.5 5.5 c 128,-1,9
 1057 -12 1057 -12 1014 -12 c 0,10,11
 966 -12 966 -12 929.5 6 c 128,-1,12
 893 24 893 24 843 67 c 0,13,14
 830 78 830 78 814.5 134.5 c 128,-1,15
 799 191 799 191 782.5 261.5 c 128,-1,16
 766 332 766 332 729.5 428.5 c 128,-1,17
 693 525 693 525 644 602 c 1,18,-1
 555 512 l 1,19,20
 495 429 495 429 419 306.5 c 128,-1,21
 343 184 343 184 318 138 c 1,22,23
 319 135 319 135 323 119 c 128,-1,24
 327 103 327 103 329.5 87.5 c 128,-1,25
 332 72 332 72 332 58 c 0,26,27
 332 33 332 33 315 8.5 c 128,-1,28
 298 -16 298 -16 272 -16 c 0,29,30
 249 -16 249 -16 236 3 c 128,-1,31
 223 22 223 22 212 54 c 0,32,33
 211 58 211 58 210 60 c 0,34,35
 204 93 204 93 182 189 c 2,36,-1
 138 384 l 2,37,38
 126 438 126 438 111 508 c 256,39,40
 96 578 96 578 91 591.5 c 128,-1,41
 86 605 86 605 71 615 c 0,42,43
 67 618 67 618 64 620 c 2,44,-1
 -4 668 l 1,45,46
 -6 677 -6 677 13 685 c 128,-1,47
 32 693 32 693 58 697.5 c 128,-1,48
 84 702 84 702 105 702 c 0,49,50
 150 702 150 702 202 679 c 1,51,-1
 246 447 l 1,52,-1
 295 226 l 1,53,-1
 523 548 l 1,54,55
 595 652 595 652 597 659 c 1,56,57
 639 677 639 677 730 686 c 1,58,59
 761 665 761 665 788.5 612 c 128,-1,60
 816 559 816 559 825 530 c 128,-1,61
 834 501 834 501 840 478 c 1,62,63
 865 488 865 488 925 532 c 1,64,-1
 1044 622 l 1,65,66
 1128 683 1128 683 1169 700 c 128,-1,67
 1210 717 1210 717 1247 717 c 0,68,69
 1256 717 1256 717 1279 714 c 1,0,1
1240 498 m 0,70,71
 1240 536 1240 536 1231.5 549.5 c 128,-1,72
 1223 563 1223 563 1205 563 c 0,73,74
 1156 563 1156 563 989 481 c 0,75,76
 965 470 965 470 852 413 c 1,77,78
 862 351 862 351 867.5 315.5 c 128,-1,79
 873 280 873 280 880 243 c 128,-1,80
 887 206 887 206 890.5 189 c 128,-1,81
 894 172 894 172 901 152.5 c 128,-1,82
 908 133 908 133 911.5 126.5 c 128,-1,83
 915 120 915 120 924.5 110.5 c 128,-1,84
 934 101 934 101 940 97.5 c 128,-1,85
 946 94 946 94 960 87 c 0,86,87
 984 74 984 74 1007 72 c 1,88,89
 1056 72 1056 72 1097 117 c 1,90,-1
 1139 168 l 1,91,92
 1179 213 1179 213 1209.5 316 c 128,-1,93
 1240 419 1240 419 1240 498 c 0,70,71
EndSplineSet
EndChar

StartChar: u1170C
Encoding: 71436 71436 25
Width: 1225
Flags: W
LayerCount: 2
Fore
SplineSet
1093 452 m 0,0,1
 1093 479 1093 479 1087 492.5 c 128,-1,2
 1081 506 1081 506 1074 508.5 c 128,-1,3
 1067 511 1067 511 1054 511 c 0,4,5
 1005 511 1005 511 893 472 c 128,-1,6
 781 433 781 433 696 393 c 1,7,8
 709 315 709 315 731 220 c 128,-1,9
 753 125 753 125 763 114 c 1,10,11
 814 66 814 66 860 66 c 0,12,13
 887 66 887 66 909.5 77.5 c 128,-1,14
 932 89 932 89 945 102 c 128,-1,15
 958 115 958 115 992 152 c 0,16,17
 1035 197 1035 197 1064 292.5 c 128,-1,18
 1093 388 1093 388 1093 452 c 0,0,1
157 417 m 1,19,20
 164 352 164 352 181.5 246.5 c 128,-1,21
 199 141 199 141 208 129 c 0,22,23
 252 75 252 75 297 75 c 0,24,25
 341 75 341 75 378 120 c 1,26,-1
 416 171 l 1,27,28
 500 260 500 260 533.5 312 c 128,-1,29
 567 364 567 364 567 411 c 0,30,31
 567 436 567 436 534.5 497.5 c 128,-1,32
 502 559 502 559 490 567 c 0,33,34
 484 570 484 570 474 570 c 0,35,36
 406 570 406 570 157 417 c 1,19,20
1132 648 m 0,37,38
 1194 648 1194 648 1194 528 c 0,39,40
 1194 395 1194 395 1157.5 274.5 c 128,-1,41
 1121 154 1121 154 1044.5 72 c 128,-1,42
 968 -10 968 -10 867 -10 c 0,43,44
 818 -10 818 -10 783 6 c 128,-1,45
 748 22 748 22 696 61 c 0,46,47
 669 82 669 82 651 164 c 2,48,-1
 615 330 l 1,49,50
 603 309 603 309 596.5 293.5 c 128,-1,51
 590 278 590 278 585 268 c 128,-1,52
 580 258 580 258 567 240 c 0,53,54
 549 215 549 215 518 168 c 128,-1,55
 487 121 487 121 469.5 98.5 c 128,-1,56
 452 76 452 76 424.5 47.5 c 128,-1,57
 397 19 397 19 367.5 7.5 c 128,-1,58
 338 -4 338 -4 302 -4 c 0,59,60
 268 -4 268 -4 238 9 c 128,-1,61
 208 22 208 22 193 35 c 128,-1,62
 178 48 178 48 152 74 c 0,63,64
 139 87 139 87 123 141 c 128,-1,65
 107 195 107 195 89.5 261.5 c 128,-1,66
 72 328 72 328 30 423.5 c 128,-1,67
 -12 519 -12 519 -68 602 c 1,68,69
 -30 619 -30 619 40 632 c 2,70,-1
 67 637 l 2,71,72
 78 639 78 639 88 639 c 0,73,74
 119 639 119 639 132 615 c 1,75,-1
 132 594 l 2,76,77
 132 543 132 543 146 478 c 1,78,79
 167 486 167 486 216.5 533.5 c 128,-1,80
 266 581 266 581 327 633.5 c 128,-1,81
 388 686 388 686 437 705 c 0,82,83
 485 724 485 724 496 724 c 0,84,85
 504 724 504 724 518 720 c 2,86,-1
 556 710 l 2,87,88
 581 703 581 703 601 665 c 1,89,-1
 641 559 l 1,90,91
 657 526 657 526 675 462 c 1,92,93
 703 472 703 472 766 504 c 1,94,-1
 892 571 l 1,95,96
 1000 626 1000 626 1032 638 c 128,-1,97
 1064 650 1064 650 1101 650 c 2,98,-1
 1121 650 l 1,99,100
 1129 648 1129 648 1132 648 c 0,37,38
EndSplineSet
EndChar

StartChar: u1170D
Encoding: 71437 71437 26
Width: 818
Flags: W
LayerCount: 2
Fore
SplineSet
963 974 m 0,0,1
 963 944 963 944 947 926.5 c 128,-1,2
 931 909 931 909 908 909 c 0,3,4
 879 909 879 909 860.5 930.5 c 128,-1,5
 842 952 842 952 834.5 977 c 128,-1,6
 827 1002 827 1002 806 1023.5 c 128,-1,7
 785 1045 785 1045 751 1045 c 0,8,9
 653 1045 653 1045 561.5 994 c 128,-1,10
 470 943 470 943 446 870 c 0,11,12
 437 843 437 843 420.5 726.5 c 128,-1,13
 404 610 404 610 404 583 c 0,14,15
 404 279 404 279 562 21 c 0,16,17
 605 -48 605 -48 641 -48 c 0,18,19
 672 -48 672 -48 689 -19 c 128,-1,20
 706 10 706 10 704 32 c 1,21,22
 704 56 704 56 714.5 153.5 c 128,-1,23
 725 251 725 251 725 284 c 0,24,25
 725 344 725 344 710 384 c 1,26,-1
 592 264 l 1,27,-1
 514 176 l 1,28,29
 446 102 446 102 394.5 57.5 c 128,-1,30
 343 13 343 13 308 13 c 0,31,32
 270 13 270 13 252 14.5 c 128,-1,33
 234 16 234 16 210.5 25.5 c 128,-1,34
 187 35 187 35 165 54 c 0,35,36
 152 65 152 65 138 109 c 128,-1,37
 124 153 124 153 108.5 207.5 c 128,-1,38
 93 262 93 262 53.5 343.5 c 128,-1,39
 14 425 14 425 -43 499 c 1,40,41
 -16 509 -16 509 35.5 520 c 128,-1,42
 87 531 87 531 110 531 c 0,43,44
 142 531 142 531 157 508 c 1,45,46
 155 459 155 459 169 399 c 1,47,48
 202 413 202 413 306 468 c 1,49,-1
 512 580 l 2,50,51
 668 664 668 664 689 672 c 0,52,53
 710 679 710 679 739 679 c 0,54,55
 757 679 757 679 776 677 c 0,56,57
 788 676 788 676 797.5 612.5 c 128,-1,58
 807 549 807 549 811.5 467 c 128,-1,59
 816 385 816 385 818.5 328 c 128,-1,60
 821 271 821 271 821 260 c 0,61,62
 821 214 821 214 815 152.5 c 128,-1,63
 809 91 809 91 795.5 19.5 c 128,-1,64
 782 -52 782 -52 754.5 -100.5 c 128,-1,65
 727 -149 727 -149 690 -149 c 0,66,67
 634 -149 634 -149 543 -78 c 0,68,69
 521 -60 521 -60 483.5 0 c 128,-1,70
 446 60 446 60 405 166 c 0,71,72
 385 217 385 217 368.5 342.5 c 128,-1,73
 352 468 352 468 352 567 c 0,74,75
 352 592 352 592 355 626 c 128,-1,76
 358 660 358 660 365.5 727 c 128,-1,77
 373 794 373 794 378 840 c 0,78,79
 388 947 388 947 508.5 1032.5 c 128,-1,80
 629 1118 629 1118 784 1118 c 0,81,82
 828 1118 828 1118 862 1107 c 128,-1,83
 896 1096 896 1096 914.5 1080 c 128,-1,84
 933 1064 933 1064 944.5 1043.5 c 128,-1,85
 956 1023 956 1023 959.5 1006.5 c 128,-1,86
 963 990 963 990 963 974 c 0,0,1
645 511 m 0,87,88
 600 511 600 511 438.5 449.5 c 128,-1,89
 277 388 277 388 181 338 c 1,90,91
 187 184 187 184 193 159 c 0,92,93
 198 139 198 139 208 130 c 0,94,95
 228 111 228 111 244.5 102 c 128,-1,96
 261 93 261 93 268 92 c 128,-1,97
 275 91 275 91 302 89 c 1,98,99
 322 89 322 89 357 112 c 128,-1,100
 392 135 392 135 435 174.5 c 128,-1,101
 478 214 478 214 511 246 c 128,-1,102
 544 278 544 278 581.5 317.5 c 128,-1,103
 619 357 619 357 621 359 c 0,104,105
 672 410 672 410 684 424 c 1,106,107
 684 511 684 511 645 511 c 0,87,88
EndSplineSet
EndChar

StartChar: u1170E
Encoding: 71438 71438 27
Width: 1240
Flags: W
LayerCount: 2
Fore
SplineSet
265 64 m 0,0,1
 265 47 265 47 250 22.5 c 128,-1,2
 235 -2 235 -2 209 -2 c 0,3,4
 194 -2 194 -2 182.5 10.5 c 128,-1,5
 171 23 171 23 166.5 33.5 c 128,-1,6
 162 44 162 44 155 66 c 1,7,8
 149 101 149 101 131 181 c 2,9,-1
 51 540 l 1,10,11
 49 555 49 555 23 574 c 2,12,-1
 -37 618 l 1,13,14
 -38 625 -38 625 -27.5 631 c 128,-1,15
 -17 637 -17 637 -1 640.5 c 128,-1,16
 15 644 15 644 31.5 646.5 c 128,-1,17
 48 649 48 649 61 649 c 2,18,-1
 74 649 l 1,19,20
 78 648 78 648 90 647 c 128,-1,21
 102 646 102 646 114.5 642 c 128,-1,22
 127 638 127 638 147 628 c 1,23,-1
 186 418 l 1,24,-1
 230 217 l 1,25,26
 243 234 243 234 310 332 c 2,27,-1
 430 509 l 1,28,29
 492 603 492 603 492 611 c 1,30,31
 519 623 519 623 567 633 c 1,32,-1
 606 640 l 2,33,34
 645 648 645 648 660 648 c 0,35,36
 693 648 693 648 707 624 c 1,37,38
 707 563 707 563 741.5 358 c 128,-1,39
 776 153 776 153 790 138 c 0,40,41
 837 84 837 84 886 84 c 0,42,43
 934 84 934 84 973 129 c 1,44,-1
 1014 180 l 1,45,46
 1052 223 1052 223 1081.5 323.5 c 128,-1,47
 1111 424 1111 424 1111 499 c 0,48,49
 1111 550 1111 550 1093 561 c 1,50,51
 1051 615 1051 615 1008 645 c 1,52,53
 1010 661 1010 661 1032 671 c 2,54,-1
 1054 681 l 1,55,56
 1096 702 1096 702 1147 702 c 1,57,58
 1204 696 1204 696 1204 579 c 0,59,60
 1204 433 1204 433 1165.5 302 c 128,-1,61
 1127 171 1127 171 1054 88 c 128,-1,62
 981 5 981 5 891 5 c 0,63,64
 845 5 845 5 809.5 23 c 128,-1,65
 774 41 774 41 729 83 c 0,66,67
 718 94 718 94 705 140 c 128,-1,68
 692 186 692 186 678 244 c 128,-1,69
 664 302 664 302 628 390 c 128,-1,70
 592 478 592 478 542 558 c 1,71,-1
 463 476 l 1,72,73
 402 389 402 389 335.5 281 c 128,-1,74
 269 173 269 173 251 137 c 1,75,76
 265 90 265 90 265 64 c 0,0,1
EndSplineSet
EndChar

StartChar: u1170F
Encoding: 71439 71439 28
Width: 1413
Flags: W
LayerCount: 2
Fore
SplineSet
939 117 m 1,0,1
 972 146 972 146 1023 175 c 128,-1,2
 1074 204 1074 204 1112.5 226 c 128,-1,3
 1151 248 1151 248 1188 281 c 128,-1,4
 1225 314 1225 314 1245.5 367.5 c 128,-1,5
 1266 421 1266 421 1266 496 c 0,6,7
 1266 568 1266 568 1222 630 c 1,8,9
 1278 623 1278 623 1318 623 c 0,10,11
 1356 623 1356 623 1397 630 c 1,12,13
 1399 612 1399 612 1399 592 c 0,14,15
 1399 492 1399 492 1359 395 c 128,-1,16
 1319 298 1319 298 1242 240 c 0,17,18
 1207 213 1207 213 1102.5 160.5 c 128,-1,19
 998 108 998 108 948 72 c 1,20,21
 953 67 953 67 953 38 c 0,22,23
 953 19 953 19 946 10 c 128,-1,24
 939 1 939 1 908 -12 c 1,25,26
 882 -24 882 -24 857 -24 c 0,27,28
 818 -24 818 -24 806 -7 c 128,-1,29
 794 10 794 10 794 50 c 0,30,31
 794 86 794 86 797 142.5 c 128,-1,32
 800 199 800 199 800 211 c 0,33,34
 800 415 800 415 709 547 c 1,35,-1
 616 472 l 1,36,37
 552 398 552 398 469.5 285.5 c 128,-1,38
 387 173 387 173 368 139 c 1,39,40
 372 131 372 131 378 105.5 c 128,-1,41
 384 80 384 80 384 59 c 0,42,43
 384 32 384 32 364 8 c 128,-1,44
 344 -16 344 -16 315 -16 c 0,45,46
 302 -16 302 -16 293 -12 c 128,-1,47
 284 -8 284 -8 275 5.5 c 128,-1,48
 266 19 266 19 262 27.5 c 128,-1,49
 258 36 258 36 247 61 c 1,50,51
 242 88 242 88 209 189 c 2,52,-1
 143 389 l 2,53,54
 127 439 127 439 115 482 c 128,-1,55
 103 525 103 525 97.5 544.5 c 128,-1,56
 92 564 92 564 88.5 579.5 c 128,-1,57
 85 595 85 595 79.5 602 c 128,-1,58
 74 609 74 609 69 613.5 c 128,-1,59
 64 618 64 618 48 628 c 2,60,-1
 -25 675 l 1,61,62
 -26 681 -26 681 -15 687 c 128,-1,63
 -4 693 -4 693 15 697 c 128,-1,64
 34 701 34 701 56 704 c 128,-1,65
 78 707 78 707 98.5 708.5 c 128,-1,66
 119 710 119 710 133 710 c 2,67,-1
 153 710 l 2,68,69
 154 710 154 710 170 708 c 128,-1,70
 186 706 186 706 203.5 701 c 128,-1,71
 221 696 221 696 239 686 c 1,72,-1
 287 452 l 1,73,-1
 343 228 l 1,74,75
 350 237 350 237 438 340 c 2,76,-1
 581 508 l 1,77,78
 654 596 654 596 657 605 c 1,79,80
 697 621 697 621 805 631 c 1,81,82
 824 619 824 619 831.5 614 c 128,-1,83
 839 609 839 609 851 597.5 c 128,-1,84
 863 586 863 586 875 569 c 1,85,86
 883 516 883 516 894 431 c 1,87,-1
 939 117 l 1,0,1
EndSplineSet
EndChar

StartChar: u11710
Encoding: 71440 71440 29
Width: 1045
Flags: W
LayerCount: 2
Fore
SplineSet
1056 833 m 0,0,1
 1071 833 1071 833 1086 821.5 c 128,-1,2
 1101 810 1101 810 1101 793 c 0,3,4
 1101 773 1101 773 1078 743 c 2,5,-1
 1051 709 l 1,6,7
 969 612 969 612 900.5 551.5 c 128,-1,8
 832 491 832 491 795.5 472 c 128,-1,9
 759 453 759 453 715.5 433 c 128,-1,10
 672 413 672 413 647 395 c 1,11,12
 647 388 647 388 648 359.5 c 128,-1,13
 649 331 649 331 650 316 c 128,-1,14
 651 301 651 301 653.5 271 c 128,-1,15
 656 241 656 241 660.5 223 c 128,-1,16
 665 205 665 205 672 179.5 c 128,-1,17
 679 154 679 154 690 138.5 c 128,-1,18
 701 123 701 123 715 107.5 c 128,-1,19
 729 92 729 92 749.5 85 c 128,-1,20
 770 78 770 78 794 78 c 0,21,22
 871 78 871 78 942.5 146 c 128,-1,23
 1014 214 1014 214 1021 272 c 0,24,25
 1024 299 1024 299 1028 309.5 c 128,-1,26
 1032 320 1032 320 1045 320 c 0,27,28
 1072 320 1072 320 1062 261 c 0,29,30
 1048 183 1048 183 993 117 c 0,31,32
 960 76 960 76 921 59 c 2,33,-1
 852 30 l 1,34,35
 804 7 804 7 765 7 c 0,36,37
 735 7 735 7 709.5 15 c 128,-1,38
 684 23 684 23 666 34 c 128,-1,39
 648 45 648 45 633 65.5 c 128,-1,40
 618 86 618 86 609.5 102 c 128,-1,41
 601 118 601 118 592 144.5 c 128,-1,42
 583 171 583 171 579.5 186 c 128,-1,43
 576 201 576 201 570 228 c 0,44,45
 568 236 568 236 568 240 c 2,46,-1
 512 505 l 1,47,48
 505 502 505 502 378 263 c 1,49,-1
 314 146 l 1,50,51
 318 138 318 138 324 112.5 c 128,-1,52
 330 87 330 87 330 66 c 0,53,54
 330 39 330 39 310 15 c 128,-1,55
 290 -9 290 -9 261 -9 c 0,56,57
 248 -9 248 -9 239 -5 c 128,-1,58
 230 -1 230 -1 221 12.5 c 128,-1,59
 212 26 212 26 208 34.5 c 128,-1,60
 204 43 204 43 193 68 c 1,61,62
 188 95 188 95 155 196 c 2,63,-1
 89 396 l 2,64,65
 73 446 73 446 61 489 c 128,-1,66
 49 532 49 532 43.5 551.5 c 128,-1,67
 38 571 38 571 34.5 586.5 c 128,-1,68
 31 602 31 602 25.5 609 c 128,-1,69
 20 616 20 616 15 620.5 c 128,-1,70
 10 625 10 625 -6 635 c 2,71,-1
 -79 682 l 1,72,73
 -80 688 -80 688 -69 694 c 128,-1,74
 -58 700 -58 700 -39 704 c 128,-1,75
 -20 708 -20 708 2 711 c 128,-1,76
 24 714 24 714 44.5 715.5 c 128,-1,77
 65 717 65 717 79 717 c 2,78,-1
 99 717 l 2,79,80
 100 717 100 717 116 715 c 128,-1,81
 132 713 132 713 149.5 708 c 128,-1,82
 167 703 167 703 185 693 c 1,83,-1
 233 459 l 1,84,-1
 287 243 l 1,85,-1
 425 484 l 1,86,87
 478 571 478 571 490 579 c 1,88,-1
 474 602 l 1,89,-1
 409 647 l 1,90,91
 406 665 406 665 422.5 680.5 c 128,-1,92
 439 696 439 696 464 704 c 128,-1,93
 489 712 489 712 516.5 718 c 128,-1,94
 544 724 544 724 560.5 726 c 128,-1,95
 577 728 577 728 580 728 c 0,96,97
 594 728 594 728 607 719 c 1,98,-1
 628 521 l 1,99,100
 632 522 632 522 669 519.5 c 128,-1,101
 706 517 706 517 713 517 c 0,102,103
 772 517 772 517 797 537 c 0,104,105
 870 593 870 593 953 679.5 c 128,-1,106
 1036 766 1036 766 1036 809 c 0,107,108
 1036 825 1036 825 1039.5 829 c 128,-1,109
 1043 833 1043 833 1056 833 c 0,0,1
EndSplineSet
EndChar

StartChar: u11711
Encoding: 71441 71441 30
Width: 992
Flags: W
LayerCount: 2
Fore
SplineSet
384 59 m 0,0,1
 384 32 384 32 364 8 c 128,-1,2
 344 -16 344 -16 315 -16 c 0,3,4
 302 -16 302 -16 293 -12 c 128,-1,5
 284 -8 284 -8 275 5.5 c 128,-1,6
 266 19 266 19 262 27.5 c 128,-1,7
 258 36 258 36 247 61 c 1,8,9
 242 88 242 88 209 189 c 2,10,-1
 143 389 l 2,11,12
 127 439 127 439 115 482 c 128,-1,13
 103 525 103 525 97.5 544.5 c 128,-1,14
 92 564 92 564 88.5 579.5 c 128,-1,15
 85 595 85 595 79.5 602 c 128,-1,16
 74 609 74 609 69 613.5 c 128,-1,17
 64 618 64 618 48 628 c 2,18,-1
 -25 675 l 1,19,20
 -26 681 -26 681 -15 687 c 128,-1,21
 -4 693 -4 693 15 697 c 128,-1,22
 34 701 34 701 56 704 c 128,-1,23
 78 707 78 707 98.5 708.5 c 128,-1,24
 119 710 119 710 133 710 c 2,25,-1
 153 710 l 2,26,27
 154 710 154 710 170 708 c 128,-1,28
 186 706 186 706 203.5 701 c 128,-1,29
 221 696 221 696 239 686 c 1,30,-1
 287 452 l 1,31,-1
 343 228 l 1,32,33
 350 237 350 237 438 340 c 2,34,-1
 581 508 l 1,35,36
 654 596 654 596 657 605 c 1,37,38
 697 621 697 621 805 631 c 1,39,40
 824 619 824 619 831.5 614 c 128,-1,41
 839 609 839 609 851 597.5 c 128,-1,42
 863 586 863 586 875 569 c 1,43,44
 883 517 883 517 899 401 c 2,45,-1
 926 200 l 2,46,47
 940 100 940 100 947 67 c 1,48,49
 955 58 955 58 942.5 45 c 128,-1,50
 930 32 930 32 904.5 21.5 c 128,-1,51
 879 11 879 11 853 11 c 0,52,53
 830 11 830 11 815.5 17.5 c 128,-1,54
 801 24 801 24 796 36 c 128,-1,55
 791 48 791 48 789.5 56 c 128,-1,56
 788 64 788 64 788 77 c 0,57,58
 788 89 788 89 792.5 146.5 c 128,-1,59
 797 204 797 204 797 241 c 0,60,61
 797 421 797 421 709 547 c 1,62,-1
 616 472 l 1,63,64
 552 398 552 398 469.5 285.5 c 128,-1,65
 387 173 387 173 368 139 c 1,66,67
 372 131 372 131 378 105.5 c 128,-1,68
 384 80 384 80 384 59 c 0,0,1
EndSplineSet
EndChar

StartChar: u11712
Encoding: 71442 71442 31
Width: 917
Flags: W
LayerCount: 2
Fore
SplineSet
179 582 m 1,0,1
 187 524 187 524 200.5 279.5 c 128,-1,2
 214 35 214 35 214 -29 c 0,3,4
 214 -48 214 -48 206 -48 c 0,5,6
 204 -48 204 -48 195.5 -44 c 128,-1,7
 187 -40 187 -40 173 -28.5 c 128,-1,8
 159 -17 159 -17 144.5 -0.5 c 128,-1,9
 130 16 130 16 115 44.5 c 128,-1,10
 100 73 100 73 90 107 c 1,11,12
 44 291 44 291 -4 531 c 1,13,14
 -7 540 -7 540 -48 561 c 0,15,16
 -85 579 -85 579 -85 590 c 128,-1,17
 -85 601 -85 601 -56 611 c 0,18,19
 -30 620 -30 620 1.5 642.5 c 128,-1,20
 33 665 33 665 62 665 c 2,21,-1
 73 665 l 2,22,23
 239 665 239 665 275 580 c 0,24,25
 308 503 308 503 370 457 c 1,26,-1
 424 598 l 2,27,28
 480 745 480 745 525.5 822.5 c 128,-1,29
 571 900 571 900 609.5 926.5 c 128,-1,30
 648 953 648 953 701 953 c 0,31,32
 739 953 739 953 759 932 c 128,-1,33
 779 911 779 911 779 875 c 0,34,35
 779 843 779 843 764 818.5 c 128,-1,36
 749 794 749 794 723 794 c 0,37,38
 710 794 710 794 700 808 c 128,-1,39
 690 822 690 822 684 839 c 128,-1,40
 678 856 678 856 668 870 c 128,-1,41
 658 884 658 884 644 884 c 0,42,43
 605 884 605 884 548 765 c 1,44,-1
 432 476 l 1,45,-1
 657 594 l 2,46,47
 772 654 772 654 804 654 c 0,48,49
 844 654 844 654 867.5 647.5 c 128,-1,50
 891 641 891 641 901 625.5 c 128,-1,51
 911 610 911 610 914.5 595.5 c 128,-1,52
 918 581 918 581 921 552 c 128,-1,53
 924 523 924 523 929 503 c 1,54,55
 927 491 927 491 927 354 c 0,56,57
 927 193 927 193 929 -3 c 1,58,59
 910 -47 910 -47 871 -47 c 0,60,61
 856 -47 856 -47 844 -36 c 2,62,-1
 819 -13 l 1,63,64
 819 11 819 11 809 126 c 2,65,-1
 790 344 l 2,66,67
 780 448 780 448 779 448 c 0,68,69
 776 457 776 457 776 468 c 0,70,71
 776 478 776 478 779 508 c 1,72,73
 779 537 779 537 754 537 c 0,74,75
 720 537 720 537 569.5 476 c 128,-1,76
 419 415 419 415 376 379 c 1,77,78
 294 427 294 427 251 489 c 1,79,-1
 194 593 l 1,80,81
 190 593 190 593 179 582 c 1,0,1
EndSplineSet
EndChar

StartChar: u11713
Encoding: 71443 71443 32
Width: 704
Flags: W
LayerCount: 2
Fore
SplineSet
699 560 m 0,0,1
 681 560 681 560 671 610 c 128,-1,2
 661 660 661 660 643 660 c 0,3,4
 577 660 577 660 333 341 c 2,5,-1
 233 210 l 1,6,7
 234 203 234 203 234 193 c 0,8,9
 234 180 234 180 229.5 170.5 c 128,-1,10
 225 161 225 161 220.5 156.5 c 128,-1,11
 216 152 216 152 216 151 c 0,12,13
 216 142 216 142 263 100 c 1,14,15
 263 119 263 119 311 167 c 128,-1,16
 359 215 359 215 403 215 c 0,17,18
 449 215 449 215 480.5 202 c 128,-1,19
 512 189 512 189 530.5 168 c 128,-1,20
 549 147 549 147 558.5 106.5 c 128,-1,21
 568 66 568 66 570.5 26 c 128,-1,22
 573 -14 573 -14 573 -80 c 1,23,24
 569 -133 569 -133 533.5 -186.5 c 128,-1,25
 498 -240 498 -240 463 -265 c 0,26,27
 441 -281 441 -281 391.5 -298 c 128,-1,28
 342 -315 342 -315 320 -315 c 0,29,30
 293 -315 293 -315 334 -291 c 0,31,32
 341 -286 341 -286 360 -276 c 0,33,34
 406 -250 406 -250 418 -240 c 0,35,36
 510 -153 510 -153 510 -37 c 0,37,38
 510 44 510 44 481 99.5 c 128,-1,39
 452 155 452 155 413 155 c 0,40,41
 390 155 390 155 363 132 c 128,-1,42
 336 109 336 109 317 81.5 c 128,-1,43
 298 54 298 54 278.5 32.5 c 128,-1,44
 259 11 259 11 249 13 c 1,45,46
 191 31 191 31 161 80 c 0,47,48
 124 142 124 142 77 361 c 0,49,50
 61 432 61 432 30 589 c 1,51,52
 27 598 27 598 -14 619 c 0,53,54
 -51 637 -51 637 -51 648 c 128,-1,55
 -51 659 -51 659 -22 669 c 0,56,57
 1 677 1 677 19 689 c 128,-1,58
 37 701 37 701 48 709 c 128,-1,59
 59 717 59 717 90 723.5 c 128,-1,60
 121 730 121 730 171 730 c 0,61,62
 201 730 201 730 211 723 c 1,63,64
 211 314 211 314 228 280 c 1,65,66
 229 283 229 283 271.5 341 c 128,-1,67
 314 399 314 399 380.5 483 c 128,-1,68
 447 567 447 567 491 614 c 0,69,70
 592 721 592 721 647 721 c 1,71,72
 667 722 667 722 678 722 c 0,73,74
 731 722 731 722 751 699 c 128,-1,75
 771 676 771 676 771 646 c 0,76,77
 771 611 771 611 751 585.5 c 128,-1,78
 731 560 731 560 699 560 c 0,0,1
EndSplineSet
EndChar

StartChar: u11714
Encoding: 71444 71444 33
Width: 1263
Flags: W
LayerCount: 2
Fore
SplineSet
598 530 m 0,0,1
 598 571 598 571 590 587 c 128,-1,2
 582 603 582 603 563 603 c 0,3,4
 504 603 504 603 329 506 c 1,5,-1
 210 437 l 1,6,7
 219 366 219 366 238 252 c 128,-1,8
 257 138 257 138 267 126 c 0,9,10
 317 68 317 68 366 68 c 0,11,12
 416 68 416 68 456 116 c 1,13,-1
 498 172 l 1,14,15
 541 225 541 225 569.5 338 c 128,-1,16
 598 451 598 451 598 530 c 0,0,1
1137 768 m 0,17,18
 1137 813 1137 813 1128 827 c 128,-1,19
 1119 841 1119 841 1100 841 c 0,20,21
 1042 841 1042 841 903 783.5 c 128,-1,22
 764 726 764 726 679 675 c 1,23,24
 685 630 685 630 741 511.5 c 128,-1,25
 797 393 797 393 815 373 c 1,26,-1
 850 331 l 1,27,28
 876 306 876 306 905 306 c 0,29,30
 932 306 932 306 954 319.5 c 128,-1,31
 976 333 976 333 987.5 347 c 128,-1,32
 999 361 999 361 1037 409 c 0,33,34
 1080 462 1080 462 1108.5 575 c 128,-1,35
 1137 688 1137 688 1137 768 c 0,17,18
712 304 m 0,36,37
 685 304 685 304 663 268 c 128,-1,38
 641 232 641 232 641 176 c 0,39,40
 641 146 641 146 651.5 106.5 c 128,-1,41
 662 67 662 67 670.5 47 c 128,-1,42
 679 27 679 27 681 23 c 0,43,44
 710 -30 710 -30 763 -30 c 0,45,46
 815 -30 815 -30 838.5 -4.5 c 128,-1,47
 862 21 862 21 862 79 c 0,48,49
 862 133 862 133 845.5 178 c 128,-1,50
 829 223 829 223 804.5 249.5 c 128,-1,51
 780 276 780 276 755.5 290 c 128,-1,52
 731 304 731 304 712 304 c 0,36,37
911 220 m 1,53,54
 940 116 940 116 940 70 c 0,55,56
 940 25 940 25 925.5 -6.5 c 128,-1,57
 911 -38 911 -38 873 -73 c 0,58,59
 850 -95 850 -95 834.5 -101.5 c 128,-1,60
 819 -108 819 -108 794 -108 c 0,61,62
 720 -108 720 -108 672.5 -72.5 c 128,-1,63
 625 -37 625 -37 607 0 c 1,64,-1
 565 121 l 1,65,66
 534 84 534 84 520.5 68.5 c 128,-1,67
 507 53 507 53 480 28 c 128,-1,68
 453 3 453 3 427 -7 c 128,-1,69
 401 -17 401 -17 372 -17 c 0,70,71
 334 -17 334 -17 299.5 -2 c 128,-1,72
 265 13 265 13 248 27 c 128,-1,73
 231 41 231 41 205 67 c 0,74,75
 189 82 189 82 171 140 c 128,-1,76
 153 198 153 198 134.5 269.5 c 128,-1,77
 116 341 116 341 70 444 c 128,-1,78
 24 547 24 547 -40 637 c 1,79,80
 1 656 1 656 76 668 c 1,81,-1
 114 675 l 2,82,83
 126 677 126 677 134 677 c 0,84,85
 166 677 166 677 182 652 c 1,86,87
 182 578 182 578 198 503 c 1,88,89
 224 513 224 513 283 562 c 2,90,-1
 401 659 l 2,91,92
 422 676 422 676 440.5 690 c 128,-1,93
 459 704 459 704 472 712 c 0,94,95
 486 721 486 721 496 728 c 0,96,97
 508 736 508 736 515 739.5 c 128,-1,98
 522 743 522 743 527.5 746 c 128,-1,99
 533 749 533 749 535.5 750 c 128,-1,100
 538 751 538 751 540 753 c 128,-1,101
 542 755 542 755 542.5 756 c 128,-1,102
 543 757 543 757 543 760 c 1,103,104
 542 761 542 761 536.5 767 c 128,-1,105
 531 773 531 773 529.5 775.5 c 128,-1,106
 528 778 528 778 526 784.5 c 128,-1,107
 524 791 524 791 525 799 c 1,108,-1
 630 853 l 1,109,110
 635 836 635 836 636.5 829 c 128,-1,111
 638 822 638 822 641 812.5 c 128,-1,112
 644 803 644 803 645.5 798.5 c 128,-1,113
 647 794 647 794 648 789.5 c 128,-1,114
 649 785 649 785 651 780.5 c 128,-1,115
 653 776 653 776 654.5 773.5 c 128,-1,116
 656 771 656 771 659.5 763 c 128,-1,117
 663 755 663 755 665 751 c 1,118,119
 690 760 690 760 764 808 c 2,120,-1
 911 903 l 2,121,122
 959 934 959 934 1001 959 c 128,-1,123
 1043 984 1043 984 1055.5 992 c 128,-1,124
 1068 1000 1068 1000 1068 1003 c 1,125,-1
 1062 1008 l 1,126,127
 1059 1012 1059 1012 1057 1014.5 c 128,-1,128
 1055 1017 1055 1017 1053 1021.5 c 128,-1,129
 1051 1026 1051 1026 1050 1031 c 128,-1,130
 1049 1036 1049 1036 1050 1042 c 1,131,-1
 1155 1096 l 1,132,133
 1166 1057 1166 1057 1174 1040 c 2,134,-1
 1200 988 l 1,135,-1
 1218 930 l 2,136,137
 1233 882 1233 882 1233 841 c 0,138,139
 1233 798 1233 798 1229 747.5 c 128,-1,140
 1225 697 1225 697 1211 622 c 128,-1,141
 1197 547 1197 547 1174.5 481.5 c 128,-1,142
 1152 416 1152 416 1110.5 352 c 128,-1,143
 1069 288 1069 288 1015 251 c 0,144,145
 969 220 969 220 911 220 c 1,53,54
EndSplineSet
EndChar

StartChar: u11715
Encoding: 71445 71445 34
Width: 1091
Flags: W
LayerCount: 2
Fore
SplineSet
-1 368 m 0,0,1
 -1 510 -1 510 150.5 608 c 128,-1,2
 302 706 302 706 529 706 c 0,3,4
 619 706 619 706 733.5 672.5 c 128,-1,5
 848 639 848 639 925 584 c 1,6,7
 964 559 964 559 991.5 524 c 128,-1,8
 1019 489 1019 489 1032 460 c 128,-1,9
 1045 431 1045 431 1052 392.5 c 128,-1,10
 1059 354 1059 354 1060 336.5 c 128,-1,11
 1061 319 1061 319 1061 293 c 0,12,13
 1061 239 1061 239 1032 193 c 1,14,-1
 996 132 l 1,15,16
 963 81 963 81 911 39.5 c 128,-1,17
 859 -2 859 -2 794 -2 c 2,18,-1
 742 -2 l 1,19,20
 711 2 711 2 693 18 c 1,21,-1
 674 54 l 1,22,-1
 668 94 l 1,23,24
 668 117 668 117 678 130 c 1,25,26
 687 146 687 146 705 158 c 1,27,-1
 728 163 l 1,28,-1
 755 164 l 1,29,-1
 774 163 l 1,30,-1
 792 163 l 1,31,-1
 813 166 l 1,32,33
 864 184 864 184 884 199.5 c 128,-1,34
 904 215 904 215 912.5 248.5 c 128,-1,35
 921 282 921 282 921 358 c 0,36,37
 921 419 921 419 856.5 476 c 128,-1,38
 792 533 792 533 697 566.5 c 128,-1,39
 602 600 602 600 512 600 c 0,40,41
 356 600 356 600 240.5 528 c 128,-1,42
 125 456 125 456 125 368 c 1,43,-1
 129 309 l 1,44,45
 129 288 129 288 143 252 c 128,-1,46
 157 216 157 216 181 195 c 1,47,-1
 232 223 l 1,48,-1
 258 230 l 1,49,-1
 275 233 l 1,50,51
 309 233 309 233 349.5 196.5 c 128,-1,52
 390 160 390 160 390 116 c 0,53,54
 390 85 390 85 377 62 c 128,-1,55
 364 39 364 39 345 29 c 128,-1,56
 326 19 326 19 309.5 14.5 c 128,-1,57
 293 10 293 10 280 10 c 0,58,59
 170 10 170 10 84.5 109.5 c 128,-1,60
 -1 209 -1 209 -1 368 c 0,0,1
EndSplineSet
EndChar

StartChar: u11716
Encoding: 71446 71446 35
Width: 1406
Flags: W
LayerCount: 2
Fore
SplineSet
1184 8 m 128,-1,1
 1148 8 1148 8 1121 28 c 128,-1,2
 1094 48 1094 48 1081 77 c 128,-1,3
 1068 106 1068 106 1062 130 c 128,-1,4
 1056 154 1056 154 1056 170 c 0,5,6
 1056 197 1056 197 1070.5 207 c 128,-1,7
 1085 217 1085 217 1104 206.5 c 128,-1,8
 1123 196 1123 196 1136 170 c 0,9,10
 1157 125 1157 125 1180 125 c 0,11,12
 1221 125 1221 125 1251 190 c 1,13,-1
 1270 235 l 1,14,15
 1282 269 1282 269 1282 304 c 0,16,17
 1282 367 1282 367 1257 422.5 c 128,-1,18
 1232 478 1232 478 1193 513.5 c 128,-1,19
 1154 549 1154 549 1112 571.5 c 128,-1,20
 1070 594 1070 594 1030 602 c 1,21,22
 983 610 983 610 915 610 c 0,23,24
 853 610 853 610 847 608 c 1,25,26
 832 597 832 597 797 584 c 1,27,28
 908 497 908 497 908 293 c 0,29,30
 908 233 908 233 885 193 c 1,31,-1
 855 132 l 2,32,33
 837 96 837 96 815.5 70 c 128,-1,34
 794 44 794 44 777.5 32 c 128,-1,35
 761 20 761 20 743 13.5 c 128,-1,36
 725 7 725 7 717.5 6 c 128,-1,37
 710 5 710 5 702 5 c 2,38,-1
 701 5 l 1,39,-1
 676 2 l 2,40,41
 665 0 665 0 660 0 c 0,42,43
 641 0 641 0 629.5 9.5 c 128,-1,44
 618 19 618 19 618 29 c 0,45,46
 618 40 618 40 639 60 c 128,-1,47
 660 80 660 80 686.5 101 c 128,-1,48
 713 122 713 122 719 130 c 2,49,-1
 755 181 l 2,50,51
 757 184 757 184 763 192.5 c 128,-1,52
 769 201 769 201 770.5 203 c 128,-1,53
 772 205 772 205 776.5 213 c 128,-1,54
 781 221 781 221 782 224 c 128,-1,55
 783 227 783 227 786 235.5 c 128,-1,56
 789 244 789 244 789.5 251 c 128,-1,57
 790 258 790 258 792 269.5 c 128,-1,58
 794 281 794 281 794 293.5 c 128,-1,59
 794 306 794 306 794.5 322 c 128,-1,60
 795 338 795 338 795 358 c 0,61,62
 795 447 795 447 687 523.5 c 128,-1,63
 579 600 579 600 464 600 c 0,64,65
 339 600 339 600 244.5 529 c 128,-1,66
 150 458 150 458 150 368 c 1,67,-1
 153 309 l 2,68,69
 153 293 153 293 163.5 256 c 128,-1,70
 174 219 174 219 195 195 c 1,71,-1
 237 223 l 1,72,-1
 258 230 l 1,73,-1
 271 233 l 1,74,75
 298 233 298 233 331.5 197 c 128,-1,76
 365 161 365 161 365 116 c 0,77,78
 365 59 365 59 335 34.5 c 128,-1,79
 305 10 305 10 276 10 c 0,80,81
 186 10 186 10 117 108 c 128,-1,82
 48 206 48 206 48 368 c 0,83,84
 48 508 48 508 169 607 c 128,-1,85
 290 706 290 706 477 706 c 0,86,87
 514 706 514 706 568 694 c 128,-1,88
 622 682 622 682 661.5 670 c 128,-1,89
 701 658 701 658 704 658 c 0,90,91
 806 686 806 686 853 695.5 c 128,-1,92
 900 705 900 705 940 705 c 0,93,94
 1004 705 1004 705 1148 666 c 0,95,96
 1211 648 1211 648 1264 584 c 2,97,-1
 1325 510 l 1,98,99
 1346 487 1346 487 1366.5 426.5 c 128,-1,100
 1387 366 1387 366 1387 314 c 0,101,102
 1387 294 1387 294 1377.5 245 c 128,-1,103
 1368 196 1368 196 1360 176 c 0,104,105
 1343 130 1343 130 1300 85 c 2,106,-1
 1249 32 l 1,107,0
 1220 8 1220 8 1184 8 c 128,-1,1
EndSplineSet
EndChar

StartChar: u11717
Encoding: 71447 71447 36
Width: 1236
Flags: W
LayerCount: 2
Fore
SplineSet
987 702 m 0,0,1
 1101 702 1101 702 1165.5 627.5 c 128,-1,2
 1230 553 1230 553 1230 443 c 0,3,4
 1230 338 1230 338 1162 263.5 c 128,-1,5
 1094 189 1094 189 982 189 c 0,6,7
 937 189 937 189 895 225 c 128,-1,8
 853 261 853 261 853 310 c 0,9,10
 853 414 853 414 952 414 c 0,11,12
 988 414 988 414 1009.5 396 c 128,-1,13
 1031 378 1031 378 1037 357 c 128,-1,14
 1043 336 1043 336 1054.5 318 c 128,-1,15
 1066 300 1066 300 1086 300 c 0,16,17
 1109 300 1109 300 1123 334 c 1,18,-1
 1131 367 l 1,19,20
 1136 394 1136 394 1136 413 c 0,21,22
 1136 471 1136 471 1084.5 516.5 c 128,-1,23
 1033 562 1033 562 985 562 c 1,24,-1
 960 563 l 1,25,-1
 941 564 l 1,26,27
 915 564 915 564 885 542 c 1,28,-1
 832 498 l 1,29,-1
 798 466 l 1,30,31
 783 450 783 450 775 441 c 2,32,-1
 743 402 l 1,33,-1
 697 328 l 1,34,-1
 666 258 l 1,35,-1
 649 215 l 1,36,-1
 636 163 l 1,37,38
 677 110 677 110 720.5 29.5 c 128,-1,39
 764 -51 764 -51 764 -95 c 0,40,41
 764 -151 764 -151 707.5 -214 c 128,-1,42
 651 -277 651 -277 579 -290 c 1,43,-1
 535 -295 l 1,44,-1
 496 -297 l 1,45,-1
 461 -296 l 2,46,47
 447 -296 447 -296 432 -289 c 128,-1,48
 417 -282 417 -282 362 -249 c 1,49,50
 312 -223 312 -223 282 -201 c 1,51,-1
 222 -153 l 1,52,53
 149 -92 149 -92 149 -54 c 0,54,55
 149 -35 149 -35 156 -27 c 128,-1,56
 163 -19 163 -19 182 -19 c 0,57,58
 199 -19 199 -19 232 -42 c 128,-1,59
 265 -65 265 -65 298.5 -92 c 128,-1,60
 332 -119 332 -119 378.5 -142 c 128,-1,61
 425 -165 425 -165 467 -165 c 0,62,63
 492 -165 492 -165 518.5 -160.5 c 128,-1,64
 545 -156 545 -156 573.5 -146 c 128,-1,65
 602 -136 602 -136 620 -115.5 c 128,-1,66
 638 -95 638 -95 638 -68 c 0,67,68
 638 31 638 31 533 91 c 1,69,-1
 450 53 l 1,70,71
 403 35 403 35 357 35 c 0,72,73
 285 35 285 35 229.5 81.5 c 128,-1,74
 174 128 174 128 174 206 c 0,75,76
 174 234 174 234 201 314 c 128,-1,77
 228 394 228 394 228 401 c 0,78,79
 228 440 228 440 217 484 c 1,80,-1
 202 523 l 1,81,82
 194 537 194 537 168.5 546 c 128,-1,83
 143 555 143 555 117 559 c 128,-1,84
 91 563 91 563 70.5 575.5 c 128,-1,85
 50 588 50 588 50 610 c 2,86,-1
 50 637 l 2,87,88
 50 670 50 670 68 670 c 0,89,90
 211 670 211 670 274 629.5 c 128,-1,91
 337 589 337 589 351 520 c 1,92,-1
 356 486 l 1,93,-1
 358 445 l 1,94,95
 358 405 358 405 332 324.5 c 128,-1,96
 306 244 306 244 305 230 c 1,97,98
 305 205 305 205 321 179.5 c 128,-1,99
 337 154 337 154 373 154 c 0,100,101
 446 154 446 154 499 195 c 1,102,-1
 545 255 l 1,103,-1
 622 386 l 2,104,105
 627 395 627 395 646 428 c 128,-1,106
 665 461 665 461 674 475 c 128,-1,107
 683 489 683 489 703 520.5 c 128,-1,108
 723 552 723 552 737.5 568 c 128,-1,109
 752 584 752 584 775 609 c 128,-1,110
 798 634 798 634 819.5 647.5 c 128,-1,111
 841 661 841 661 867.5 675.5 c 128,-1,112
 894 690 894 690 924 696 c 128,-1,113
 954 702 954 702 987 702 c 0,0,1
EndSplineSet
EndChar

StartChar: u11718
Encoding: 71448 71448 37
Width: 908
Flags: W
LayerCount: 2
Fore
SplineSet
67 649 m 1,0,1
 100 649 100 649 112 622.5 c 128,-1,2
 124 596 124 596 124 541 c 2,3,-1
 125 451 l 1,4,-1
 125 414 l 2,5,6
 125 397 125 397 128 377 c 1,7,8
 128 93 128 93 184 93 c 1,9,10
 223 98 223 98 278 171 c 1,11,-1
 321 230 l 2,12,13
 339 254 339 254 396 400 c 128,-1,14
 453 546 453 546 497 586 c 1,15,16
 520 604 520 604 567 626 c 1,17,-1
 606 635 l 2,18,19
 622 639 622 639 649 639 c 0,20,21
 672 639 672 639 693 636 c 1,22,23
 715 634 715 634 753 621 c 128,-1,24
 791 608 791 608 818.5 586 c 128,-1,25
 846 564 846 564 867.5 518 c 128,-1,26
 889 472 889 472 889 409 c 0,27,28
 889 257 889 257 796.5 141.5 c 128,-1,29
 704 26 704 26 603 26 c 1,30,-1
 593 28 l 1,31,-1
 595 13 l 1,32,-1
 595 -13 l 1,33,-1
 593 -69 l 2,34,35
 593 -84 593 -84 588 -102 c 1,36,-1
 566 -154 l 1,37,-1
 537 -206 l 1,38,39
 519 -232 519 -232 503 -242 c 0,40,41
 489 -251 489 -251 462 -261 c 1,42,-1
 441 -264 l 1,43,44
 368 -264 368 -264 321 -170 c 1,45,-1
 300 -125 l 1,46,-1
 286 -75 l 1,47,-1
 282 -29 l 1,48,-1
 280 19 l 2,49,50
 280 33 280 33 284 43 c 1,51,52
 212 -20 212 -20 177 -14 c 1,53,54
 115 2 115 2 79.5 64.5 c 128,-1,55
 44 127 44 127 44 209 c 1,56,-1
 34 334 l 1,57,58
 34 368 34 368 32 422.5 c 128,-1,59
 30 477 30 477 30 479 c 2,60,-1
 23 619 l 2,61,62
 23 636 23 636 39 644 c 1,63,-1
 67 649 l 1,0,1
650 529 m 0,64,65
 594 529 594 529 554 471.5 c 128,-1,66
 514 414 514 414 514 333 c 0,67,68
 514 267 514 267 535.5 213 c 128,-1,69
 557 159 557 159 592 149 c 1,70,-1
 635 144 l 1,71,72
 675 144 675 144 705.5 180 c 128,-1,73
 736 216 736 216 768 287 c 1,74,-1
 790 347 l 1,75,-1
 799 401 l 1,76,77
 799 436 799 436 781 462.5 c 128,-1,78
 763 489 763 489 737.5 502.5 c 128,-1,79
 712 516 712 516 689 522.5 c 128,-1,80
 666 529 666 529 650 529 c 0,64,65
447 -125 m 1,81,82
 472 -122 472 -122 488 -84 c 128,-1,83
 504 -46 504 -46 504 -4 c 1,84,-1
 503 19 l 2,85,86
 503 39 503 39 494 62 c 2,87,-1
 475 106 l 1,88,-1
 462 118 l 1,89,-1
 445 130 l 1,90,-1
 435 132 l 1,91,-1
 422 130 l 1,92,-1
 403 119 l 1,93,-1
 397 114 l 1,94,-1
 385 91 l 2,95,96
 372 64 372 64 372 12 c 1,97,-1
 374 -13 l 1,98,99
 374 -50 374 -50 392.5 -87.5 c 128,-1,100
 411 -125 411 -125 447 -125 c 1,81,82
EndSplineSet
EndChar

StartChar: u11719
Encoding: 71449 71449 38
Width: 1248
Flags: W
LayerCount: 2
Fore
SplineSet
554 678 m 0,0,1
 605 678 605 678 636.5 734 c 128,-1,2
 668 790 668 790 668 877 c 0,3,4
 668 933 668 933 655.5 986 c 128,-1,5
 643 1039 643 1039 614 1078.5 c 128,-1,6
 585 1118 585 1118 545 1118 c 0,7,8
 515 1118 515 1118 493 1095.5 c 128,-1,9
 471 1073 471 1073 460 1037.5 c 128,-1,10
 449 1002 449 1002 444 968 c 128,-1,11
 439 934 439 934 439 901 c 2,12,-1
 439 881 l 1,13,14
 441 869 441 869 441 864 c 0,15,16
 441 793 441 793 472.5 735.5 c 128,-1,17
 504 678 504 678 554 678 c 0,0,1
701 624 m 0,18,19
 697 537 697 537 715 420 c 128,-1,20
 733 303 733 303 754.5 226 c 128,-1,21
 776 149 776 149 786 138 c 0,22,23
 835 84 835 84 885 84 c 0,24,25
 908 84 908 84 930 95.5 c 128,-1,26
 952 107 952 107 962 116 c 128,-1,27
 972 125 972 125 993 151 c 128,-1,28
 1014 177 1014 177 1017 180 c 0,29,30
 1060 228 1060 228 1088.5 329 c 128,-1,31
 1117 430 1117 430 1117 499 c 0,32,33
 1117 551 1117 551 1099 561 c 1,34,35
 1054 616 1054 616 1011 645 c 1,36,37
 1013 661 1013 661 1036 671 c 2,38,-1
 1059 681 l 1,39,40
 1103 702 1103 702 1155 702 c 1,41,42
 1214 696 1214 696 1214 580 c 0,43,44
 1214 524 1214 524 1205 457.5 c 128,-1,45
 1196 391 1196 391 1174.5 307 c 128,-1,46
 1153 223 1153 223 1106.5 148.5 c 128,-1,47
 1060 74 1060 74 995 33 c 0,48,49
 950 5 950 5 891 5 c 0,50,51
 842 5 842 5 807 22 c 128,-1,52
 772 39 772 39 724 83 c 0,53,54
 710 95 710 95 684 190 c 1,55,56
 668 146 668 146 639 114 c 1,57,-1
 582 56 l 1,58,59
 546 15 546 15 496.5 -0.5 c 128,-1,60
 447 -16 447 -16 372 -16 c 0,61,62
 323 -16 323 -16 288 1 c 128,-1,63
 253 18 253 18 205 62 c 0,64,65
 190 75 190 75 174.5 128.5 c 128,-1,66
 159 182 159 182 144 245.5 c 128,-1,67
 129 309 129 309 88.5 396.5 c 128,-1,68
 48 484 48 484 -11 555 c 0,69,70
 -39 589 -39 589 -40 590 c 1,71,72
 5 608 5 608 79 620 c 2,73,-1
 111 625 l 2,74,75
 124 627 124 627 133 627 c 0,76,77
 168 627 168 627 182 603 c 1,78,79
 182 546 182 546 218.5 338 c 128,-1,80
 255 130 255 130 267 117 c 0,81,82
 316 63 316 63 366 63 c 0,83,84
 460 63 460 63 535.5 145 c 128,-1,85
 611 227 611 227 611 332 c 0,86,87
 611 376 611 376 599.5 418 c 128,-1,88
 588 460 588 460 569 492 c 128,-1,89
 550 524 550 524 533.5 546.5 c 128,-1,90
 517 569 517 569 499 588.5 c 128,-1,91
 481 608 481 608 479 611 c 1,92,93
 461 609 461 609 409 702 c 128,-1,94
 357 795 357 795 345 857 c 1,95,96
 323 898 323 898 344 974 c 128,-1,97
 365 1050 365 1050 410 1122 c 0,98,99
 435 1163 435 1163 487.5 1189.5 c 128,-1,100
 540 1216 540 1216 576 1216 c 0,101,102
 704 1216 704 1216 753 1153 c 1,103,104
 797 1102 797 1102 810.5 1042.5 c 128,-1,105
 824 983 824 983 824 894 c 0,106,107
 824 860 824 860 805.5 825 c 128,-1,108
 787 790 787 790 764.5 764 c 128,-1,109
 742 738 742 738 722.5 700.5 c 128,-1,110
 703 663 703 663 701 624 c 0,18,19
EndSplineSet
EndChar

StartChar: u1171D
Encoding: 71453 71453 39
Width: 179
Flags: W
LayerCount: 2
Fore
SplineSet
-650 -476 m 0,0,1
 -656 -476 -656 -476 -665.5 -477 c 128,-1,2
 -675 -478 -675 -478 -679 -478 c 0,3,4
 -725 -478 -725 -478 -774 -462 c 2,5,-1
 -865 -431 l 1,6,7
 -942 -411 -942 -411 -1011 -350 c 128,-1,8
 -1080 -289 -1080 -289 -1115 -230 c 128,-1,9
 -1150 -171 -1150 -171 -1150 -137 c 0,10,11
 -1150 -113 -1150 -113 -1123.5 -105.5 c 128,-1,12
 -1097 -98 -1097 -98 -1068 -128 c 1,13,-1
 -1024 -194 l 1,14,-1
 -971 -238 l 1,15,16
 -817 -357 -817 -357 -706 -357 c 0,17,18
 -664 -357 -664 -357 -621 -339.5 c 128,-1,19
 -578 -322 -578 -322 -540.5 -291.5 c 128,-1,20
 -503 -261 -503 -261 -470.5 -227.5 c 128,-1,21
 -438 -194 -438 -194 -409 -154 c 128,-1,22
 -380 -114 -380 -114 -361 -85.5 c 128,-1,23
 -342 -57 -342 -57 -325 -28.5 c 128,-1,24
 -308 0 -308 0 -306 3 c 1,25,26
 -259 22 -259 22 -250 22 c 0,27,28
 -225 22 -225 22 -203 -11 c 1,29,-1
 -199 -24 l 1,30,31
 -204 -47 -204 -47 -249 -122.5 c 128,-1,32
 -294 -198 -294 -198 -342 -252 c 2,33,-1
 -432 -356 l 1,34,35
 -479 -407 -479 -407 -528.5 -436 c 128,-1,36
 -578 -465 -578 -465 -650 -476 c 0,0,1
EndSplineSet
EndChar

StartChar: u1171E
Encoding: 71454 71454 40
Width: 179
Flags: W
LayerCount: 2
Fore
SplineSet
1244 932 m 1,0,1
 1258 932 1258 932 1281.5 915.5 c 128,-1,2
 1305 899 1305 899 1305 879 c 0,3,4
 1305 867 1305 867 1294 855 c 1,5,-1
 1274 837 l 1,6,-1
 1251 829 l 1,7,-1
 1224 827 l 1,8,-1
 1209 827 l 1,9,-1
 1198 830 l 1,10,-1
 1161 844 l 1,11,-1
 1142 857 l 1,12,-1
 1143 869 l 1,13,14
 1143 869 1143 869 1087 883 c 1,15,-1
 898 906 l 1,16,-1
 829 911 l 1,17,-1
 744 914 l 1,18,-1
 687 912 l 1,19,-1
 660 912 l 2,20,21
 647 912 647 912 637 910 c 1,22,23
 603 910 603 910 581 905 c 2,24,-1
 544 895 l 1,25,26
 489 884 489 884 436.5 862.5 c 128,-1,27
 384 841 384 841 365 830.5 c 128,-1,28
 346 820 346 820 340 815 c 1,29,30
 324 810 324 810 302 790 c 1,31,32
 270 768 270 768 200 589 c 1,33,-1
 190 564 l 1,34,-1
 167 441 l 1,35,36
 155 330 155 330 155 234 c 0,37,38
 155 116 155 116 166 52 c 2,39,-1
 178 -19 l 1,40,41
 184 -37 184 -37 184 -49 c 1,42,-1
 196 -67 l 1,43,-1
 213 -99 l 1,44,-1
 235 -129 l 2,45,46
 244 -141 244 -141 273 -168 c 1,47,-1
 382 -246 l 1,48,-1
 456 -282 l 1,49,50
 498 -295 498 -295 529 -295 c 0,51,52
 557 -295 557 -295 606.5 -282 c 128,-1,53
 656 -269 656 -269 678 -254 c 1,54,55
 701 -247 701 -247 710 -239 c 1,56,57
 726 -234 726 -234 743 -221 c 1,58,-1
 822 -197 l 1,59,-1
 885 -160 l 1,60,-1
 915 -147 l 1,61,62
 930 -142 930 -142 942 -140 c 1,63,64
 993 -140 993 -140 1008 -191 c 1,65,66
 1008 -218 1008 -218 943 -259 c 1,67,-1
 826 -329 l 1,68,-1
 739 -372 l 1,69,-1
 661 -400 l 1,70,-1
 624 -407 l 1,71,-1
 588 -413 l 1,72,-1
 548 -414 l 1,73,74
 352 -414 352 -414 238 -309 c 2,75,-1
 200 -274 l 1,76,-1
 132 -197 l 1,77,-1
 96 -137 l 1,78,-1
 67 -72 l 1,79,80
 56 -39 56 -39 36 59 c 1,81,-1
 29 135 l 2,82,83
 25 169 25 169 25 222 c 2,84,-1
 26 285 l 1,85,-1
 29 333 l 1,86,-1
 31 384 l 1,87,-1
 40 444 l 1,88,89
 55 568 55 568 87.5 651.5 c 128,-1,90
 120 735 120 735 211 862 c 0,91,92
 224 881 224 881 231 889.5 c 128,-1,93
 238 898 238 898 275 921 c 128,-1,94
 312 944 312 944 371 968 c 1,95,-1
 417 983 l 1,96,-1
 483 1000 l 2,97,98
 523 1011 523 1011 551 1014 c 1,99,-1
 609 1025 l 1,100,-1
 672 1030 l 1,101,-1
 742 1031 l 1,102,-1
 822 1030 l 2,103,104
 858 1030 858 1030 902 1024 c 1,105,-1
 936 1022 l 1,106,-1
 986 1017 l 1,107,-1
 1026 1011 l 1,108,-1
 1067 1003 l 1,109,110
 1113 997 1113 997 1141 978 c 1,111,-1
 1162 968 l 2,112,113
 1172 963 1172 963 1176 960 c 1,114,-1
 1232 939 l 1,115,-1
 1244 932 l 1,0,1
EndSplineSet
EndChar

StartChar: u1171F
Encoding: 71455 71455 41
Width: 1153
Flags: W
LayerCount: 2
Fore
SplineSet
808 1029 m 0,0,1
 831 1029 831 1029 858 1024.5 c 128,-1,2
 885 1020 885 1020 912 1010 c 128,-1,3
 939 1000 939 1000 960.5 986.5 c 128,-1,4
 982 973 982 973 996 954 c 128,-1,5
 1010 935 1010 935 1010 913 c 0,6,7
 1010 886 1010 886 985 867 c 1,8,9
 972 859 972 859 953 856 c 1,10,-1
 896 885 l 1,11,12
 825 916 825 916 789 916 c 0,13,14
 730 916 730 916 672 879.5 c 128,-1,15
 614 843 614 843 614 796 c 0,16,17
 614 779 614 779 615 756.5 c 128,-1,18
 616 734 616 734 625.5 688.5 c 128,-1,19
 635 643 635 643 653 620 c 0,20,21
 669 598 669 598 694.5 550.5 c 128,-1,22
 720 503 720 503 720 488 c 0,23,24
 720 479 720 479 717.5 465 c 128,-1,25
 715 451 715 451 710.5 435.5 c 128,-1,26
 706 420 706 420 698 409 c 128,-1,27
 690 398 690 398 681 398 c 0,28,29
 670 398 670 398 646.5 436 c 128,-1,30
 623 474 623 474 594 525.5 c 128,-1,31
 565 577 565 577 554 593 c 0,32,33
 545 606 545 606 535.5 634 c 128,-1,34
 526 662 526 662 518 693 c 128,-1,35
 510 724 510 724 505 754.5 c 128,-1,36
 500 785 500 785 500 803 c 0,37,38
 500 876 500 876 583 947 c 0,39,40
 680 1029 680 1029 808 1029 c 0,0,1
EndSplineSet
EndChar

StartChar: u11720
Encoding: 71456 71456 42
Width: 519
Flags: W
LayerCount: 2
Fore
SplineSet
569 625 m 1,0,-1
 527 567 l 1,1,2
 474 499 474 499 425.5 455 c 128,-1,3
 377 411 377 411 337 394 c 128,-1,4
 297 377 297 377 272 372 c 128,-1,5
 247 367 247 367 215 367 c 0,6,7
 147 367 147 367 99 378 c 1,8,-1
 98 382 l 1,9,10
 109 386 109 386 137 397 c 128,-1,11
 165 408 165 408 174.5 411.5 c 128,-1,12
 184 415 184 415 208.5 426 c 128,-1,13
 233 437 233 437 246 445.5 c 128,-1,14
 259 454 259 454 284 469.5 c 128,-1,15
 309 485 309 485 330.5 503 c 128,-1,16
 352 521 352 521 381.5 546 c 128,-1,17
 411 571 411 571 444 602 c 1,18,-1
 569 625 l 1,0,-1
533 41 m 1,19,-1
 405 41 l 1,20,21
 307 139 307 139 249 177.5 c 128,-1,22
 191 216 191 216 108 247 c 1,23,-1
 52 266 l 1,24,25
 68 268 68 268 78 268 c 0,26,27
 119 271 119 271 139 271 c 0,28,29
 175 271 175 271 202.5 266.5 c 128,-1,30
 230 262 230 262 273.5 246 c 128,-1,31
 317 230 317 230 370 191.5 c 128,-1,32
 423 153 423 153 483 93 c 1,33,-1
 533 41 l 1,19,-1
EndSplineSet
EndChar

StartChar: u11721
Encoding: 71457 71457 43
Width: 510
Flags: W
LayerCount: 2
Fore
SplineSet
-225 850 m 0,0,1
 -216 850 -216 850 -167.5 846 c 128,-1,2
 -119 842 -119 842 -99 842 c 0,3,4
 -40 842 -40 842 13.5 832.5 c 128,-1,5
 67 823 67 823 120 802 c 128,-1,6
 173 781 173 781 210 739 c 128,-1,7
 247 697 247 697 261 639 c 0,8,9
 273 587 273 587 273 498 c 0,10,11
 273 428 273 428 258 330 c 2,12,-1
 228 130 l 2,13,14
 213 27 213 27 213 -45 c 0,15,16
 213 -201 213 -201 273 -289 c 1,17,-1
 336 -384 l 1,18,19
 389 -454 389 -454 483 -454 c 1,20,21
 504 -455 504 -455 514 -455 c 0,22,23
 560 -455 560 -455 608.5 -442 c 128,-1,24
 657 -429 657 -429 697.5 -412 c 128,-1,25
 738 -395 738 -395 847 -345 c 1,26,27
 775 -431 775 -431 699.5 -477.5 c 128,-1,28
 624 -524 624 -524 511 -524 c 0,29,30
 439 -524 439 -524 378.5 -506 c 128,-1,31
 318 -488 318 -488 278 -458 c 128,-1,32
 238 -428 238 -428 213 -398.5 c 128,-1,33
 188 -369 188 -369 172 -336 c 1,34,-1
 126 -228 l 2,35,36
 94 -152 94 -152 94 36 c 0,37,38
 94 145 94 145 103 312.5 c 128,-1,39
 112 480 112 480 112 533 c 0,40,41
 112 674 112 674 70 720 c 1,42,43
 36 753 36 753 -50.5 761 c 128,-1,44
 -137 769 -137 769 -160 780 c 0,45,46
 -172 786 -172 786 -195 786 c 0,47,48
 -205 786 -205 786 -220 785 c 128,-1,49
 -235 784 -235 784 -236 784 c 0,50,51
 -259 784 -259 784 -267.5 791 c 128,-1,52
 -276 798 -276 798 -276 818 c 0,53,54
 -276 850 -276 850 -225 850 c 0,0,1
EndSplineSet
EndChar

StartChar: u11722
Encoding: 71458 71458 44
Width: 165
Flags: W
LayerCount: 2
Fore
SplineSet
-25 581 m 1,0,1
 -113 653 -113 653 -187 763 c 128,-1,2
 -261 873 -261 873 -261 926 c 0,3,4
 -261 1087 -261 1087 -196 1191 c 0,5,6
 -171 1232 -171 1232 -118.5 1258.5 c 128,-1,7
 -66 1285 -66 1285 -30 1285 c 0,8,9
 98 1285 98 1285 147 1222 c 1,10,11
 191 1171 191 1171 204.5 1111.5 c 128,-1,12
 218 1052 218 1052 218 963 c 0,13,14
 218 893 218 893 182.5 823 c 128,-1,15
 147 753 147 753 72 650 c 1,16,17
 44 614 44 614 29 603.5 c 128,-1,18
 14 593 14 593 -25 581 c 1,0,1
-52 747 m 0,19,20
 -1 747 -1 747 30.5 803 c 128,-1,21
 62 859 62 859 62 946 c 0,22,23
 62 1002 62 1002 49.5 1055 c 128,-1,24
 37 1108 37 1108 8 1147.5 c 128,-1,25
 -21 1187 -21 1187 -61 1187 c 0,26,27
 -91 1187 -91 1187 -113 1164.5 c 128,-1,28
 -135 1142 -135 1142 -146 1106.5 c 128,-1,29
 -157 1071 -157 1071 -162 1037 c 128,-1,30
 -167 1003 -167 1003 -167 970 c 2,31,-1
 -167 950 l 1,32,33
 -165 938 -165 938 -165 933 c 0,34,35
 -165 862 -165 862 -133.5 804.5 c 128,-1,36
 -102 747 -102 747 -52 747 c 0,19,20
EndSplineSet
EndChar

StartChar: u11723
Encoding: 71459 71459 45
Width: 165
Flags: W
LayerCount: 2
Fore
SplineSet
-25 581 m 1,0,1
 -113 653 -113 653 -187 763 c 128,-1,2
 -261 873 -261 873 -261 926 c 0,3,4
 -261 1087 -261 1087 -196 1191 c 0,5,6
 -171 1232 -171 1232 -118.5 1258.5 c 128,-1,7
 -66 1285 -66 1285 -30 1285 c 0,8,9
 98 1285 98 1285 147 1222 c 1,10,11
 191 1171 191 1171 204.5 1111.5 c 128,-1,12
 218 1052 218 1052 218 963 c 0,13,14
 218 893 218 893 182.5 823 c 128,-1,15
 147 753 147 753 72 650 c 1,16,17
 44 614 44 614 29 603.5 c 128,-1,18
 14 593 14 593 -25 581 c 1,0,1
-177 969 m 0,19,20
 -147 969 -147 969 -55 979.5 c 128,-1,21
 37 990 37 990 84 998 c 1,22,23
 80 1044 80 1044 62 1092 c 128,-1,24
 44 1140 44 1140 12.5 1176 c 128,-1,25
 -19 1212 -19 1212 -54 1212 c 0,26,27
 -106 1212 -106 1212 -147.5 1129.5 c 128,-1,28
 -189 1047 -189 1047 -189 971 c 1,29,30
 -182 969 -182 969 -177 969 c 0,19,20
-186 927 m 1,31,32
 -186 863 -186 863 -141.5 794.5 c 128,-1,33
 -97 726 -97 726 -45 726 c 0,34,35
 0 726 0 726 45 796.5 c 128,-1,36
 90 867 90 867 90 963 c 1,37,-1
 -36 948 l 2,38,39
 -94 942 -94 942 -186 927 c 1,31,32
EndSplineSet
EndChar

StartChar: u11724
Encoding: 71460 71460 46
Width: 259
Flags: W
LayerCount: 2
Fore
SplineSet
-50 280 m 1,0,1
 -59 125 -59 125 -59 1 c 0,2,3
 -59 -207 -59 -207 -30 -255 c 0,4,5
 -28 -259 -28 -259 -20 -273 c 128,-1,6
 -12 -287 -12 -287 -9 -292 c 128,-1,7
 -6 -297 -6 -297 2.5 -308.5 c 128,-1,8
 11 -320 11 -320 17 -324.5 c 128,-1,9
 23 -329 23 -329 33.5 -336.5 c 128,-1,10
 44 -344 44 -344 55 -347 c 128,-1,11
 66 -350 66 -350 81.5 -352.5 c 128,-1,12
 97 -355 97 -355 115 -355 c 0,13,14
 163 -355 163 -355 259 -287 c 1,15,-1
 343 -238 l 1,16,17
 350 -281 350 -281 304 -322.5 c 128,-1,18
 258 -364 258 -364 190.5 -388.5 c 128,-1,19
 123 -413 123 -413 63 -413 c 0,20,21
 16 -413 16 -413 -30 -388 c 128,-1,22
 -76 -363 -76 -363 -110.5 -325 c 128,-1,23
 -145 -287 -145 -287 -168.5 -244.5 c 128,-1,24
 -192 -202 -192 -202 -200 -164 c 0,25,26
 -211 -110 -211 -110 -211 -48 c 0,27,28
 -211 -11 -211 -11 -199 112 c 1,29,30
 -163 192 -163 192 -143.5 218.5 c 128,-1,31
 -124 245 -124 245 -109 245 c 128,-1,32
 -94 245 -94 245 -76.5 264.5 c 128,-1,33
 -59 284 -59 284 -57 284 c 0,34,35
 -53 284 -53 284 -50 280 c 1,0,1
EndSplineSet
EndChar

StartChar: u11725
Encoding: 71461 71461 47
Width: 51
Flags: W
LayerCount: 2
Fore
SplineSet
114 -540 m 0,0,1
 165 -540 165 -540 214 -516.5 c 128,-1,2
 263 -493 263 -493 287.5 -471.5 c 128,-1,3
 312 -450 312 -450 312 -447 c 1,4,5
 312 -510 312 -510 250.5 -547.5 c 128,-1,6
 189 -585 189 -585 93 -585 c 0,7,8
 15 -585 15 -585 -23.5 -567 c 128,-1,9
 -62 -549 -62 -549 -96 -510 c 0,10,11
 -106 -499 -106 -499 -66 -471 c 1,12,-1
 16 -516 l 2,13,14
 61 -540 61 -540 114 -540 c 0,0,1
-50 280 m 1,15,16
 -59 125 -59 125 -59 1 c 0,17,18
 -59 -207 -59 -207 -30 -255 c 0,19,20
 -28 -259 -28 -259 -20 -273 c 128,-1,21
 -12 -287 -12 -287 -9 -292 c 128,-1,22
 -6 -297 -6 -297 2.5 -308.5 c 128,-1,23
 11 -320 11 -320 17 -324.5 c 128,-1,24
 23 -329 23 -329 33.5 -336.5 c 128,-1,25
 44 -344 44 -344 55 -347 c 128,-1,26
 66 -350 66 -350 81.5 -352.5 c 128,-1,27
 97 -355 97 -355 115 -355 c 0,28,29
 163 -355 163 -355 259 -287 c 1,30,-1
 343 -238 l 1,31,32
 350 -281 350 -281 304 -322.5 c 128,-1,33
 258 -364 258 -364 190.5 -388.5 c 128,-1,34
 123 -413 123 -413 63 -413 c 0,35,36
 16 -413 16 -413 -30 -388 c 128,-1,37
 -76 -363 -76 -363 -110.5 -325 c 128,-1,38
 -145 -287 -145 -287 -168.5 -244.5 c 128,-1,39
 -192 -202 -192 -202 -200 -164 c 0,40,41
 -211 -110 -211 -110 -211 -48 c 0,42,43
 -211 -11 -211 -11 -199 112 c 1,44,45
 -163 192 -163 192 -143.5 218.5 c 128,-1,46
 -124 245 -124 245 -109 245 c 128,-1,47
 -94 245 -94 245 -76.5 264.5 c 128,-1,48
 -59 284 -59 284 -57 284 c 0,49,50
 -53 284 -53 284 -50 280 c 1,15,16
EndSplineSet
EndChar

StartChar: u11726
Encoding: 71462 71462 48
Width: 872
Flags: W
LayerCount: 2
Fore
SplineSet
1425 961 m 1,0,1
 1361 980 1361 980 1227 980 c 0,2,3
 1206 980 1206 980 1152.5 964.5 c 128,-1,4
 1099 949 1099 949 1026.5 920.5 c 128,-1,5
 954 892 954 892 871 838.5 c 128,-1,6
 788 785 788 785 727 720 c 0,7,8
 565 550 565 550 421 254 c 1,9,-1
 368 139 l 1,10,11
 372 131 372 131 378 105.5 c 128,-1,12
 384 80 384 80 384 59 c 0,13,14
 384 32 384 32 364 8 c 128,-1,15
 344 -16 344 -16 315 -16 c 0,16,17
 302 -16 302 -16 293 -12 c 128,-1,18
 284 -8 284 -8 275 5.5 c 128,-1,19
 266 19 266 19 262 27.5 c 128,-1,20
 258 36 258 36 247 61 c 1,21,22
 242 88 242 88 209 189 c 2,23,-1
 143 389 l 2,24,25
 127 439 127 439 115 482 c 128,-1,26
 103 525 103 525 97.5 544.5 c 128,-1,27
 92 564 92 564 88.5 579.5 c 128,-1,28
 85 595 85 595 79.5 602 c 128,-1,29
 74 609 74 609 69 613.5 c 128,-1,30
 64 618 64 618 48 628 c 2,31,-1
 -25 675 l 1,32,33
 -26 681 -26 681 -15 687 c 128,-1,34
 -4 693 -4 693 15 697 c 128,-1,35
 34 701 34 701 56 704 c 128,-1,36
 78 707 78 707 98.5 708.5 c 128,-1,37
 119 710 119 710 133 710 c 2,38,-1
 153 710 l 2,39,40
 154 710 154 710 170 708 c 128,-1,41
 186 706 186 706 203.5 701 c 128,-1,42
 221 696 221 696 239 686 c 1,43,-1
 287 452 l 1,44,-1
 343 228 l 1,45,-1
 389 329 l 2,46,47
 516 606 516 606 667 760 c 0,48,49
 758 853 758 853 803.5 895.5 c 128,-1,50
 849 938 849 938 910.5 982 c 128,-1,51
 972 1026 972 1026 1030 1047 c 128,-1,52
 1088 1068 1088 1068 1172 1085 c 0,53,54
 1174 1085 1174 1085 1221 1097 c 128,-1,55
 1268 1109 1268 1109 1289 1109 c 0,56,57
 1316 1109 1316 1109 1353 1095 c 128,-1,58
 1390 1081 1390 1081 1423.5 1047 c 128,-1,59
 1457 1013 1457 1013 1457 970 c 1,60,61
 1438 961 1438 961 1425 961 c 1,0,1
EndSplineSet
EndChar

StartChar: u11727
Encoding: 71463 71463 49
Width: 433
Flags: W
LayerCount: 2
Fore
SplineSet
-124 392 m 1,0,1
 -83 405 -83 405 -42 429 c 128,-1,2
 -1 453 -1 453 39 488.5 c 128,-1,3
 79 524 79 524 104.5 575.5 c 128,-1,4
 130 627 130 627 130 684 c 0,5,6
 130 757 130 757 84 850 c 1,7,-1
 15 980 l 1,8,9
 -33 1096 -33 1096 -33 1222 c 0,10,11
 -33 1297 -33 1297 -10 1343 c 128,-1,12
 13 1389 13 1389 86 1453 c 0,13,14
 138 1499 138 1499 188 1529 c 128,-1,15
 238 1559 238 1559 274 1575.5 c 128,-1,16
 310 1592 310 1592 321 1601 c 0,17,18
 338 1614 338 1614 345 1614 c 0,19,20
 371 1614 371 1614 315 1567 c 0,21,22
 302 1555 302 1555 268 1527 c 0,23,24
 137 1422 137 1422 102 1373 c 0,25,26
 83 1347 83 1347 80 1328 c 0,27,28
 76 1291 76 1291 76 1262 c 0,29,30
 76 1217 76 1217 89.5 1172 c 128,-1,31
 103 1127 103 1127 125.5 1078.5 c 128,-1,32
 148 1030 148 1030 155 1010 c 0,33,34
 165 979 165 979 197.5 909.5 c 128,-1,35
 230 840 230 840 252.5 778.5 c 128,-1,36
 275 717 275 717 275 673 c 0,37,38
 275 596 275 596 216 537 c 128,-1,39
 157 478 157 478 -2 400 c 0,40,41
 -73 365 -73 365 -87 365 c 0,42,43
 -107 365 -107 365 -123 381 c 1,44,45
 -123 386 -123 386 -124 392 c 1,0,1
EndSplineSet
EndChar

StartChar: u11728
Encoding: 71464 71464 50
Width: 165
Flags: W
LayerCount: 2
Fore
SplineSet
-45 39 m 1,0,1
 43 -33 43 -33 117 -143 c 128,-1,2
 191 -253 191 -253 191 -306 c 0,3,4
 191 -467 191 -467 126 -571 c 0,5,6
 101 -612 101 -612 48.5 -638.5 c 128,-1,7
 -4 -665 -4 -665 -40 -665 c 0,8,9
 -168 -665 -168 -665 -217 -602 c 1,10,11
 -261 -551 -261 -551 -274.5 -491.5 c 128,-1,12
 -288 -432 -288 -432 -288 -343 c 0,13,14
 -288 -273 -288 -273 -252.5 -203 c 128,-1,15
 -217 -133 -217 -133 -142 -30 c 1,16,17
 -114 6 -114 6 -99 16.5 c 128,-1,18
 -84 27 -84 27 -45 39 c 1,0,1
-45 -115 m 0,19,20
 -94 -115 -94 -115 -142 -176.5 c 128,-1,21
 -190 -238 -190 -238 -190 -330 c 2,22,-1
 -190 -354 l 2,23,24
 -190 -367 -190 -367 -191 -381 c 1,25,26
 -191 -466 -191 -466 -154.5 -513 c 128,-1,27
 -118 -560 -118 -560 -25 -560 c 0,28,29
 29 -560 29 -560 62.5 -490 c 128,-1,30
 96 -420 96 -420 96 -337 c 0,31,32
 96 -320 96 -320 95 -313 c 1,33,34
 95 -250 95 -250 51 -182.5 c 128,-1,35
 7 -115 7 -115 -45 -115 c 0,19,20
EndSplineSet
EndChar

StartChar: u11729
Encoding: 71465 71465 51
Width: 0
Flags: W
LayerCount: 2
Fore
SplineSet
-655 1082 m 0,0,1
 -655 1102 -655 1102 -558.5 1153 c 128,-1,2
 -462 1204 -462 1204 -414 1204 c 0,3,4
 -353 1204 -353 1204 -307.5 1196.5 c 128,-1,5
 -262 1189 -262 1189 -229 1171.5 c 128,-1,6
 -196 1154 -196 1154 -179.5 1141.5 c 128,-1,7
 -163 1129 -163 1129 -138 1104 c 1,8,9
 -105 1074 -105 1074 -87.5 1050.5 c 128,-1,10
 -70 1027 -70 1027 -57 984.5 c 128,-1,11
 -44 942 -44 942 -44 884 c 0,12,13
 -44 821 -44 821 -60 738 c 1,14,-1
 -74 656 l 1,15,16
 -84 615 -84 615 -104.5 589.5 c 128,-1,17
 -125 564 -125 564 -141 564 c 0,18,19
 -151 564 -151 564 -178 578.5 c 128,-1,20
 -205 593 -205 593 -205 605 c 0,21,22
 -205 608 -205 608 -190 716 c 128,-1,23
 -175 824 -175 824 -175 870 c 0,24,25
 -175 881 -175 881 -174.5 897 c 128,-1,26
 -174 913 -174 913 -174 924 c 0,27,28
 -174 1021 -174 1021 -215 1055 c 0,29,30
 -247 1082 -247 1082 -270 1098 c 128,-1,31
 -293 1114 -293 1114 -330.5 1130 c 128,-1,32
 -368 1146 -368 1146 -401 1146 c 0,33,34
 -436 1146 -436 1146 -519.5 1107.5 c 128,-1,35
 -603 1069 -603 1069 -626 1069 c 0,36,37
 -655 1069 -655 1069 -655 1082 c 0,0,1
EndSplineSet
EndChar

StartChar: u1172A
Encoding: 71466 71466 52
Width: 24
Flags: W
LayerCount: 2
Fore
SplineSet
30 1139 m 0,0,1
 35 1139 35 1139 43 1137.5 c 128,-1,2
 51 1136 51 1136 53 1136 c 0,3,4
 81 1130 81 1130 81 1079 c 0,5,6
 81 1043 81 1043 70.5 996.5 c 128,-1,7
 60 950 60 950 39 901.5 c 128,-1,8
 18 853 18 853 -20 820 c 128,-1,9
 -58 787 -58 787 -106 787 c 1,10,11
 -144 791 -144 791 -187 834 c 1,12,13
 -213 945 -213 945 -233 1000 c 256,14,15
 -253 1055 -253 1055 -287 1107 c 1,16,17
 -272 1111 -272 1111 -248 1114 c 2,18,-1
 -217 1119 l 1,19,-1
 -203 1119 l 2,20,21
 -179 1119 -179 1119 -173.5 1112.5 c 128,-1,22
 -168 1106 -168 1106 -167 1091 c 1,23,-1
 -167 1086 l 1,24,25
 -114 1098 -114 1098 -75.5 1109.5 c 128,-1,26
 -37 1121 -37 1121 -23 1126.5 c 128,-1,27
 -9 1132 -9 1132 4 1135.5 c 128,-1,28
 17 1139 17 1139 30 1139 c 0,0,1
21 1037 m 0,29,30
 21 1051 21 1051 16 1054.5 c 128,-1,31
 11 1058 11 1058 -7 1058 c 0,32,33
 -84 1058 -84 1058 -164 1026 c 1,34,35
 -164 989 -164 989 -156.5 930.5 c 128,-1,36
 -149 872 -149 872 -143 866 c 0,37,38
 -131 851 -131 851 -119 844.5 c 128,-1,39
 -107 838 -107 838 -98.5 837 c 128,-1,40
 -90 836 -90 836 -79.5 842.5 c 128,-1,41
 -69 849 -69 849 -64.5 853 c 128,-1,42
 -60 857 -60 857 -51.5 867 c 128,-1,43
 -43 877 -43 877 -42 878 c 0,44,45
 -19 900 -19 900 1 953.5 c 128,-1,46
 21 1007 21 1007 21 1037 c 0,29,30
EndSplineSet
EndChar

StartChar: u1172B
Encoding: 71467 71467 53
Width: 16
Flags: W
LayerCount: 2
Fore
SplineSet
20 1256 m 0,0,1
 36 1256 36 1256 56 1250.5 c 128,-1,2
 76 1245 76 1245 76 1241 c 0,3,4
 76 1236 76 1236 35 1209 c 2,5,-1
 -210 1054 l 1,6,7
 -310 974 -310 974 -333 946 c 0,8,9
 -355 918 -355 918 -350 901 c 1,10,-1
 -308 909 l 1,11,12
 -286 909 -286 909 -268 889.5 c 128,-1,13
 -250 870 -250 870 -250 840 c 0,14,15
 -250 807 -250 807 -269 783 c 128,-1,16
 -288 759 -288 759 -323 759 c 0,17,18
 -407 759 -407 759 -407 857 c 0,19,20
 -407 919 -407 919 -359.5 989.5 c 128,-1,21
 -312 1060 -312 1060 -237 1109 c 1,22,23
 -52 1256 -52 1256 20 1256 c 0,0,1
EndSplineSet
EndChar

StartChar: u11730
Encoding: 71472 71472 54
Width: 908
Flags: W
LayerCount: 2
Fore
SplineSet
356 29 m 0,0,1
 393 29 393 29 444.5 82 c 128,-1,2
 496 135 496 135 535.5 215.5 c 128,-1,3
 575 296 575 296 575 364 c 0,4,5
 575 393 575 393 579 429 c 1,6,7
 579 456 579 456 565 473.5 c 128,-1,8
 551 491 551 491 534 491 c 0,9,10
 491 491 491 491 414.5 425 c 128,-1,11
 338 359 338 359 279.5 281 c 128,-1,12
 221 203 221 203 221 170 c 0,13,14
 221 112 221 112 262 70.5 c 128,-1,15
 303 29 303 29 356 29 c 0,0,1
514 599 m 0,16,17
 582 599 582 599 636.5 539.5 c 128,-1,18
 691 480 691 480 691 407 c 0,19,20
 691 337 691 337 650.5 228.5 c 128,-1,21
 610 120 610 120 543 45 c 0,22,23
 512 11 512 11 499.5 -2 c 128,-1,24
 487 -15 487 -15 463 -34.5 c 128,-1,25
 439 -54 439 -54 416.5 -60.5 c 128,-1,26
 394 -67 394 -67 366 -67 c 2,27,-1
 351 -67 l 1,28,29
 340 -65 340 -65 335 -65 c 0,30,31
 246 -56 246 -56 201 -5 c 128,-1,32
 156 46 156 46 139 160 c 0,33,34
 138 165 138 165 138 176 c 0,35,36
 138 236 138 236 202 337.5 c 128,-1,37
 266 439 266 439 357 519 c 128,-1,38
 448 599 448 599 514 599 c 0,16,17
EndSplineSet
EndChar

StartChar: u11731
Encoding: 71473 71473 55
Width: 871
Flags: W
LayerCount: 2
Fore
SplineSet
205 500 m 0,0,1
 165 506 165 506 137.5 539 c 128,-1,2
 110 572 110 572 110 609 c 0,3,4
 110 676 110 676 210 676 c 0,5,6
 264 676 264 676 347 709.5 c 128,-1,7
 430 743 430 743 510 810 c 0,8,9
 571 861 571 861 653 990 c 1,10,11
 669 998 669 998 679 1000.5 c 128,-1,12
 689 1003 689 1003 697.5 994.5 c 128,-1,13
 706 986 706 986 706 963 c 2,14,15
 706 963 706 963 706 956 c 2,16,-1
 706 950 l 2,17,18
 706 949 706 949 705.5 944.5 c 128,-1,19
 705 940 705 940 703 936 c 128,-1,20
 701 932 701 932 698 925 c 128,-1,21
 695 918 695 918 690 909.5 c 128,-1,22
 685 901 685 901 678 889 c 128,-1,23
 671 877 671 877 661 861 c 0,24,25
 552 685 552 685 446 612 c 1,26,-1
 332 530 l 1,27,28
 281 498 281 498 232 498 c 2,29,-1
 220 498 l 1,30,31
 210 500 210 500 205 500 c 0,0,1
715 215 m 0,32,33
 715 190 715 190 707.5 129 c 128,-1,34
 700 68 700 68 700 58 c 0,35,36
 700 25 700 25 708.5 7.5 c 128,-1,37
 717 -10 717 -10 738 -23 c 2,38,-1
 788 -52 l 1,39,40
 811 -67 811 -67 811 -87 c 0,41,42
 811 -104 811 -104 790.5 -142 c 128,-1,43
 770 -180 770 -180 758 -181 c 1,44,45
 708 -181 708 -181 657 -153.5 c 128,-1,46
 606 -126 606 -126 588 -76 c 0,47,48
 587 -73 587 -73 581.5 -51.5 c 128,-1,49
 576 -30 576 -30 569.5 4.5 c 128,-1,50
 563 39 563 39 563 59 c 0,51,52
 563 89 563 89 575.5 153 c 128,-1,53
 588 217 588 217 590 236 c 0,54,55
 590 242 590 242 591 251.5 c 128,-1,56
 592 261 592 261 592 265 c 0,57,58
 592 359 592 359 524 412 c 0,59,60
 512 421 512 421 484.5 425.5 c 128,-1,61
 457 430 457 430 433 431.5 c 128,-1,62
 409 433 409 433 390 446 c 128,-1,63
 371 459 371 459 371 483 c 0,64,65
 371 511 371 511 412.5 536 c 128,-1,66
 454 561 454 561 512 561 c 0,67,68
 567 561 567 561 607.5 532.5 c 128,-1,69
 648 504 648 504 671 454 c 128,-1,70
 694 404 694 404 704.5 344.5 c 128,-1,71
 715 285 715 285 715 215 c 0,32,33
264 432 m 0,72,73
 291 432 291 432 336.5 361.5 c 128,-1,74
 382 291 382 291 382 239 c 0,75,76
 382 180 382 180 359.5 131 c 128,-1,77
 337 82 337 82 301.5 52.5 c 128,-1,78
 266 23 266 23 228 2 c 0,79,80
 188 -20 188 -20 150 -30 c 256,81,82
 112 -40 112 -40 90.5 -44 c 128,-1,83
 69 -48 69 -48 62 -48 c 0,84,85
 39 -48 39 -48 14.5 -30 c 128,-1,86
 -10 -12 -10 -12 -20 10 c 1,87,88
 97 70 97 70 157 110.5 c 128,-1,89
 217 151 217 151 231 171 c 128,-1,90
 245 191 245 191 245 215 c 0,91,92
 245 229 245 229 211.5 254.5 c 128,-1,93
 178 280 178 280 144 306.5 c 128,-1,94
 110 333 110 333 110 350 c 0,95,96
 110 382 110 382 165.5 407 c 128,-1,97
 221 432 221 432 264 432 c 0,72,73
EndSplineSet
EndChar

StartChar: u11732
Encoding: 71474 71474 56
Width: 1074
Flags: W
LayerCount: 2
Fore
SplineSet
278 77 m 0,0,1
 278 51 278 51 257 23 c 128,-1,2
 236 -5 236 -5 202 -5 c 0,3,4
 181 -5 181 -5 164 10.5 c 128,-1,5
 147 26 147 26 140.5 39.5 c 128,-1,6
 134 53 134 53 124 78 c 1,7,8
 119 107 119 107 94 206 c 2,9,-1
 44 404 l 2,10,11
 31 455 31 455 15 522 c 0,12,13
 7 557 7 557 3.5 570.5 c 128,-1,14
 0 584 0 584 -4 598.5 c 128,-1,15
 -8 613 -8 613 -12 617.5 c 128,-1,16
 -16 622 -16 622 -20 626 c 128,-1,17
 -24 630 -24 630 -34 636 c 0,18,19
 -38 638 -38 638 -40 640 c 2,20,-1
 -113 686 l 1,21,22
 -115 698 -115 698 -90 709.5 c 128,-1,23
 -65 721 -65 721 -32 727 c 128,-1,24
 1 733 1 733 25 733 c 2,25,-1
 38 733 l 2,26,27
 39 733 39 733 54.5 731 c 128,-1,28
 70 729 70 729 89.5 723.5 c 128,-1,29
 109 718 109 718 134 707 c 1,30,-1
 183 470 l 1,31,-1
 233 267 l 1,32,-1
 501 551 l 2,33,34
 576 631 576 631 598 649 c 0,35,36
 664 703 664 703 760 708 c 1,37,38
 760 708 760 708 782 708 c 0,39,40
 816 708 816 708 842 702.5 c 128,-1,41
 868 697 868 697 904 679 c 128,-1,42
 940 661 940 661 975.5 618.5 c 128,-1,43
 1011 576 1011 576 1044 510 c 0,44,45
 1083 432 1083 432 1083 367 c 0,46,47
 1083 308 1083 308 1050 218 c 128,-1,48
 1017 128 1017 128 960 64 c 0,49,50
 911 8 911 8 882.5 -10.5 c 128,-1,51
 854 -29 854 -29 811 -29 c 2,52,-1
 799 -29 l 1,53,54
 791 -27 791 -27 787 -27 c 0,55,56
 710 -19 710 -19 673.5 24.5 c 128,-1,57
 637 68 637 68 623 161 c 0,58,59
 622 165 622 165 622 173 c 0,60,61
 622 240 622 240 723 348.5 c 128,-1,62
 824 457 824 457 922 526 c 1,63,64
 848 596 848 596 792 596 c 0,65,66
 750 596 750 596 701.5 580 c 128,-1,67
 653 564 653 564 623 542 c 1,68,69
 577 506 577 506 494.5 425.5 c 128,-1,70
 412 345 412 345 396 315 c 1,71,72
 380 289 380 289 338.5 238.5 c 128,-1,73
 297 188 297 188 265 156 c 1,74,75
 278 106 278 106 278 77 c 0,0,1
804 52 m 0,76,77
 854 52 854 52 920.5 147.5 c 128,-1,78
 987 243 987 243 987 331 c 1,79,80
 989 365 989 365 989 373 c 0,81,82
 989 376 989 376 987 385.5 c 128,-1,83
 985 395 985 395 976 408 c 128,-1,84
 967 421 967 421 954 421 c 0,85,86
 919 421 919 421 855 369.5 c 128,-1,87
 791 318 791 318 741.5 257 c 128,-1,88
 692 196 692 196 692 169 c 0,89,90
 692 121 692 121 726 86.5 c 128,-1,91
 760 52 760 52 804 52 c 0,76,77
EndSplineSet
EndChar

StartChar: u11733
Encoding: 71475 71475 57
Width: 1413
Flags: W
LayerCount: 2
Fore
SplineSet
939 117 m 1,0,1
 972 146 972 146 1023 175 c 128,-1,2
 1074 204 1074 204 1112.5 226 c 128,-1,3
 1151 248 1151 248 1188 281 c 128,-1,4
 1225 314 1225 314 1245.5 367.5 c 128,-1,5
 1266 421 1266 421 1266 496 c 0,6,7
 1266 568 1266 568 1222 630 c 1,8,9
 1278 623 1278 623 1318 623 c 0,10,11
 1356 623 1356 623 1397 630 c 1,12,13
 1399 612 1399 612 1399 592 c 0,14,15
 1399 492 1399 492 1359 395 c 128,-1,16
 1319 298 1319 298 1242 240 c 0,17,18
 1207 213 1207 213 1102.5 160.5 c 128,-1,19
 998 108 998 108 948 72 c 1,20,21
 953 67 953 67 953 38 c 0,22,23
 953 19 953 19 946 10 c 128,-1,24
 939 1 939 1 908 -12 c 1,25,26
 882 -24 882 -24 857 -24 c 0,27,28
 818 -24 818 -24 806 -7 c 128,-1,29
 794 10 794 10 794 50 c 0,30,31
 794 86 794 86 797 142.5 c 128,-1,32
 800 199 800 199 800 211 c 0,33,34
 800 415 800 415 709 547 c 1,35,-1
 616 472 l 1,36,37
 552 398 552 398 469.5 285.5 c 128,-1,38
 387 173 387 173 368 139 c 1,39,40
 372 131 372 131 378 105.5 c 128,-1,41
 384 80 384 80 384 59 c 0,42,43
 384 32 384 32 364 8 c 128,-1,44
 344 -16 344 -16 315 -16 c 0,45,46
 302 -16 302 -16 293 -12 c 128,-1,47
 284 -8 284 -8 275 5.5 c 128,-1,48
 266 19 266 19 262 27.5 c 128,-1,49
 258 36 258 36 247 61 c 1,50,51
 242 88 242 88 209 189 c 2,52,-1
 143 389 l 2,53,54
 127 439 127 439 115 482 c 128,-1,55
 103 525 103 525 97.5 544.5 c 128,-1,56
 92 564 92 564 88.5 579.5 c 128,-1,57
 85 595 85 595 79.5 602 c 128,-1,58
 74 609 74 609 69 613.5 c 128,-1,59
 64 618 64 618 48 628 c 2,60,-1
 -25 675 l 1,61,62
 -26 681 -26 681 -15 687 c 128,-1,63
 -4 693 -4 693 15 697 c 128,-1,64
 34 701 34 701 56 704 c 128,-1,65
 78 707 78 707 98.5 708.5 c 128,-1,66
 119 710 119 710 133 710 c 2,67,-1
 153 710 l 2,68,69
 154 710 154 710 170 708 c 128,-1,70
 186 706 186 706 203.5 701 c 128,-1,71
 221 696 221 696 239 686 c 1,72,-1
 287 452 l 1,73,-1
 343 228 l 1,74,75
 350 237 350 237 438 340 c 2,76,-1
 581 508 l 1,77,78
 654 596 654 596 657 605 c 1,79,80
 697 621 697 621 805 631 c 1,81,82
 824 619 824 619 831.5 614 c 128,-1,83
 839 609 839 609 851 597.5 c 128,-1,84
 863 586 863 586 875 569 c 1,85,86
 883 516 883 516 894 431 c 1,87,-1
 939 117 l 1,0,1
1077 1119 m 0,88,89
 1082 1119 1082 1119 1090 1117.5 c 128,-1,90
 1098 1116 1098 1116 1100 1116 c 0,91,92
 1128 1110 1128 1110 1128 1059 c 0,93,94
 1128 1023 1128 1023 1117.5 976.5 c 128,-1,95
 1107 930 1107 930 1086 881.5 c 128,-1,96
 1065 833 1065 833 1027 800 c 128,-1,97
 989 767 989 767 941 767 c 1,98,99
 903 771 903 771 860 814 c 1,100,101
 834 925 834 925 814 980 c 128,-1,102
 794 1035 794 1035 760 1087 c 1,103,104
 775 1091 775 1091 799 1094 c 2,105,-1
 830 1099 l 1,106,-1
 844 1099 l 2,107,108
 868 1099 868 1099 873.5 1092.5 c 128,-1,109
 879 1086 879 1086 880 1071 c 1,110,111
 880 1071 880 1071 880 1066 c 1,112,113
 933 1078 933 1078 971.5 1089.5 c 128,-1,114
 1010 1101 1010 1101 1024 1106.5 c 128,-1,115
 1038 1112 1038 1112 1051 1115.5 c 128,-1,116
 1064 1119 1064 1119 1077 1119 c 0,88,89
1068 1017 m 0,117,118
 1068 1031 1068 1031 1063 1034.5 c 128,-1,119
 1058 1038 1058 1038 1040 1038 c 0,120,121
 963 1038 963 1038 883 1006 c 1,122,123
 883 969 883 969 890.5 910.5 c 128,-1,124
 898 852 898 852 904 846 c 0,125,126
 916 831 916 831 928 824.5 c 128,-1,127
 940 818 940 818 948.5 817 c 128,-1,128
 957 816 957 816 967.5 822.5 c 128,-1,129
 978 829 978 829 982.5 833 c 128,-1,130
 987 837 987 837 995.5 847 c 128,-1,131
 1004 857 1004 857 1005 858 c 0,132,133
 1028 880 1028 880 1048 933.5 c 128,-1,134
 1068 987 1068 987 1068 1017 c 0,117,118
EndSplineSet
EndChar

StartChar: u11734
Encoding: 71476 71476 58
Width: 1413
Flags: W
LayerCount: 2
Fore
SplineSet
939 117 m 1,0,1
 972 146 972 146 1023 175 c 128,-1,2
 1074 204 1074 204 1112.5 226 c 128,-1,3
 1151 248 1151 248 1188 281 c 128,-1,4
 1225 314 1225 314 1245.5 367.5 c 128,-1,5
 1266 421 1266 421 1266 496 c 0,6,7
 1266 568 1266 568 1222 630 c 1,8,9
 1278 623 1278 623 1318 623 c 0,10,11
 1356 623 1356 623 1397 630 c 1,12,13
 1399 612 1399 612 1399 592 c 0,14,15
 1399 492 1399 492 1359 395 c 128,-1,16
 1319 298 1319 298 1242 240 c 0,17,18
 1207 213 1207 213 1102.5 160.5 c 128,-1,19
 998 108 998 108 948 72 c 1,20,21
 953 67 953 67 953 38 c 0,22,23
 953 19 953 19 946 10 c 128,-1,24
 939 1 939 1 908 -12 c 1,25,26
 882 -24 882 -24 857 -24 c 0,27,28
 818 -24 818 -24 806 -7 c 128,-1,29
 794 10 794 10 794 50 c 0,30,31
 794 86 794 86 797 142.5 c 128,-1,32
 800 199 800 199 800 211 c 0,33,34
 800 415 800 415 709 547 c 1,35,-1
 616 472 l 1,36,37
 552 398 552 398 469.5 285.5 c 128,-1,38
 387 173 387 173 368 139 c 1,39,40
 372 131 372 131 378 105.5 c 128,-1,41
 384 80 384 80 384 59 c 0,42,43
 384 32 384 32 364 8 c 128,-1,44
 344 -16 344 -16 315 -16 c 0,45,46
 302 -16 302 -16 293 -12 c 128,-1,47
 284 -8 284 -8 275 5.5 c 128,-1,48
 266 19 266 19 262 27.5 c 128,-1,49
 258 36 258 36 247 61 c 1,50,51
 242 88 242 88 209 189 c 2,52,-1
 143 389 l 2,53,54
 127 439 127 439 115 482 c 128,-1,55
 103 525 103 525 97.5 544.5 c 128,-1,56
 92 564 92 564 88.5 579.5 c 128,-1,57
 85 595 85 595 79.5 602 c 128,-1,58
 74 609 74 609 69 613.5 c 128,-1,59
 64 618 64 618 48 628 c 2,60,-1
 -25 675 l 1,61,62
 -26 681 -26 681 -15 687 c 128,-1,63
 -4 693 -4 693 15 697 c 128,-1,64
 34 701 34 701 56 704 c 128,-1,65
 78 707 78 707 98.5 708.5 c 128,-1,66
 119 710 119 710 133 710 c 2,67,-1
 153 710 l 2,68,69
 154 710 154 710 170 708 c 128,-1,70
 186 706 186 706 203.5 701 c 128,-1,71
 221 696 221 696 239 686 c 1,72,-1
 287 452 l 1,73,-1
 343 228 l 1,74,75
 350 237 350 237 438 340 c 2,76,-1
 581 508 l 1,77,78
 654 596 654 596 657 605 c 1,79,80
 697 621 697 621 805 631 c 1,81,82
 824 619 824 619 831.5 614 c 128,-1,83
 839 609 839 609 851 597.5 c 128,-1,84
 863 586 863 586 875 569 c 1,85,86
 883 516 883 516 894 431 c 1,87,-1
 939 117 l 1,0,1
1192 581 m 1,88,89
 1104 653 1104 653 1030 763 c 128,-1,90
 956 873 956 873 956 926 c 0,91,92
 956 1087 956 1087 1021 1191 c 0,93,94
 1046 1232 1046 1232 1098.5 1258.5 c 128,-1,95
 1151 1285 1151 1285 1187 1285 c 0,96,97
 1315 1285 1315 1285 1364 1222 c 1,98,99
 1408 1171 1408 1171 1421.5 1111.5 c 128,-1,100
 1435 1052 1435 1052 1435 963 c 0,101,102
 1435 893 1435 893 1399.5 823 c 128,-1,103
 1364 753 1364 753 1289 650 c 1,104,105
 1261 614 1261 614 1246 603.5 c 128,-1,106
 1231 593 1231 593 1192 581 c 1,88,89
1040 969 m 0,107,108
 1070 969 1070 969 1162 979.5 c 128,-1,109
 1254 990 1254 990 1301 998 c 1,110,111
 1297 1044 1297 1044 1279 1092 c 128,-1,112
 1261 1140 1261 1140 1229.5 1176 c 128,-1,113
 1198 1212 1198 1212 1163 1212 c 0,114,115
 1111 1212 1111 1212 1069.5 1129.5 c 128,-1,116
 1028 1047 1028 1047 1028 971 c 1,117,118
 1035 969 1035 969 1040 969 c 0,107,108
1031 927 m 1,119,120
 1031 863 1031 863 1075.5 794.5 c 128,-1,121
 1120 726 1120 726 1172 726 c 0,122,123
 1217 726 1217 726 1262 796.5 c 128,-1,124
 1307 867 1307 867 1307 963 c 1,125,-1
 1180 948 l 2,126,127
 1123 942 1123 942 1031 927 c 1,119,120
EndSplineSet
EndChar

StartChar: u11735
Encoding: 71477 71477 59
Width: 1503
Flags: W
LayerCount: 2
Fore
SplineSet
384 59 m 0,0,1
 384 32 384 32 364 8 c 128,-1,2
 344 -16 344 -16 315 -16 c 0,3,4
 302 -16 302 -16 293 -12 c 128,-1,5
 284 -8 284 -8 275 5.5 c 128,-1,6
 266 19 266 19 262 27.5 c 128,-1,7
 258 36 258 36 247 61 c 1,8,9
 242 88 242 88 209 189 c 2,10,-1
 143 389 l 2,11,12
 127 439 127 439 115 482 c 128,-1,13
 103 525 103 525 97.5 544.5 c 128,-1,14
 92 564 92 564 88.5 579.5 c 128,-1,15
 85 595 85 595 79.5 602 c 128,-1,16
 74 609 74 609 69 613.5 c 128,-1,17
 64 618 64 618 48 628 c 2,18,-1
 -25 675 l 1,19,20
 -26 681 -26 681 -15 687 c 128,-1,21
 -4 693 -4 693 15 697 c 128,-1,22
 34 701 34 701 56 704 c 128,-1,23
 78 707 78 707 98.5 708.5 c 128,-1,24
 119 710 119 710 133 710 c 2,25,-1
 153 710 l 2,26,27
 154 710 154 710 170 708 c 128,-1,28
 186 706 186 706 203.5 701 c 128,-1,29
 221 696 221 696 239 686 c 1,30,-1
 287 452 l 1,31,-1
 343 228 l 1,32,33
 350 237 350 237 438 340 c 2,34,-1
 581 508 l 1,35,36
 654 596 654 596 657 605 c 1,37,38
 697 621 697 621 805 631 c 1,39,40
 824 619 824 619 831.5 614 c 128,-1,41
 839 609 839 609 851 597.5 c 128,-1,42
 863 586 863 586 875 569 c 1,43,44
 883 517 883 517 899 401 c 2,45,-1
 926 200 l 2,46,47
 940 100 940 100 947 67 c 1,48,49
 955 58 955 58 942.5 45 c 128,-1,50
 930 32 930 32 904.5 21.5 c 128,-1,51
 879 11 879 11 853 11 c 0,52,53
 830 11 830 11 815.5 17.5 c 128,-1,54
 801 24 801 24 796 36 c 128,-1,55
 791 48 791 48 789.5 56 c 128,-1,56
 788 64 788 64 788 77 c 0,57,58
 788 89 788 89 792.5 146.5 c 128,-1,59
 797 204 797 204 797 241 c 0,60,61
 797 421 797 421 709 547 c 1,62,-1
 616 472 l 1,63,64
 552 398 552 398 469.5 285.5 c 128,-1,65
 387 173 387 173 368 139 c 1,66,67
 372 131 372 131 378 105.5 c 128,-1,68
 384 80 384 80 384 59 c 0,0,1
732 920 m 0,69,70
 741 920 741 920 789.5 916 c 128,-1,71
 838 912 838 912 858 912 c 0,72,73
 917 912 917 912 970.5 902.5 c 128,-1,74
 1024 893 1024 893 1077 872 c 128,-1,75
 1130 851 1130 851 1167 809 c 128,-1,76
 1204 767 1204 767 1218 709 c 0,77,78
 1230 657 1230 657 1230 568 c 0,79,80
 1230 498 1230 498 1215 400 c 2,81,-1
 1185 200 l 2,82,83
 1170 97 1170 97 1170 25 c 0,84,85
 1170 -131 1170 -131 1230 -219 c 1,86,-1
 1293 -314 l 1,87,88
 1346 -384 1346 -384 1440 -384 c 1,89,90
 1461 -385 1461 -385 1471 -385 c 0,91,92
 1517 -385 1517 -385 1565.5 -372 c 128,-1,93
 1614 -359 1614 -359 1654.5 -342 c 128,-1,94
 1695 -325 1695 -325 1804 -275 c 1,95,96
 1732 -361 1732 -361 1656.5 -407.5 c 128,-1,97
 1581 -454 1581 -454 1468 -454 c 0,98,99
 1396 -454 1396 -454 1335.5 -436 c 128,-1,100
 1275 -418 1275 -418 1235 -388 c 128,-1,101
 1195 -358 1195 -358 1170 -328.5 c 128,-1,102
 1145 -299 1145 -299 1129 -266 c 1,103,-1
 1084 -158 l 1,104,105
 1051 -82 1051 -82 1051 106 c 0,106,107
 1051 215 1051 215 1060 382.5 c 128,-1,108
 1069 550 1069 550 1069 603 c 0,109,110
 1069 744 1069 744 1027 790 c 1,111,112
 993 823 993 823 906.5 831 c 128,-1,113
 820 839 820 839 797 850 c 0,114,115
 785 856 785 856 762 856 c 0,116,117
 752 856 752 856 737 855 c 128,-1,118
 722 854 722 854 721 854 c 0,119,120
 698 854 698 854 689.5 861 c 128,-1,121
 681 868 681 868 681 888 c 0,122,123
 681 920 681 920 732 920 c 0,69,70
EndSplineSet
EndChar

StartChar: u11736
Encoding: 71478 71478 60
Width: 676
Flags: W
LayerCount: 2
Fore
SplineSet
616 -40 m 1,0,1
 613 70 613 70 587.5 141.5 c 128,-1,2
 562 213 562 213 531 213 c 0,3,4
 526 213 526 213 506.5 212 c 128,-1,5
 487 211 487 211 479 211 c 0,6,7
 433 211 433 211 348 163 c 128,-1,8
 263 115 263 115 263 100 c 1,9,10
 216 142 216 142 216 151 c 0,11,12
 216 152 216 152 220.5 156.5 c 128,-1,13
 225 161 225 161 229.5 170.5 c 128,-1,14
 234 180 234 180 234 193 c 0,15,16
 234 203 234 203 233 210 c 1,17,-1
 333 341 l 2,18,19
 577 660 577 660 643 660 c 0,20,21
 661 660 661 660 671 610 c 128,-1,22
 681 560 681 560 699 560 c 0,23,24
 731 560 731 560 751 585.5 c 128,-1,25
 771 611 771 611 771 646 c 0,26,27
 771 676 771 676 751 699 c 128,-1,28
 731 722 731 722 678 722 c 0,29,30
 667 722 667 722 647 721 c 1,31,32
 592 721 592 721 491 614 c 0,33,34
 447 567 447 567 380.5 483 c 128,-1,35
 314 399 314 399 271.5 341 c 128,-1,36
 229 283 229 283 228 280 c 1,37,38
 211 314 211 314 211 723 c 1,39,40
 201 730 201 730 171 730 c 0,41,42
 121 730 121 730 90 723.5 c 128,-1,43
 59 717 59 717 48 709 c 128,-1,44
 37 701 37 701 19 689 c 128,-1,45
 1 677 1 677 -22 669 c 0,46,47
 -70 652 -70 652 -36 631 c 0,48,49
 -28 626 -28 626 -9 616 c 0,50,51
 27 598 27 598 30 589 c 1,52,53
 100 237 100 237 130 149 c 0,54,55
 161 60 161 60 208 31 c 0,56,57
 225 21 225 21 249 13 c 1,58,59
 265 10 265 10 334 68 c 0,60,61
 420 140 420 140 452 152 c 1,62,63
 506 167 506 167 508 92 c 1,64,65
 507 81 507 81 512 72 c 1,66,-1
 512 32 l 1,67,-1
 512 -69 l 1,68,69
 494 -199 494 -199 444 -268 c 1,70,71
 423 -308 423 -308 404 -336 c 128,-1,72
 385 -364 385 -364 357 -389.5 c 128,-1,73
 329 -415 329 -415 292 -428 c 128,-1,74
 255 -441 255 -441 208 -441 c 0,75,76
 147 -441 147 -441 81 -417 c 0,77,78
 -136 -340 -136 -340 -205 -97 c 0,79,80
 -245 44 -245 44 -247 316 c 1,81,82
 -247 316 -247 316 -247 390 c 0,83,84
 -247 555 -247 555 -212 676 c 0,85,86
 -188 760 -188 760 -132.5 865.5 c 128,-1,87
 -77 971 -77 971 2 1054 c 0,88,89
 51 1105 51 1105 131 1137 c 128,-1,90
 211 1169 211 1169 276.5 1178 c 128,-1,91
 342 1187 342 1187 424 1195 c 256,92,93
 506 1203 506 1203 532 1208 c 0,94,95
 548 1211 548 1211 585 1215 c 128,-1,96
 622 1219 622 1219 651.5 1223.5 c 128,-1,97
 681 1228 681 1228 711 1236 c 128,-1,98
 741 1244 741 1244 756.5 1259 c 128,-1,99
 772 1274 772 1274 769 1296 c 0,100,101
 766 1313 766 1313 698.5 1316.5 c 128,-1,102
 631 1320 631 1320 543.5 1313 c 128,-1,103
 456 1306 456 1306 370 1293.5 c 128,-1,104
 284 1281 284 1281 244 1268 c 0,105,106
 124 1232 124 1232 16.5 1149.5 c 128,-1,107
 -91 1067 -91 1067 -170 950 c 0,108,109
 -265 808 -265 808 -301.5 688.5 c 128,-1,110
 -338 569 -338 569 -338 404 c 0,111,112
 -338 254 -338 254 -328.5 140.5 c 128,-1,113
 -319 27 -319 27 -293.5 -79.5 c 128,-1,114
 -268 -186 -268 -186 -225.5 -262 c 128,-1,115
 -183 -338 -183 -338 -115 -397.5 c 128,-1,116
 -47 -457 -47 -457 47 -492 c 0,117,118
 86 -506 86 -506 118 -515 c 128,-1,119
 150 -524 150 -524 177 -527.5 c 128,-1,120
 204 -531 204 -531 217.5 -532 c 128,-1,121
 231 -533 231 -533 255 -532 c 128,-1,122
 279 -531 279 -531 283 -531 c 0,123,124
 337 -544 337 -544 396.5 -493 c 128,-1,125
 456 -442 456 -442 501 -361 c 128,-1,126
 546 -280 546 -280 578 -191.5 c 128,-1,127
 610 -103 610 -103 616 -40 c 1,0,1
EndSplineSet
EndChar

StartChar: u11737
Encoding: 71479 71479 61
Width: 1074
Flags: W
LayerCount: 2
Fore
SplineSet
522 52 m 0,0,1
 572 52 572 52 638.5 147.5 c 128,-1,2
 705 243 705 243 705 331 c 1,3,4
 707 365 707 365 707 373 c 0,5,6
 707 376 707 376 705 385.5 c 128,-1,7
 703 395 703 395 694 408 c 128,-1,8
 685 421 685 421 672 421 c 0,9,10
 637 421 637 421 573 369.5 c 128,-1,11
 509 318 509 318 459.5 257 c 128,-1,12
 410 196 410 196 410 169 c 0,13,14
 410 121 410 121 444 86.5 c 128,-1,15
 478 52 478 52 522 52 c 0,0,1
1310 -369 m 0,16,17
 1310 -383 1310 -383 1272 -383 c 0,18,19
 1210 -383 1210 -383 1134.5 -326 c 128,-1,20
 1059 -269 1059 -269 1029 -199 c 1,21,-1
 1002 -132 l 1,22,23
 977 -73 977 -73 977 5 c 0,24,25
 977 31 977 31 986 140.5 c 128,-1,26
 995 250 995 250 995 297 c 0,27,28
 995 313 995 313 985.5 336.5 c 128,-1,29
 976 360 976 360 956.5 387 c 128,-1,30
 937 414 937 414 899.5 433 c 128,-1,31
 862 452 862 452 814 452 c 0,32,33
 801 452 801 452 795 450.5 c 128,-1,34
 789 449 789 449 787.5 446 c 128,-1,35
 786 443 786 443 788 436 c 128,-1,36
 790 429 790 429 793 421 c 128,-1,37
 796 413 796 413 798.5 398 c 128,-1,38
 801 383 801 383 801 367 c 0,39,40
 801 308 801 308 768 218 c 128,-1,41
 735 128 735 128 678 64 c 0,42,43
 629 8 629 8 600.5 -10.5 c 128,-1,44
 572 -29 572 -29 529 -29 c 2,45,-1
 517 -29 l 1,46,47
 509 -27 509 -27 505 -27 c 0,48,49
 428 -19 428 -19 391.5 24.5 c 128,-1,50
 355 68 355 68 341 161 c 0,51,52
 340 165 340 165 340 173 c 0,53,54
 340 240 340 240 441 348.5 c 128,-1,55
 542 457 542 457 640 526 c 1,56,57
 566 596 566 596 510 596 c 0,58,59
 468 596 468 596 419.5 580 c 128,-1,60
 371 564 371 564 341 542 c 1,61,62
 295 506 295 506 212.5 425.5 c 128,-1,63
 130 345 130 345 114 315 c 1,64,65
 98 289 98 289 56.5 238.5 c 128,-1,66
 15 188 15 188 -17 156 c 1,67,-1
 -49 267 l 1,68,-1
 199 519 l 2,69,70
 202 522 202 522 228.5 550 c 128,-1,71
 255 578 255 578 265 587.5 c 128,-1,72
 275 597 275 597 302 621 c 128,-1,73
 329 645 329 645 347.5 656 c 128,-1,74
 366 667 366 667 392.5 681.5 c 128,-1,75
 419 696 419 696 445.5 702 c 128,-1,76
 472 708 472 708 500 708 c 0,77,78
 578 708 578 708 632 674 c 128,-1,79
 686 640 686 640 741 542 c 1,80,81
 975 542 975 542 1035 465 c 0,82,83
 1115 363 1115 363 1115 270 c 0,84,85
 1115 207 1115 207 1107 115.5 c 128,-1,86
 1099 24 1099 24 1099 22 c 0,87,88
 1099 -66 1099 -66 1131 -128 c 128,-1,89
 1163 -190 1163 -190 1230 -264 c 0,90,91
 1310 -352 1310 -352 1310 -369 c 0,16,17
EndSplineSet
EndChar

StartChar: u11738
Encoding: 71480 71480 62
Width: 1555
Flags: W
LayerCount: 2
Fore
SplineSet
928 52 m 0,0,1
 978 52 978 52 1044.5 147.5 c 128,-1,2
 1111 243 1111 243 1111 331 c 1,3,4
 1113 365 1113 365 1113 373 c 0,5,6
 1113 376 1113 376 1111 385.5 c 128,-1,7
 1109 395 1109 395 1100 408 c 128,-1,8
 1091 421 1091 421 1078 421 c 0,9,10
 1043 421 1043 421 979 369.5 c 128,-1,11
 915 318 915 318 865.5 257 c 128,-1,12
 816 196 816 196 816 169 c 0,13,14
 816 121 816 121 850 86.5 c 128,-1,15
 884 52 884 52 928 52 c 0,0,1
447 70 m 0,16,17
 497 70 497 70 563.5 165.5 c 128,-1,18
 630 261 630 261 630 349 c 1,19,20
 632 383 632 383 632 391 c 0,21,22
 632 394 632 394 630 403.5 c 128,-1,23
 628 413 628 413 619 426 c 128,-1,24
 610 439 610 439 597 439 c 0,25,26
 562 439 562 439 498 387.5 c 128,-1,27
 434 336 434 336 384.5 275 c 128,-1,28
 335 214 335 214 335 187 c 0,29,30
 335 139 335 139 369 104.5 c 128,-1,31
 403 70 403 70 447 70 c 0,16,17
634 597 m 1,32,33
 689 645 689 645 772.5 676.5 c 128,-1,34
 856 708 856 708 906 708 c 0,35,36
 984 708 984 708 1038 674 c 128,-1,37
 1092 640 1092 640 1147 542 c 1,38,39
 1381 542 1381 542 1441 465 c 0,40,41
 1521 363 1521 363 1521 270 c 0,42,43
 1521 207 1521 207 1513 115.5 c 128,-1,44
 1505 24 1505 24 1505 22 c 0,45,46
 1505 -66 1505 -66 1537 -128 c 128,-1,47
 1569 -190 1569 -190 1636 -264 c 0,48,49
 1716 -352 1716 -352 1716 -369 c 0,50,51
 1716 -383 1716 -383 1678 -383 c 0,52,53
 1616 -383 1616 -383 1540.5 -326 c 128,-1,54
 1465 -269 1465 -269 1435 -199 c 1,55,-1
 1408 -132 l 1,56,57
 1383 -73 1383 -73 1383 5 c 0,58,59
 1383 31 1383 31 1392 140.5 c 128,-1,60
 1401 250 1401 250 1401 297 c 0,61,62
 1401 313 1401 313 1391.5 336.5 c 128,-1,63
 1382 360 1382 360 1362.5 387 c 128,-1,64
 1343 414 1343 414 1305.5 433 c 128,-1,65
 1268 452 1268 452 1220 452 c 0,66,67
 1207 452 1207 452 1201 450.5 c 128,-1,68
 1195 449 1195 449 1193.5 446 c 128,-1,69
 1192 443 1192 443 1194 436 c 128,-1,70
 1196 429 1196 429 1199 421 c 128,-1,71
 1202 413 1202 413 1204.5 398 c 128,-1,72
 1207 383 1207 383 1207 367 c 0,73,74
 1207 308 1207 308 1174 218 c 128,-1,75
 1141 128 1141 128 1084 64 c 0,76,77
 1035 8 1035 8 1006.5 -10.5 c 128,-1,78
 978 -29 978 -29 935 -29 c 2,79,-1
 923 -29 l 1,80,81
 915 -27 915 -27 911 -27 c 0,82,83
 834 -19 834 -19 797.5 24.5 c 128,-1,84
 761 68 761 68 747 161 c 0,85,86
 746 165 746 165 746 173 c 0,87,88
 746 240 746 240 847 348.5 c 128,-1,89
 948 457 948 457 1046 526 c 1,90,91
 975 593 975 593 926 593 c 0,92,93
 871 593 871 593 789.5 565.5 c 128,-1,94
 708 538 708 538 690 516 c 1,95,96
 687 503 687 503 706.5 450.5 c 128,-1,97
 726 398 726 398 726 385 c 0,98,99
 726 326 726 326 693 236 c 128,-1,100
 660 146 660 146 603 82 c 0,101,102
 554 26 554 26 525.5 7.5 c 128,-1,103
 497 -11 497 -11 454 -11 c 2,104,-1
 442 -11 l 1,105,106
 434 -9 434 -9 430 -9 c 0,107,108
 353 -1 353 -1 316.5 42.5 c 128,-1,109
 280 86 280 86 266 179 c 0,110,111
 265 183 265 183 265 191 c 0,112,113
 265 258 265 258 366 366.5 c 128,-1,114
 467 475 467 475 565 544 c 1,115,116
 491 614 491 614 435 614 c 0,117,118
 393 614 393 614 344.5 598 c 128,-1,119
 296 582 296 582 266 560 c 1,120,121
 220 524 220 524 137.5 443.5 c 128,-1,122
 55 363 55 363 39 333 c 1,123,124
 23 307 23 307 -18.5 256.5 c 128,-1,125
 -60 206 -60 206 -92 174 c 1,126,-1
 -124 285 l 1,127,-1
 124 537 l 2,128,129
 127 540 127 540 153.5 568 c 128,-1,130
 180 596 180 596 190 605.5 c 128,-1,131
 200 615 200 615 227 639 c 128,-1,132
 254 663 254 663 272.5 674 c 128,-1,133
 291 685 291 685 317.5 699.5 c 128,-1,134
 344 714 344 714 370.5 720 c 128,-1,135
 397 726 397 726 425 726 c 0,136,137
 473 726 473 726 512.5 712 c 128,-1,138
 552 698 552 698 573 681 c 128,-1,139
 594 664 594 664 609.5 642 c 128,-1,140
 625 620 625 620 628.5 611 c 128,-1,141
 632 602 632 602 634 597 c 1,32,33
EndSplineSet
EndChar

StartChar: u11739
Encoding: 71481 71481 63
Width: 696
Flags: W
LayerCount: 2
Fore
SplineSet
660 860 m 1,0,1
 582 1091 582 1091 473 1180 c 0,2,3
 456 1193 456 1193 383 1227.5 c 128,-1,4
 310 1262 310 1262 292 1262 c 0,5,6
 253 1262 253 1262 206.5 1252.5 c 128,-1,7
 160 1243 160 1243 76 1212 c 1,8,9
 6 1185 6 1185 -48.5 1144.5 c 128,-1,10
 -103 1104 -103 1104 -141 1048.5 c 128,-1,11
 -179 993 -179 993 -204.5 928 c 128,-1,12
 -230 863 -230 863 -244.5 778.5 c 128,-1,13
 -259 694 -259 694 -264.5 605.5 c 128,-1,14
 -270 517 -270 517 -270 406 c 0,15,16
 -270 257 -270 257 -237.5 149.5 c 128,-1,17
 -205 42 -205 42 -119 -86 c 0,18,19
 -38 -207 -38 -207 41.5 -282.5 c 128,-1,20
 121 -358 121 -358 220 -388 c 1,21,22
 254 -393 254 -393 274 -397.5 c 128,-1,23
 294 -402 294 -402 298 -405 c 2,24,-1
 304 -411 l 2,25,26
 308 -414 308 -414 309 -415 c 128,-1,27
 310 -416 310 -416 325 -416.5 c 128,-1,28
 340 -417 340 -417 367 -416 c 0,29,30
 414 -414 414 -414 465.5 -389.5 c 128,-1,31
 517 -365 517 -365 558.5 -329.5 c 128,-1,32
 600 -294 600 -294 635 -255 c 128,-1,33
 670 -216 670 -216 690 -184 c 128,-1,34
 710 -152 710 -152 712 -136 c 1,35,36
 685 -118 685 -118 660 -130 c 128,-1,37
 635 -142 635 -142 600 -174.5 c 128,-1,38
 565 -207 565 -207 534.5 -241 c 128,-1,39
 504 -275 504 -275 465.5 -302.5 c 128,-1,40
 427 -330 427 -330 396 -332 c 1,41,42
 350 -333 350 -333 310 -327.5 c 128,-1,43
 270 -322 270 -322 223.5 -307 c 128,-1,44
 177 -292 177 -292 129 -260 c 128,-1,45
 81 -228 81 -228 36 -179 c 1,46,47
 -35 -105 -35 -105 -85 -10 c 128,-1,48
 -135 85 -135 85 -157 161 c 0,49,50
 -189 270 -189 270 -189 418 c 0,51,52
 -189 664 -189 664 -169 777 c 0,53,54
 -127 1020 -127 1020 37 1113 c 0,55,56
 69 1131 69 1131 107 1144 c 1,57,58
 166 1166 166 1166 221 1166 c 0,59,60
 304 1166 304 1166 381 1115 c 128,-1,61
 458 1064 458 1064 493 995 c 0,62,63
 502 976 502 976 516.5 951 c 128,-1,64
 531 926 531 926 538 913 c 128,-1,65
 545 900 545 900 551.5 877 c 128,-1,66
 558 854 558 854 559 827 c 0,67,68
 560 804 560 804 560.5 787.5 c 128,-1,69
 561 771 561 771 559.5 753.5 c 128,-1,70
 558 736 558 736 555.5 723.5 c 128,-1,71
 553 711 553 711 547 696.5 c 128,-1,72
 541 682 541 682 534 671 c 128,-1,73
 527 660 527 660 515 645.5 c 128,-1,74
 503 631 503 631 490 619 c 128,-1,75
 477 607 477 607 457 589.5 c 128,-1,76
 437 572 437 572 416.5 555.5 c 128,-1,77
 396 539 396 539 366 516 c 1,78,79
 345 498 345 498 317 498 c 0,80,81
 309 498 309 498 288 502 c 128,-1,82
 267 506 267 506 262 505 c 1,83,84
 250 532 250 532 241 703 c 1,85,86
 231 710 231 710 201 710 c 0,87,88
 178 710 178 710 161 709 c 128,-1,89
 144 708 144 708 128.5 705 c 128,-1,90
 113 702 113 702 105 700.5 c 128,-1,91
 97 699 97 699 85 692.5 c 128,-1,92
 73 686 73 686 70 684.5 c 128,-1,93
 67 683 67 683 53.5 673 c 128,-1,94
 40 663 40 663 38 662 c 0,95,96
 30 656 30 656 15 651 c 128,-1,97
 0 646 0 646 -8.5 642.5 c 128,-1,98
 -17 639 -17 639 -21 633.5 c 128,-1,99
 -25 628 -25 628 -15.5 619.5 c 128,-1,100
 -6 611 -6 611 18 598 c 0,101,102
 24 595 24 595 32.5 590.5 c 128,-1,103
 41 586 41 586 43 585 c 128,-1,104
 45 584 45 584 50.5 579 c 128,-1,105
 56 574 56 574 56.5 572 c 128,-1,106
 57 570 57 570 61 561.5 c 128,-1,107
 65 553 65 553 65.5 546.5 c 128,-1,108
 66 540 66 540 70 525 c 128,-1,109
 74 510 74 510 76.5 495.5 c 128,-1,110
 79 481 79 481 84 455.5 c 128,-1,111
 89 430 89 430 95 404 c 0,112,113
 142 180 142 180 164 120 c 0,114,115
 198 25 198 25 257 -1 c 1,116,117
 289 -14 289 -14 334 -14 c 0,118,119
 373 -14 373 -14 421 9 c 1,120,-1
 490 38 l 2,121,122
 559 68 559 68 605 164 c 0,123,124
 642 241 642 241 631 282 c 0,125,126
 627 299 627 299 614 299 c 256,127,128
 601 299 601 299 597 288.5 c 128,-1,129
 593 278 593 278 590 251 c 0,130,131
 583 193 583 193 511.5 125 c 128,-1,132
 440 57 440 57 363 57 c 0,133,134
 339 57 339 57 318.5 64 c 128,-1,135
 298 71 298 71 284 86.5 c 128,-1,136
 270 102 270 102 259 117.5 c 128,-1,137
 248 133 248 133 241 158.5 c 128,-1,138
 234 184 234 184 229.5 202 c 128,-1,139
 225 220 225 220 222.5 250 c 128,-1,140
 220 280 220 280 219 295 c 128,-1,141
 218 310 218 310 217 338.5 c 128,-1,142
 216 367 216 367 216 374 c 1,143,144
 234 387 234 387 274.5 399 c 128,-1,145
 315 411 315 411 357 420.5 c 128,-1,146
 399 430 399 430 447.5 449.5 c 128,-1,147
 496 469 496 469 535 496 c 128,-1,148
 574 523 574 523 603 572.5 c 128,-1,149
 632 622 632 622 640 688 c 2,150,-1
 660 860 l 1,0,1
EndSplineSet
EndChar

StartChar: u1173A
Encoding: 71482 71482 64
Width: 1497
Flags: W
LayerCount: 2
Fore
SplineSet
1338 -70 m 0,0,1
 1338 -87 1338 -87 1331 -87 c 0,2,3
 1325 -87 1325 -87 1307.5 -68.5 c 128,-1,4
 1290 -50 1290 -50 1267.5 -4.5 c 128,-1,5
 1245 41 1245 41 1234 98 c 1,6,-1
 1150 590 l 2,7,8
 1148 598 1148 598 1112.5 624.5 c 128,-1,9
 1077 651 1077 651 1077 657 c 0,10,11
 1076 665 1076 665 1084.5 671.5 c 128,-1,12
 1093 678 1093 678 1107.5 683.5 c 128,-1,13
 1122 689 1122 689 1128 694 c 0,14,15
 1142 705 1142 705 1154.5 717 c 128,-1,16
 1167 729 1167 729 1171.5 733 c 128,-1,17
 1176 737 1176 737 1186 739.5 c 128,-1,18
 1196 742 1196 742 1215 742 c 0,19,20
 1258 742 1258 742 1306 727 c 1,21,22
 1306 672 1306 672 1314 498 c 2,23,-1
 1330 152 l 2,24,25
 1338 -21 1338 -21 1338 -70 c 0,0,1
345 -60 m 0,26,27
 345 -78 345 -78 336 -78 c 0,28,29
 333 -78 333 -78 324 -71 c 128,-1,30
 315 -64 315 -64 302 -49 c 128,-1,31
 289 -34 289 -34 276.5 -14 c 128,-1,32
 264 6 264 6 252.5 36.5 c 128,-1,33
 241 67 241 67 234 101 c 2,34,-1
 214 214 l 2,35,36
 163 505 163 505 149 599 c 0,37,38
 147 607 147 607 111.5 634 c 128,-1,39
 76 661 76 661 75 666 c 0,40,41
 74 673 74 673 79 677.5 c 128,-1,42
 84 682 84 682 93 686.5 c 128,-1,43
 102 691 102 691 122 704 c 128,-1,44
 142 717 142 717 163 736 c 0,45,46
 186 757 186 757 219 757 c 0,47,48
 260 757 260 757 314 741 c 1,49,50
 314 693 314 693 322 516 c 2,51,-1
 337 150 l 2,52,53
 345 -38 345 -38 345 -60 c 0,26,27
694 70 m 0,54,55
 730 70 730 70 780 120 c 128,-1,56
 830 170 830 170 867 246.5 c 128,-1,57
 904 323 904 323 904 390 c 1,58,59
 905 406 905 406 907 423 c 2,60,-1
 910 449 l 1,61,62
 910 467 910 467 897.5 489.5 c 128,-1,63
 885 512 885 512 864 512 c 0,64,65
 823 512 823 512 749.5 447.5 c 128,-1,66
 676 383 676 383 620.5 308.5 c 128,-1,67
 565 234 565 234 565 204 c 0,68,69
 565 149 565 149 604 109.5 c 128,-1,70
 643 70 643 70 694 70 c 0,54,55
845 615 m 0,71,72
 912 615 912 615 963.5 557.5 c 128,-1,73
 1015 500 1015 500 1015 432 c 0,74,75
 1015 361 1015 361 975.5 258 c 128,-1,76
 936 155 936 155 873 85 c 1,77,78
 837 43 837 43 821.5 27 c 128,-1,79
 806 11 806 11 773.5 -6 c 128,-1,80
 741 -23 741 -23 703 -23 c 2,81,-1
 689 -23 l 1,82,83
 679 -21 679 -21 674 -21 c 0,84,85
 589 -12 589 -12 545.5 37 c 128,-1,86
 502 86 502 86 486 195 c 0,87,88
 485 200 485 200 485 210 c 0,89,90
 485 270 485 270 545.5 367 c 128,-1,91
 606 464 606 464 693 539.5 c 128,-1,92
 780 615 780 615 845 615 c 0,71,72
EndSplineSet
EndChar

StartChar: u1173B
Encoding: 71483 71483 65
Width: 1548
Flags: W
LayerCount: 2
Fore
SplineSet
1212 523 m 1,0,1
 1253 536 1253 536 1294 560 c 128,-1,2
 1335 584 1335 584 1375 619.5 c 128,-1,3
 1415 655 1415 655 1440.5 706.5 c 128,-1,4
 1466 758 1466 758 1466 815 c 0,5,6
 1466 888 1466 888 1420 981 c 1,7,-1
 1351 1111 l 1,8,9
 1303 1227 1303 1227 1303 1353 c 0,10,11
 1303 1428 1303 1428 1326 1474 c 128,-1,12
 1349 1520 1349 1520 1422 1584 c 0,13,14
 1474 1630 1474 1630 1524 1660 c 128,-1,15
 1574 1690 1574 1690 1610 1706.5 c 128,-1,16
 1646 1723 1646 1723 1657 1732 c 0,17,18
 1674 1745 1674 1745 1681 1745 c 0,19,20
 1707 1745 1707 1745 1651 1698 c 0,21,22
 1638 1686 1638 1686 1604 1658 c 0,23,24
 1473 1553 1473 1553 1438 1504 c 0,25,26
 1419 1478 1419 1478 1416 1459 c 0,27,28
 1412 1422 1412 1422 1412 1393 c 0,29,30
 1412 1348 1412 1348 1425.5 1303 c 128,-1,31
 1439 1258 1439 1258 1461.5 1209.5 c 128,-1,32
 1484 1161 1484 1161 1491 1141 c 0,33,34
 1501 1110 1501 1110 1533.5 1040.5 c 128,-1,35
 1566 971 1566 971 1588.5 909.5 c 128,-1,36
 1611 848 1611 848 1611 804 c 0,37,38
 1611 727 1611 727 1552 668 c 128,-1,39
 1493 609 1493 609 1334 531 c 0,40,41
 1263 496 1263 496 1249 496 c 0,42,43
 1229 496 1229 496 1213 512 c 1,44,45
 1213 517 1213 517 1212 523 c 1,0,1
939 117 m 1,46,47
 972 146 972 146 1023 175 c 128,-1,48
 1074 204 1074 204 1112.5 226 c 128,-1,49
 1151 248 1151 248 1188 281 c 128,-1,50
 1225 314 1225 314 1245.5 367.5 c 128,-1,51
 1266 421 1266 421 1266 496 c 0,52,53
 1266 568 1266 568 1222 630 c 1,54,55
 1278 623 1278 623 1318 623 c 0,56,57
 1356 623 1356 623 1397 630 c 1,58,59
 1399 612 1399 612 1399 592 c 0,60,61
 1399 492 1399 492 1359 395 c 128,-1,62
 1319 298 1319 298 1242 240 c 0,63,64
 1207 213 1207 213 1102.5 160.5 c 128,-1,65
 998 108 998 108 948 72 c 1,66,67
 953 67 953 67 953 38 c 0,68,69
 953 19 953 19 946 10 c 128,-1,70
 939 1 939 1 908 -12 c 1,71,72
 882 -24 882 -24 857 -24 c 0,73,74
 818 -24 818 -24 806 -7 c 128,-1,75
 794 10 794 10 794 50 c 0,76,77
 794 86 794 86 797 142.5 c 128,-1,78
 800 199 800 199 800 211 c 0,79,80
 800 415 800 415 709 547 c 1,81,-1
 616 472 l 1,82,83
 552 398 552 398 469.5 285.5 c 128,-1,84
 387 173 387 173 368 139 c 1,85,86
 372 131 372 131 378 105.5 c 128,-1,87
 384 80 384 80 384 59 c 0,88,89
 384 32 384 32 364 8 c 128,-1,90
 344 -16 344 -16 315 -16 c 0,91,92
 302 -16 302 -16 293 -12 c 128,-1,93
 284 -8 284 -8 275 5.5 c 128,-1,94
 266 19 266 19 262 27.5 c 128,-1,95
 258 36 258 36 247 61 c 1,96,97
 242 88 242 88 209 189 c 2,98,-1
 143 389 l 2,99,100
 127 439 127 439 115 482 c 128,-1,101
 103 525 103 525 97.5 544.5 c 128,-1,102
 92 564 92 564 88.5 579.5 c 128,-1,103
 85 595 85 595 79.5 602 c 128,-1,104
 74 609 74 609 69 613.5 c 128,-1,105
 64 618 64 618 48 628 c 2,106,-1
 -25 675 l 1,107,108
 -26 681 -26 681 -15 687 c 128,-1,109
 -4 693 -4 693 15 697 c 128,-1,110
 34 701 34 701 56 704 c 128,-1,111
 78 707 78 707 98.5 708.5 c 128,-1,112
 119 710 119 710 133 710 c 2,113,-1
 153 710 l 2,114,115
 154 710 154 710 170 708 c 128,-1,116
 186 706 186 706 203.5 701 c 128,-1,117
 221 696 221 696 239 686 c 1,118,-1
 287 452 l 1,119,-1
 343 228 l 1,120,121
 350 237 350 237 438 340 c 2,122,-1
 581 508 l 1,123,124
 654 596 654 596 657 605 c 1,125,126
 697 621 697 621 805 631 c 1,127,128
 824 619 824 619 831.5 614 c 128,-1,129
 839 609 839 609 851 597.5 c 128,-1,130
 863 586 863 586 875 569 c 1,131,132
 883 516 883 516 894 431 c 1,133,-1
 939 117 l 1,46,47
EndSplineSet
EndChar

StartChar: u1173C
Encoding: 71484 71484 66
Width: 461
Flags: W
LayerCount: 2
Fore
SplineSet
345 -60 m 0,0,1
 345 -78 345 -78 336 -78 c 0,2,3
 333 -78 333 -78 324 -71 c 128,-1,4
 315 -64 315 -64 302 -49 c 128,-1,5
 289 -34 289 -34 276.5 -14 c 128,-1,6
 264 6 264 6 252.5 36.5 c 128,-1,7
 241 67 241 67 234 101 c 2,8,-1
 214 214 l 2,9,10
 163 505 163 505 149 599 c 0,11,12
 147 607 147 607 111.5 634 c 128,-1,13
 76 661 76 661 75 666 c 0,14,15
 74 673 74 673 79 677.5 c 128,-1,16
 84 682 84 682 93 686.5 c 128,-1,17
 102 691 102 691 122 704 c 128,-1,18
 142 717 142 717 163 736 c 0,19,20
 186 757 186 757 219 757 c 0,21,22
 260 757 260 757 314 741 c 1,23,24
 314 693 314 693 322 516 c 2,25,-1
 337 150 l 2,26,27
 345 -38 345 -38 345 -60 c 0,0,1
EndSplineSet
EndChar

StartChar: u1173D
Encoding: 71485 71485 67
Width: 970
Flags: W
LayerCount: 2
Fore
SplineSet
798 -60 m 0,0,1
 798 -77 798 -77 791 -77 c 0,2,3
 785 -77 785 -77 767.5 -58.5 c 128,-1,4
 750 -40 750 -40 727.5 5.5 c 128,-1,5
 705 51 705 51 694 108 c 1,6,-1
 610 600 l 2,7,8
 608 608 608 608 572.5 634.5 c 128,-1,9
 537 661 537 661 537 667 c 0,10,11
 536 675 536 675 544.5 681.5 c 128,-1,12
 553 688 553 688 567.5 693.5 c 128,-1,13
 582 699 582 699 588 704 c 0,14,15
 602 715 602 715 614.5 727 c 128,-1,16
 627 739 627 739 631.5 743 c 128,-1,17
 636 747 636 747 646 749.5 c 128,-1,18
 656 752 656 752 675 752 c 0,19,20
 718 752 718 752 766 737 c 1,21,22
 766 682 766 682 774 508 c 2,23,-1
 790 162 l 2,24,25
 798 -11 798 -11 798 -60 c 0,0,1
465 -60 m 0,26,27
 465 -78 465 -78 456 -78 c 0,28,29
 453 -78 453 -78 444 -71 c 128,-1,30
 435 -64 435 -64 422 -49 c 128,-1,31
 409 -34 409 -34 396.5 -14 c 128,-1,32
 384 6 384 6 372.5 36.5 c 128,-1,33
 361 67 361 67 354 101 c 2,34,-1
 334 214 l 2,35,36
 283 505 283 505 269 599 c 0,37,38
 267 607 267 607 231.5 634 c 128,-1,39
 196 661 196 661 195 666 c 0,40,41
 194 673 194 673 199 677.5 c 128,-1,42
 204 682 204 682 213 686.5 c 128,-1,43
 222 691 222 691 241.5 704 c 128,-1,44
 261 717 261 717 283 736 c 0,45,46
 306 757 306 757 339 757 c 0,47,48
 380 757 380 757 434 741 c 1,49,50
 434 693 434 693 442 516 c 2,51,-1
 457 150 l 2,52,53
 465 -38 465 -38 465 -60 c 0,26,27
EndSplineSet
EndChar

StartChar: u1173E
Encoding: 71486 71486 68
Width: 1474
Flags: W
LayerCount: 2
Fore
SplineSet
1274 444 m 0,0,1
 1274 483 1274 483 1261.5 494 c 128,-1,2
 1249 505 1249 505 1215 505 c 0,3,4
 1148 505 1148 505 1044.5 479 c 128,-1,5
 941 453 941 453 875 417 c 1,6,7
 882 356 882 356 907 242.5 c 128,-1,8
 932 129 932 129 943 117 c 0,9,10
 992 63 992 63 1042 63 c 0,11,12
 1065 63 1065 63 1087 74.5 c 128,-1,13
 1109 86 1109 86 1119 95 c 128,-1,14
 1129 104 1129 104 1150 130 c 128,-1,15
 1171 156 1171 156 1174 159 c 0,16,17
 1215 205 1215 205 1244.5 290.5 c 128,-1,18
 1274 376 1274 376 1274 444 c 0,0,1
1311 649 m 0,19,20
 1370 643 1370 643 1370 517 c 0,21,22
 1370 459 1370 459 1366.5 427.5 c 128,-1,23
 1363 396 1363 396 1358 376 c 0,24,25
 1352 356 1352 356 1336 294 c 0,26,27
 1320 231 1320 231 1303 147 c 0,28,29
 1292 93 1292 93 1278 49 c 1,30,-1
 1213 -188 l 2,31,32
 1203 -225 1203 -225 1193.5 -253.5 c 128,-1,33
 1184 -282 1184 -282 1168 -317.5 c 128,-1,34
 1152 -353 1152 -353 1134.5 -380 c 128,-1,35
 1117 -407 1117 -407 1091 -436 c 128,-1,36
 1065 -465 1065 -465 1033.5 -486 c 128,-1,37
 1002 -507 1002 -507 960 -524.5 c 128,-1,38
 918 -542 918 -542 868 -551 c 0,39,40
 825 -559 825 -559 783 -559 c 0,41,42
 694 -559 694 -559 543 -504 c 0,43,44
 449 -469 449 -469 381 -409.5 c 128,-1,45
 313 -350 313 -350 270.5 -274 c 128,-1,46
 228 -198 228 -198 202.5 -91.5 c 128,-1,47
 177 15 177 15 167.5 128.5 c 128,-1,48
 158 242 158 242 158 392 c 0,49,50
 158 557 158 557 194.5 676.5 c 128,-1,51
 231 796 231 796 326 938 c 0,52,53
 343 964 343 964 360 987 c 128,-1,54
 377 1010 377 1010 397.5 1032.5 c 128,-1,55
 418 1055 418 1055 432 1071.5 c 128,-1,56
 446 1088 446 1088 471 1110 c 128,-1,57
 496 1132 496 1132 507 1143 c 128,-1,58
 518 1154 518 1154 547.5 1177.5 c 128,-1,59
 577 1201 577 1201 586 1208.5 c 128,-1,60
 595 1216 595 1216 629 1242.5 c 128,-1,61
 663 1269 663 1269 671 1275 c 0,62,63
 700 1298 700 1298 831.5 1366 c 128,-1,64
 963 1434 963 1434 1061 1480 c 0,65,66
 1078 1488 1078 1488 1155 1500.5 c 128,-1,67
 1232 1513 1232 1513 1273 1513 c 0,68,69
 1311 1513 1311 1513 1272 1500 c 0,70,71
 1257 1495 1257 1495 1206 1481 c 0,72,73
 1071 1444 1071 1444 1036 1425 c 0,74,75
 922 1362 922 1362 756.5 1250.5 c 128,-1,76
 591 1139 591 1139 498 1042 c 0,77,78
 419 959 419 959 363.5 853.5 c 128,-1,79
 308 748 308 748 284 664 c 0,80,81
 249 543 249 543 249 378 c 0,82,83
 249 114 249 114 269 -8 c 0,84,85
 311 -272 311 -272 477 -380 c 0,86,87
 522 -409 522 -409 577 -429 c 0,88,89
 643 -453 643 -453 704 -453 c 0,90,91
 797 -453 797 -453 882 -396 c 128,-1,92
 967 -339 967 -339 1006 -263 c 0,93,94
 1028 -218 1028 -218 1040 -154 c 128,-1,95
 1052 -90 1052 -90 1058 -71 c 0,96,97
 1068 -43 1068 -43 1068 -34 c 0,98,99
 1068 -16 1068 -16 1048 -16 c 0,100,101
 999 -16 999 -16 964 1 c 128,-1,102
 929 18 929 18 881 62 c 0,103,104
 864 77 864 77 849.5 123 c 128,-1,105
 835 169 835 169 801.5 255.5 c 128,-1,106
 768 342 768 342 711 434 c 0,107,108
 704 445 704 445 666.5 478.5 c 128,-1,109
 629 512 629 512 620 525 c 1,110,111
 683 552 683 552 762 565 c 1,112,-1
 786 568 l 2,113,114
 793 569 793 569 799 569 c 0,115,116
 841 569 841 569 856 540 c 1,117,-1
 853 540 l 1,118,119
 852 533 852 533 861 494 c 1,120,121
 974 534 974 534 1057.5 569 c 128,-1,122
 1141 604 1141 604 1169 619 c 128,-1,123
 1197 634 1197 634 1222 642 c 128,-1,124
 1247 650 1247 650 1276 650 c 0,125,126
 1287 650 1287 650 1296 649.5 c 128,-1,127
 1305 649 1305 649 1311 649 c 0,19,20
EndSplineSet
EndChar

StartChar: u1173F
Encoding: 71487 71487 69
Width: 609
Flags: W
LayerCount: 2
Fore
SplineSet
816 90 m 1,0,1
 816 -6 816 -6 755 -6 c 0,2,3
 719 -6 719 -6 705 5 c 1,4,-1
 690 30 l 1,5,-1
 656 266 l 2,6,7
 641 370 641 370 625 395 c 1,8,9
 609 384 609 384 559 322 c 1,10,11
 454 187 454 187 403 121 c 1,12,13
 331 38 331 38 294 38 c 0,14,15
 243 38 243 38 243 184 c 0,16,17
 243 340 243 340 233 393 c 1,18,19
 225 445 225 445 196 486 c 0,20,21
 180 508 180 508 97 544 c 0,22,23
 35 570 35 570 35 616 c 0,24,25
 35 642 35 642 60 661.5 c 128,-1,26
 85 681 85 681 112 681 c 1,27,-1
 136 678 l 1,28,29
 190 666 190 666 238 632 c 1,30,31
 247 627 247 627 278 577 c 128,-1,32
 309 527 309 527 316 510 c 0,33,34
 324 492 324 492 349 343 c 0,35,36
 358 285 358 285 364 280 c 0,37,38
 379 270 379 270 479 405.5 c 128,-1,39
 579 541 579 541 616 600 c 1,40,41
 676 679 676 679 724 679 c 0,42,43
 762 679 762 679 762 582 c 0,44,45
 762 565 762 565 767.5 511 c 128,-1,46
 773 457 773 457 788 345 c 1,47,-1
 816 90 l 1,0,1
823 25 m 0,48,49
 803 25 803 25 788.5 6.5 c 128,-1,50
 774 -12 774 -12 774 -34 c 0,51,52
 774 -52 774 -52 845.5 -94 c 128,-1,53
 917 -136 917 -136 917 -197 c 1,54,-1
 914 -223 l 1,55,-1
 908 -285 l 1,56,-1
 906 -408 l 2,57,58
 906 -434 906 -434 915 -460 c 1,59,-1
 936 -497 l 1,60,61
 943 -534 943 -534 965.5 -560.5 c 128,-1,62
 988 -587 988 -587 1023.5 -601.5 c 128,-1,63
 1059 -616 1059 -616 1101.5 -622.5 c 128,-1,64
 1144 -629 1144 -629 1198 -629 c 1,65,-1
 1247 -628 l 1,66,-1
 1287 -627 l 2,67,68
 1307 -627 1307 -627 1331.5 -618.5 c 128,-1,69
 1356 -610 1356 -610 1377.5 -597 c 128,-1,70
 1399 -584 1399 -584 1413.5 -566 c 128,-1,71
 1428 -548 1428 -548 1428 -531 c 1,72,-1
 1411 -505 l 1,73,74
 1394 -482 1394 -482 1377 -479 c 1,75,-1
 1368 -483 l 1,76,77
 1359 -491 1359 -491 1308 -500.5 c 128,-1,78
 1257 -510 1257 -510 1205.5 -516 c 128,-1,79
 1154 -522 1154 -522 1132 -522 c 0,80,81
 1099 -522 1099 -522 1063 -487 c 1,82,83
 1027 -454 1027 -454 1012 -408 c 1,84,-1
 1000 -354 l 1,85,-1
 996 -309 l 1,86,-1
 997 -279 l 2,87,88
 998 -264 998 -264 1008 -227.5 c 128,-1,89
 1018 -191 1018 -191 1018 -172 c 2,90,-1
 1018 -161 l 1,91,92
 1011 -121 1011 -121 994 -91 c 128,-1,93
 977 -61 977 -61 942 -31 c 0,94,95
 877 25 877 25 823 25 c 0,48,49
759 5 m 0,96,97
 741 15 741 15 719.5 6 c 128,-1,98
 698 -3 698 -3 688 -21 c 0,99,100
 679 -37 679 -37 719.5 -109 c 128,-1,101
 760 -181 760 -181 730 -234 c 1,102,-1
 714 -255 l 1,103,-1
 678 -306 l 1,104,-1
 615 -411 l 2,105,106
 608 -423 608 -423 603.5 -435 c 128,-1,107
 599 -447 599 -447 597 -461 c 1,108,-1
 596 -503 l 1,109,110
 573 -573 573 -573 616.5 -633 c 128,-1,111
 660 -693 660 -693 757 -749 c 1,112,-1
 800 -772 l 1,113,-1
 835 -792 l 2,114,115
 849 -800 849 -800 868.5 -805 c 128,-1,116
 888 -810 888 -810 908.5 -811 c 128,-1,117
 929 -812 929 -812 948 -809.5 c 128,-1,118
 967 -807 967 -807 982.5 -799 c 128,-1,119
 998 -791 998 -791 1005 -779 c 1,120,-1
 1004 -748 l 1,121,122
 1000 -719 1000 -719 987 -708 c 1,123,-1
 977 -707 l 1,124,125
 960 -712 960 -712 874 -677.5 c 128,-1,126
 788 -643 788 -643 754 -623 c 0,127,128
 725 -607 725 -607 711 -558 c 0,129,130
 697 -512 697 -512 707 -464 c 1,131,-1
 723 -412 l 1,132,-1
 742 -371 l 1,133,-1
 758 -345 l 1,134,135
 767 -333 767 -333 793.5 -306.5 c 128,-1,136
 820 -280 820 -280 830 -263 c 1,137,-1
 835 -253 l 1,138,139
 862 -182 862 -182 834 -103 c 0,140,141
 806 -22 806 -22 759 5 c 0,96,97
795 642 m 0,142,143
 775 642 775 642 760.5 660.5 c 128,-1,144
 746 679 746 679 746 701 c 0,145,146
 746 719 746 719 817.5 761 c 128,-1,147
 889 803 889 803 889 864 c 1,148,-1
 886 890 l 1,149,-1
 880 952 l 1,150,-1
 878 1075 l 2,151,152
 878 1101 878 1101 887 1127 c 1,153,-1
 908 1164 l 1,154,155
 915 1201 915 1201 937.5 1227.5 c 128,-1,156
 960 1254 960 1254 995.5 1268.5 c 128,-1,157
 1031 1283 1031 1283 1073.5 1289.5 c 128,-1,158
 1116 1296 1116 1296 1170 1296 c 1,159,-1
 1219 1295 l 1,160,-1
 1429 1267 l 1,161,-1
 1414 1272 l 1,162,163
 1437 1274 1437 1274 1496 1259 c 0,164,165
 1537 1249 1537 1249 1527 1241 c 0,166,167
 1525 1239 1525 1239 1519 1237 c 1,168,-1
 1459 1201 l 1,169,170
 1451 1191 1451 1191 1405.5 1169.5 c 128,-1,171
 1360 1148 1360 1148 1349 1146 c 1,172,-1
 1340 1150 l 1,173,174
 1327 1162 1327 1162 1235.5 1175.5 c 128,-1,175
 1144 1189 1144 1189 1104 1189 c 0,176,177
 1071 1189 1071 1189 1035 1154 c 1,178,179
 999 1121 999 1121 984 1075 c 1,180,-1
 972 1021 l 1,181,-1
 968 976 l 1,182,-1
 969 946 l 2,183,184
 970 940 970 940 971 933 c 128,-1,185
 972 926 972 926 973 918.5 c 128,-1,186
 974 911 974 911 976 903 c 128,-1,187
 978 895 978 895 979.5 887 c 128,-1,188
 981 879 981 879 982.5 872 c 128,-1,189
 984 865 984 865 985.5 859 c 128,-1,190
 987 853 987 853 988 848.5 c 128,-1,191
 989 844 989 844 989 841 c 1,192,-1
 990 839 l 1,193,-1
 990 828 l 1,194,195
 983 788 983 788 966.5 758 c 128,-1,196
 950 728 950 728 914 698 c 0,197,198
 849 642 849 642 795 642 c 0,142,143
732 662 m 1,199,200
 713 653 713 653 692 661.5 c 128,-1,201
 671 670 671 670 660 689 c 0,202,203
 651 704 651 704 692 776 c 128,-1,204
 733 848 733 848 702 901 c 1,205,-1
 686 922 l 1,206,-1
 650 973 l 1,207,-1
 587 1078 l 2,208,209
 574 1101 574 1101 569 1128 c 1,210,-1
 568 1171 l 1,211,212
 545 1241 545 1241 588.5 1300.5 c 128,-1,213
 632 1360 632 1360 729 1416 c 1,214,-1
 772 1440 l 1,215,-1
 807 1459 l 2,216,217
 821 1467 821 1467 840.5 1472 c 128,-1,218
 860 1477 860 1477 880.5 1478 c 128,-1,219
 901 1479 901 1479 920.5 1476.5 c 128,-1,220
 940 1474 940 1474 955 1466 c 128,-1,221
 970 1458 970 1458 978 1446 c 1,222,-1
 976 1415 l 1,223,224
 973 1387 973 1387 959 1375 c 1,225,-1
 950 1374 l 1,226,227
 932 1379 932 1379 846 1344.5 c 128,-1,228
 760 1310 760 1310 726 1290 c 0,229,230
 697 1274 697 1274 683 1225 c 0,231,232
 679 1210 679 1210 676.5 1194.5 c 128,-1,233
 674 1179 674 1179 674.5 1163 c 128,-1,234
 675 1147 675 1147 679 1131 c 2,235,-1
 695 1079 l 1,236,-1
 714 1038 l 1,237,-1
 730 1012 l 1,238,239
 739 1001 739 1001 765.5 974 c 128,-1,240
 792 947 792 947 802 930 c 2,241,-1
 807 921 l 1,242,243
 815 902 815 902 818.5 885 c 128,-1,244
 822 868 822 868 822 850 c 128,-1,245
 822 832 822 832 818.5 812.5 c 128,-1,246
 815 793 815 793 807 770 c 0,247,248
 778 689 778 689 732 662 c 1,199,200
EndSplineSet
EndChar
